<svg width="493" height="472" viewBox="0 0 493 472" fill="none" xmlns="http://www.w3.org/2000/svg">
<g opacity="0.03">
<path d="M298.482 468.669L284.442 471.727H381.369L373.669 468.782C367.591 465.926 362.157 461.863 357.699 456.839C353.241 451.816 349.852 445.937 347.739 439.561C311.504 358.354 226.693 167.738 221.371 156.412C216.049 145.086 210.84 133.76 206.311 123.227V122.32H151.279V125.379C157.799 126.428 163.749 129.715 168.109 134.675C172.469 139.636 174.966 145.959 175.172 152.561V154.26C175.228 155.316 175.228 156.375 175.172 157.431C174.872 160.76 173.91 163.994 172.341 166.945C163.848 186.312 155.129 205.68 146.637 225.047C129.878 262.876 112.667 301.837 95.4554 340.119L89.4541 353.484C82.7733 368.207 76.0927 383.044 69.412 397.655C67.2605 402.412 65.109 407.509 62.9576 412.492L61.0325 417.362C59.334 421.44 57.409 425.744 55.3708 429.821C51.7024 439.269 45.8502 447.714 38.2929 454.466C30.7356 461.218 21.6877 466.085 11.8893 468.669L0 471.727H92.0586V468.669C86.9877 468.762 81.9645 467.674 77.3857 465.493C72.807 463.311 68.798 460.094 65.6751 456.097C64.0338 452.521 63.2509 448.61 63.3885 444.677C63.5261 440.745 64.5805 436.898 66.4678 433.445L91.3792 377.608C92.0176 375.86 92.774 374.157 93.6437 372.511L94.8894 369.567L97.0409 365.376V364.81C98.1283 363.32 99.517 362.077 101.117 361.159C102.716 360.242 104.491 359.672 106.326 359.486H111.761H258.171H263.72C265.535 359.687 267.288 360.265 268.867 361.181C270.446 362.098 271.817 363.333 272.892 364.81L273.798 366.735C275.496 370.36 277.082 373.871 278.554 378.061C287.046 396.862 295.991 417.589 306.862 443.412C309.365 448.297 310.351 453.819 309.693 459.268C308.765 461.632 307.316 463.756 305.453 465.482C303.59 467.208 301.363 468.491 298.935 469.235M263.267 346.575C262.981 346.938 262.621 347.237 262.211 347.452C261.801 347.667 261.351 347.792 260.889 347.821H108.477C108.026 347.817 107.583 347.702 107.188 347.484C106.792 347.267 106.457 346.954 106.213 346.575C106.011 346.15 105.907 345.686 105.907 345.216C105.907 344.746 106.011 344.281 106.213 343.857L182.532 173.967C182.733 173.469 183.077 173.043 183.52 172.74C183.963 172.438 184.486 172.274 185.023 172.268C185.55 172.249 186.07 172.391 186.515 172.674C186.959 172.957 187.308 173.368 187.514 173.854L208.802 221.763C225.56 259.705 247.301 308.52 263.267 344.423C263.438 344.836 263.527 345.278 263.527 345.725C263.527 346.172 263.438 346.615 263.267 347.028" fill="#131411"/>
<path d="M492.677 311.125C492.677 314.686 491.621 318.168 489.643 321.13C487.664 324.091 484.852 326.399 481.563 327.762C478.273 329.125 474.653 329.482 471.16 328.787C467.668 328.092 464.46 326.377 461.942 323.858C459.424 321.34 457.709 318.131 457.014 314.638C456.32 311.145 456.676 307.524 458.039 304.233C459.402 300.943 461.71 298.13 464.67 296.151C467.631 294.172 471.112 293.116 474.673 293.116C479.447 293.116 484.027 295.014 487.403 298.391C490.78 301.768 492.677 306.349 492.677 311.125Z" fill="#131411"/>
<path d="M492.677 453.719C492.677 457.28 491.621 460.762 489.643 463.724C487.664 466.685 484.852 468.993 481.563 470.356C478.273 471.719 474.653 472.076 471.16 471.381C467.668 470.686 464.46 468.971 461.942 466.452C459.424 463.934 457.709 460.725 457.014 457.232C456.32 453.739 456.676 450.118 458.039 446.827C459.402 443.537 461.71 440.724 464.67 438.746C467.631 436.767 471.112 435.71 474.673 435.71C479.447 435.71 484.027 437.608 487.403 440.985C490.78 444.362 492.677 448.943 492.677 453.719Z" fill="#131411"/>
<path d="M248.208 0L206.878 94.2321H193.629L234.846 0H248.208Z" fill="#131411"/>
</g>
</svg>
