<svg width="164" height="155" viewBox="0 0 164 155" fill="none" xmlns="http://www.w3.org/2000/svg">
<path d="M10.7434 148.946C11.8297 147.848 12.3729 146.499 12.3729 144.899C12.3729 143.3 11.8297 141.954 10.7434 140.861C9.66297 139.763 8.34085 139.214 6.77698 139.214C5.21311 139.214 3.888 139.763 2.80165 140.861C1.72127 141.954 1.18107 143.3 1.18107 144.899C1.18107 146.499 1.72127 147.848 2.80165 148.946C3.888 150.039 5.21311 150.585 6.77698 150.585C8.34085 150.585 9.66297 150.039 10.7434 148.946ZM11.388 140.226C12.6534 141.509 13.2861 143.067 13.2861 144.899C13.2861 146.732 12.6534 148.29 11.388 149.573C10.1226 150.857 8.58558 151.498 6.77698 151.498C4.98032 151.498 3.4463 150.857 2.17491 149.573C0.903517 148.29 0.267822 146.732 0.267822 144.899C0.267822 143.067 0.903517 141.509 2.17491 140.226C3.4463 138.942 4.98032 138.301 6.77698 138.301C8.58558 138.301 10.1226 138.942 11.388 140.226Z" fill="#565656"/>
<path d="M15.6783 150.406H16.4125C16.4722 150.358 16.5528 150.275 16.6543 150.155C16.7617 150.036 16.9467 149.752 17.2094 149.305C17.472 148.851 17.7048 148.347 17.9077 147.791C18.1107 147.236 18.2927 146.469 18.4539 145.49C18.621 144.511 18.7046 143.458 18.7046 142.33V138.48H26.315V150.406H27.9625V154.068H27.0492V151.319H16.5916V154.068H15.6783V150.406ZM19.6179 142.33C19.6179 143.428 19.5432 144.455 19.394 145.41C19.2508 146.365 19.0777 147.138 18.8747 147.729C18.6777 148.314 18.4748 148.818 18.2659 149.242C18.057 149.66 17.8779 149.961 17.7287 150.146L17.5138 150.406H25.3928V139.402H19.6179V142.33Z" fill="#565656"/>
<path d="M32.2886 151.319V138.48H33.2108V144.353H41.0003V138.48H41.9136V151.319H41.0003V145.267H33.2108V151.319H32.2886Z" fill="#565656"/>
<path d="M54.6828 146.645L51.8356 139.769L48.9974 146.645H54.6828ZM55.0499 147.559H48.6303L47.0724 151.319H46.0606L51.379 138.48H52.3012L57.6106 151.319H56.6078L55.0499 147.559Z" fill="#565656"/>
<path d="M67.7939 149.573C66.5225 148.29 65.8868 146.732 65.8868 144.899C65.8868 143.067 66.5225 141.509 67.7939 140.226C69.0653 138.942 70.5993 138.301 72.396 138.301C73.0466 138.301 73.6704 138.396 74.2673 138.587C74.8642 138.772 75.3566 139.002 75.7446 139.277C76.1385 139.545 76.4817 139.814 76.7742 140.083C77.0727 140.351 77.2876 140.575 77.4189 140.754L77.6248 141.049L76.9802 141.605C76.9443 141.545 76.8847 141.458 76.8011 141.345C76.7235 141.232 76.5444 141.038 76.2639 140.763C75.9833 140.488 75.6759 140.25 75.3417 140.047C75.0134 139.838 74.5836 139.647 74.0524 139.474C73.5211 139.301 72.969 139.214 72.396 139.214C70.8321 139.214 69.507 139.763 68.4207 140.861C67.3403 141.954 66.8001 143.3 66.8001 144.899C66.8001 146.499 67.3403 147.848 68.4207 148.946C69.507 150.039 70.8321 150.585 72.396 150.585C72.9809 150.585 73.539 150.504 74.0703 150.343C74.6015 150.176 75.0402 149.976 75.3864 149.743C75.7386 149.51 76.046 149.278 76.3086 149.045C76.5713 148.812 76.7653 148.618 76.8906 148.463L77.0697 148.203L77.7143 148.749C77.6666 148.821 77.592 148.92 77.4905 149.045C77.395 149.17 77.1771 149.391 76.8369 149.707C76.5026 150.024 76.1445 150.304 75.7625 150.549C75.3864 150.794 74.891 151.015 74.2762 151.212C73.6674 151.403 73.0406 151.498 72.396 151.498C70.5993 151.498 69.0653 150.857 67.7939 149.573Z" fill="#565656"/>
<path d="M91.8445 138.48V151.319H90.9313V139.402H83.1418V151.319H82.2196V138.48H91.8445Z" fill="#565656"/>
<path d="M104.614 146.645L101.767 139.769L98.9283 146.645H104.614ZM104.981 147.559H98.5612L97.0033 151.319H95.9916L101.31 138.48H102.232L107.542 151.319H106.539L104.981 147.559Z" fill="#565656"/>
<path d="M121.036 138.48V151.319H120.114V139.402H113.972V142.33C113.972 144.186 113.888 145.744 113.721 147.004C113.56 148.257 113.318 149.2 112.996 149.833C112.679 150.46 112.339 150.895 111.975 151.14C111.611 151.379 111.178 151.498 110.677 151.498C110.516 151.498 110.343 151.48 110.158 151.444C109.978 151.409 109.838 151.373 109.737 151.337L109.576 151.283V150.406C109.94 150.525 110.274 150.585 110.578 150.585C110.931 150.585 111.241 150.48 111.51 150.272C111.784 150.063 112.047 149.681 112.297 149.126C112.548 148.57 112.736 147.723 112.862 146.583C112.993 145.437 113.058 144.019 113.058 142.33V138.48H121.036Z" fill="#565656"/>
<path d="M131.325 151.319H126.741V138.48H127.663V143.431H131.325C132.513 143.431 133.498 143.81 134.28 144.568C135.062 145.326 135.453 146.263 135.453 147.38C135.453 148.49 135.062 149.424 134.28 150.182C133.498 150.94 132.513 151.319 131.325 151.319ZM127.663 150.406H131.325C132.28 150.406 133.053 150.122 133.644 149.555C134.241 148.982 134.539 148.257 134.539 147.38C134.539 146.496 134.241 145.771 133.644 145.204C133.053 144.637 132.28 144.353 131.325 144.353H127.663V150.406Z" fill="#565656"/>
<path d="M140.227 151.319V138.48H141.149V144.353H148.938V138.48H149.851V151.319H148.938V145.267H141.149V151.319H140.227Z" fill="#565656"/>
<path d="M158.771 138.48H163.623V151.319H162.71V146.001H158.583L155.556 151.319H154.554L157.669 145.822C157.598 145.81 157.496 145.786 157.365 145.75C157.24 145.708 157.01 145.604 156.676 145.437C156.347 145.264 156.061 145.058 155.816 144.819C155.571 144.58 155.345 144.231 155.136 143.771C154.927 143.312 154.822 142.801 154.822 142.24C154.822 141.178 155.195 140.285 155.941 139.563C156.694 138.841 157.637 138.48 158.771 138.48ZM162.71 139.402H158.771C157.863 139.402 157.132 139.668 156.577 140.199C156.022 140.73 155.744 141.414 155.744 142.249C155.744 143.079 156.022 143.759 156.577 144.291C157.132 144.822 157.863 145.087 158.771 145.087H162.71V139.402Z" fill="#565656"/>
<path d="M56.2959 25.8106L67.5142 0.0419922H63.8875L52.6999 25.8106H56.2959Z" fill="#D8D8D8"/>
<path fill-rule="evenodd" clip-rule="evenodd" d="M81.4087 127.586L77.6606 128.399H104.186L102.086 127.6C100.428 126.821 98.944 125.717 97.7237 124.355C96.5035 122.993 95.5716 121.4 94.9837 119.671C90.3865 109.391 82.9155 92.7125 76.0934 77.4828C68.2519 59.9771 61.268 44.3859 60.4919 42.6275C59.826 41.1188 59.1667 39.7008 58.5287 38.3288C57.7762 36.7103 57.0535 35.1559 56.385 33.5925V33.3466H41.3469V34.1763C43.1242 34.4686 44.7437 35.3677 45.9271 36.7193C47.1105 38.0709 47.7838 39.7905 47.8315 41.5826V42.0129C47.8469 42.3098 47.8469 42.6073 47.8315 42.9041C47.7648 43.7963 47.5124 44.6649 47.0904 45.4548L40.05 61.2507C35.5108 71.515 30.7863 82.1173 26.0618 92.5352L24.4253 96.1307C23.1525 98.9916 21.8486 101.837 20.5468 104.678C20.0166 105.835 19.4869 106.991 18.9597 108.147C18.3735 109.436 17.7873 110.818 17.2011 112.2L17.1996 112.203L16.6747 113.494C16.2115 114.631 15.7174 115.799 15.1307 116.905C14.1387 119.477 12.5459 121.777 10.4841 123.615C8.42231 125.454 5.95062 126.777 3.27321 127.477L0 128.306H25.1664V127.477C23.7809 127.498 22.4095 127.198 21.1607 126.601C19.9119 126.004 18.82 125.125 17.9716 124.035C17.5145 123.068 17.2931 122.008 17.3253 120.94C17.3575 119.872 17.6423 118.826 18.1568 117.889L25.5678 101.294C25.6579 101.132 25.727 100.971 25.7935 100.815C25.8409 100.705 25.8869 100.597 25.9383 100.495C25.9811 100.41 26.0423 100.295 26.1118 100.165C26.2431 99.9195 26.4039 99.6188 26.5251 99.3576C26.82 98.9491 27.1977 98.6068 27.6338 98.3527C28.07 98.0986 28.5549 97.9384 29.0571 97.8824H71.7318C72.2341 97.9384 72.7189 98.0986 73.1551 98.3527C73.5912 98.6068 73.969 98.9491 74.2639 99.3576L74.5109 99.88C74.9741 100.863 75.4064 101.816 75.8078 102.799C78.1237 107.932 80.5632 113.586 83.5276 120.562C84.2257 121.893 84.4953 123.406 84.2995 124.895C84.0465 125.537 83.6513 126.113 83.1434 126.581C82.6464 127.039 82.054 127.383 81.4087 127.586ZM71.3559 94.503C71.4687 94.4442 71.5658 94.3596 71.6392 94.2562L71.7935 93.9796C71.8477 93.8751 71.876 93.7591 71.876 93.6415C71.876 93.5239 71.8477 93.408 71.7935 93.3035C70.447 90.2812 68.9499 86.9267 67.3888 83.4291C63.9024 75.6175 60.0975 67.0923 56.9408 59.96L51.1973 47.2065C51.1399 47.0778 51.0437 46.9701 50.9219 46.8985C50.8001 46.8269 50.6589 46.7949 50.518 46.807C50.3743 46.8018 50.2324 46.8402 50.1111 46.917C49.9898 46.9938 49.8948 47.1054 49.8386 47.2372L28.9953 93.5493C28.9409 93.6592 28.9125 93.7802 28.9125 93.9028C28.9125 94.0253 28.9409 94.1462 28.9953 94.2562C29.0574 94.3633 29.1478 94.4516 29.2566 94.5112C29.3655 94.5708 29.4888 94.5994 29.6129 94.5942H70.9907C71.118 94.593 71.2432 94.5618 71.3559 94.503Z" fill="#D8D8D8"/>
<path d="M121.63 128.399C126.71 127.535 132.799 125.76 135.731 120.627C136.791 118.772 137.32 115.856 137.32 111.881C137.32 91.1854 137.32 70.49 137.32 49.7946C137.32 45.43 132.808 42.5258 128.836 44.3333L121.691 47.5839L120.855 45.4718L145.864 33.3818L147.057 34.2161V111.881C147.057 115.989 147.52 118.971 148.448 120.826C151.119 126.171 158.034 126.924 162.946 128.399H121.63Z" fill="#D8D8D8"/>
</svg>
