<svg width="176" height="152" viewBox="0 0 176 152" fill="none" xmlns="http://www.w3.org/2000/svg">
<path d="M2.86768 138.48H12.2151V139.402H7.998V151.319H7.08475V139.402H2.86768V138.48Z" fill="#565656"/>
<path d="M18.7641 138.48H23.3483C24.5361 138.48 25.521 138.859 26.3029 139.617C27.0849 140.375 27.4758 141.312 27.4758 142.428C27.4758 143.539 27.0849 144.473 26.3029 145.231C25.521 145.989 24.5361 146.368 23.3483 146.368H19.6863V151.319H18.7641V138.48ZM23.3483 139.402H19.6863V145.455H23.3483C24.3033 145.455 25.0763 145.171 25.6672 144.604C26.2641 144.031 26.5626 143.306 26.5626 142.428C26.5626 141.545 26.2641 140.82 25.6672 140.253C25.0763 139.686 24.3033 139.402 23.3483 139.402Z" fill="#565656"/>
<path d="M44.8406 151.319H43.9274V140.226L35.3947 151.319H34.6606V138.48H35.5828V149.573L44.1064 138.48H44.8406V151.319Z" fill="#565656"/>
<path d="M61.5917 149.573C60.3203 148.29 59.6846 146.732 59.6846 144.899C59.6846 143.067 60.3203 141.509 61.5917 140.226C62.8631 138.942 64.3971 138.301 66.1938 138.301C66.8444 138.301 67.4682 138.396 68.0651 138.587C68.662 138.772 69.1544 139.002 69.5424 139.277C69.9363 139.545 70.2795 139.814 70.572 140.083C70.8705 140.351 71.0854 140.575 71.2167 140.754L71.4226 141.049L70.778 141.605C70.7421 141.545 70.6825 141.458 70.5989 141.345C70.5213 141.232 70.3422 141.038 70.0617 140.763C69.7811 140.488 69.4737 140.25 69.1395 140.047C68.8112 139.838 68.3814 139.647 67.8502 139.474C67.3189 139.301 66.7668 139.214 66.1938 139.214C64.6299 139.214 63.3048 139.763 62.2185 140.861C61.1381 141.954 60.5979 143.3 60.5979 144.899C60.5979 146.499 61.1381 147.848 62.2185 148.946C63.3048 150.039 64.6299 150.585 66.1938 150.585C66.7788 150.585 67.3369 150.504 67.8681 150.343C68.3993 150.176 68.838 149.976 69.1842 149.743C69.5364 149.51 69.8438 149.278 70.1065 149.045C70.3691 148.812 70.5631 148.618 70.6884 148.463L70.8675 148.203L71.5121 148.749C71.4644 148.821 71.3898 148.92 71.2883 149.045C71.1928 149.17 70.9749 149.391 70.6347 149.707C70.3004 150.024 69.9423 150.304 69.5603 150.549C69.1842 150.794 68.6888 151.015 68.074 151.212C67.4652 151.403 66.8384 151.498 66.1938 151.498C64.3971 151.498 62.8631 150.857 61.5917 149.573Z" fill="#565656"/>
<path d="M88.1428 138.48V151.319H87.2295V139.402H79.44V151.319H78.5178V138.48H88.1428Z" fill="#565656"/>
<path d="M103.412 146.645L100.565 139.769L97.727 146.645H103.412ZM103.78 147.559H97.3599L95.802 151.319H94.7903L100.109 138.48H101.031L106.34 151.319H105.337L103.78 147.559Z" fill="#565656"/>
<path d="M122.335 138.48V151.319H121.413V139.402H115.271V142.33C115.271 144.186 115.187 145.744 115.02 147.004C114.859 148.257 114.617 149.2 114.295 149.833C113.979 150.46 113.638 150.895 113.274 151.14C112.91 151.379 112.477 151.498 111.976 151.498C111.815 151.498 111.642 151.48 111.457 151.444C111.278 151.409 111.137 151.373 111.036 151.337L110.875 151.283V150.406C111.239 150.525 111.573 150.585 111.878 150.585C112.23 150.585 112.54 150.48 112.809 150.272C113.083 150.063 113.346 149.681 113.597 149.126C113.847 148.57 114.035 147.723 114.161 146.583C114.292 145.437 114.358 144.019 114.358 142.33V138.48H122.335Z" fill="#565656"/>
<path d="M135.125 151.319H130.541V138.48H131.463V143.431H135.125C136.313 143.431 137.297 143.81 138.079 144.568C138.861 145.326 139.252 146.263 139.252 147.38C139.252 148.49 138.861 149.424 138.079 150.182C137.297 150.94 136.313 151.319 135.125 151.319ZM131.463 150.406H135.125C136.08 150.406 136.853 150.122 137.444 149.555C138.041 148.982 138.339 148.257 138.339 147.38C138.339 146.496 138.041 145.771 137.444 145.204C136.853 144.637 136.08 144.353 135.125 144.353H131.463V150.406Z" fill="#565656"/>
<path d="M146.527 151.319V138.48H147.449V144.353H155.238V138.48H156.152V151.319H155.238V145.267H147.449V151.319H146.527Z" fill="#565656"/>
<path d="M174.537 151.319H173.624V140.226L165.091 151.319H164.357V138.48H165.279V149.573L173.803 138.48H174.537V151.319Z" fill="#565656"/>
<path d="M147.685 77.8879C155.761 78.3917 162.307 80.8098 167.324 85.1423C172.463 89.4748 175.032 94.966 175.032 101.616C175.032 107.157 173.258 112.145 169.71 116.578C166.161 120.911 161.267 124.336 155.026 126.855C148.908 129.273 142.118 130.482 134.654 130.482C125.009 130.482 116.236 128.315 107.52 124.231L104.186 105.394C104.186 105.394 110.856 118.273 118.319 122.926C125.163 127.194 131.105 128.064 138.324 128.064C147.012 128.064 153.375 125.797 157.412 121.263C161.573 116.729 163.653 111.087 163.653 104.336C163.653 96.175 160.777 90.0289 155.026 85.8979C149.398 81.6662 141.261 79.5503 130.616 79.5503C130.126 79.5503 129.882 79.2481 129.882 78.6435C129.882 78.039 130.126 77.7367 130.616 77.7367C140.404 77.7367 147.746 75.8224 152.64 71.9937C157.535 68.165 159.982 62.976 159.982 56.4269C159.982 49.8778 157.78 44.5882 153.375 40.5579C149.092 36.5277 143.463 34.5126 136.489 34.5126C122.017 34.5126 114.333 44.9056 107.123 56.1247L110.426 37.6864C110.426 37.6864 131.312 32.5479 139.059 32.5479C148.97 32.5479 156.617 34.563 162.001 38.5932C167.385 42.5227 170.077 47.4093 170.077 53.2531C170.077 58.7947 167.813 63.8325 163.286 68.3665C158.758 72.9005 153.558 76.0743 147.685 77.8879Z" fill="#D8D8D8"/>
<path d="M56.2959 25.8106L67.5142 0.0419922H63.8875L52.6999 25.8106H56.2959Z" fill="#D8D8D8"/>
<path fill-rule="evenodd" clip-rule="evenodd" d="M81.4087 127.586L77.6606 128.399H104.186L102.086 127.6C100.428 126.821 98.944 125.717 97.7237 124.355C96.5035 122.993 95.5716 121.4 94.9837 119.671C90.3865 109.391 82.9155 92.7125 76.0934 77.4828C68.2519 59.9771 61.268 44.3859 60.4919 42.6275C59.826 41.1188 59.1667 39.7008 58.5287 38.3288C57.7762 36.7103 57.0535 35.1559 56.385 33.5925V33.3466H41.3469V34.1763C43.1242 34.4686 44.7437 35.3677 45.9271 36.7193C47.1105 38.0709 47.7838 39.7905 47.8315 41.5826V42.0129C47.8469 42.3098 47.8469 42.6073 47.8315 42.9041C47.7648 43.7963 47.5124 44.6649 47.0904 45.4548L40.05 61.2507C35.5108 71.515 30.7863 82.1173 26.0618 92.5352L24.4253 96.1307C23.1525 98.9916 21.8486 101.837 20.5468 104.678C20.0166 105.835 19.4869 106.991 18.9597 108.147C18.3735 109.436 17.7873 110.818 17.2011 112.2L17.1996 112.203L16.6747 113.494C16.2115 114.631 15.7174 115.799 15.1307 116.905C14.1387 119.477 12.5459 121.777 10.4841 123.615C8.42231 125.454 5.95062 126.777 3.27321 127.477L0 128.306H25.1664V127.477C23.7809 127.498 22.4095 127.198 21.1607 126.601C19.9119 126.004 18.82 125.125 17.9716 124.035C17.5145 123.068 17.2931 122.008 17.3253 120.94C17.3575 119.872 17.6423 118.826 18.1568 117.889L25.5678 101.294C25.6579 101.132 25.727 100.971 25.7935 100.815C25.8409 100.705 25.8869 100.597 25.9383 100.495C25.9811 100.41 26.0423 100.295 26.1118 100.165C26.2431 99.9195 26.4039 99.6188 26.5251 99.3576C26.82 98.9491 27.1977 98.6068 27.6338 98.3527C28.07 98.0986 28.5549 97.9384 29.0571 97.8824H71.7318C72.2341 97.9384 72.7189 98.0986 73.1551 98.3527C73.5912 98.6068 73.969 98.9491 74.2639 99.3576L74.5109 99.88C74.9741 100.863 75.4064 101.816 75.8078 102.799C78.1237 107.932 80.5632 113.586 83.5276 120.562C84.2257 121.893 84.4953 123.406 84.2995 124.895C84.0465 125.537 83.6513 126.113 83.1434 126.581C82.6464 127.039 82.054 127.383 81.4087 127.586ZM71.3559 94.503C71.4687 94.4442 71.5658 94.3596 71.6392 94.2562L71.7935 93.9796C71.8477 93.8751 71.876 93.7591 71.876 93.6415C71.876 93.5239 71.8477 93.408 71.7935 93.3035C70.447 90.2812 68.9499 86.9267 67.3888 83.4291C63.9024 75.6175 60.0975 67.0923 56.9408 59.96L51.1973 47.2065C51.1399 47.0778 51.0437 46.9701 50.9219 46.8985C50.8001 46.8269 50.6589 46.7949 50.518 46.807C50.3743 46.8018 50.2324 46.8402 50.1111 46.917C49.9898 46.9938 49.8948 47.1054 49.8386 47.2372L28.9953 93.5493C28.9409 93.6592 28.9125 93.7802 28.9125 93.9028C28.9125 94.0253 28.9409 94.1462 28.9953 94.2562C29.0574 94.3633 29.1478 94.4516 29.2566 94.5112C29.3655 94.5708 29.4888 94.5994 29.6129 94.5942H70.9907C71.118 94.593 71.2432 94.5618 71.3559 94.503Z" fill="#D8D8D8"/>
</svg>
