<svg width="96" height="96" viewBox="0 0 96 96" fill="none" xmlns="http://www.w3.org/2000/svg">
<rect width="96" height="96" rx="48" fill="white"/>
<path d="M47.8828 14.6406C48.4453 14.6406 48.9922 14.7188 49.5078 14.8672C50.0312 15.0156 50.4609 15.1953 50.8047 15.4062C51.1484 15.625 51.4453 15.8359 51.6953 16.0391C51.9531 16.25 52.1406 16.4297 52.2578 16.5781L52.4297 16.7969L51.3125 17.9219C51.2812 17.8828 51.2422 17.8281 51.1797 17.75C51.1172 17.6719 50.9844 17.5391 50.7656 17.3359C50.5547 17.1406 50.3281 16.9688 50.0781 16.8281C49.8359 16.6875 49.5156 16.5547 49.125 16.4297C48.7344 16.3047 48.3125 16.25 47.875 16.25C46.7188 16.25 45.7344 16.6484 44.9219 17.4531C44.1172 18.2578 43.7109 19.2422 43.7109 20.4062C43.7109 21.5625 44.1172 22.5469 44.9219 23.3594C45.7266 24.1641 46.7109 24.5703 47.875 24.5703C48.3125 24.5703 48.7344 24.5078 49.1328 24.3828C49.5312 24.2578 49.8594 24.1172 50.125 23.9453C50.3906 23.7734 50.6172 23.6016 50.8203 23.4297C51.0234 23.2578 51.1719 23.1172 51.2656 23L51.3906 22.8047L52.5156 23.9297C52.4766 23.9922 52.4141 24.0703 52.3281 24.1719C52.2422 24.2734 52.0547 24.4531 51.7578 24.7109C51.4609 24.9609 51.1484 25.1875 50.8203 25.3906C50.4922 25.5859 50.0547 25.7656 49.5234 25.9219C48.9922 26.0781 48.4453 26.1562 47.8828 26.1562C46.2031 26.1562 44.7969 25.6016 43.6641 24.4844C42.5234 23.375 41.9609 22.0078 41.9609 20.3984C41.9609 18.7891 42.5234 17.4297 43.6641 16.3125C44.7969 15.2031 46.2031 14.6406 47.8828 14.6406Z" fill="#131411"/>
<path opacity="0.1" d="M55.3203 76.3984C55.3203 77.9922 54.7656 79.3438 53.6641 80.4688C52.5547 81.5938 51.2422 82.1562 49.7188 82.1562C48.2969 82.1562 47.0781 81.6797 46.0469 80.7109C45.0156 79.75 44.4062 78.5547 44.2031 77.1172H42.3594V82H40.6016V70.7969H42.3594V75.5234H44.2031C44.4062 74.1719 45.0234 73.0234 46.0547 72.0703C47.0859 71.1172 48.3125 70.6406 49.7188 70.6406C51.2422 70.6406 52.5547 71.2031 53.6641 72.3281C54.7656 73.4531 55.3203 74.8125 55.3203 76.3984ZM53.5625 76.4062C53.5625 75.2188 53.1797 74.2344 52.4297 73.4375C51.6797 72.6406 50.7734 72.2422 49.7188 72.2422C48.6562 72.2422 47.7578 72.6406 47.0078 73.4375C46.2578 74.2344 45.8828 75.2188 45.8828 76.4062C45.8828 77.5938 46.2578 78.5781 47.0078 79.375C47.7578 80.1719 48.6562 80.5625 49.7188 80.5625C50.7734 80.5625 51.6797 80.1719 52.4297 79.375C53.1797 78.5781 53.5625 77.5938 53.5625 76.4062Z" fill="#131411"/>
<path opacity="0.1" d="M22.0391 48.0781C22.0859 48.1016 22.1641 48.1328 22.2578 48.1719C22.3516 48.2109 22.5234 48.3047 22.7656 48.4453C23 48.5859 23.2109 48.75 23.3984 48.9375C23.5781 49.125 23.7422 49.3906 23.8906 49.7266C24.0391 50.0625 24.1172 50.4219 24.1172 50.7969C24.1172 51.7266 23.7188 52.5156 22.9375 53.1719C22.1562 53.8281 21.1094 54.1562 19.7969 54.1562C19.2656 54.1562 18.75 54.0938 18.2578 53.9688C17.7578 53.8438 17.3516 53.6875 17.0312 53.5156C16.7109 53.3438 16.4297 53.1641 16.1797 52.9766C15.9297 52.7969 15.75 52.6406 15.6328 52.5156L15.4688 52.3203L16.5938 51.2031C16.625 51.2344 16.6797 51.2812 16.7422 51.3438C16.8047 51.4062 16.9453 51.5156 17.1484 51.6719C17.3516 51.8281 17.5703 51.9688 17.7969 52.0938C18.0312 52.2188 18.3281 52.3281 18.6875 52.4219C19.0547 52.5156 19.4219 52.5625 19.7891 52.5625C20.5938 52.5625 21.2188 52.3828 21.6719 52.0234C22.125 51.6641 22.3516 51.2344 22.3516 50.7188C22.3516 50.2109 22.125 49.7812 21.6719 49.4219C21.2188 49.0625 20.5938 48.8828 19.7891 48.8828H18.4297V47.2812H19.7891C20.4453 47.2812 20.9531 47.1328 21.3203 46.8359C21.6953 46.5391 21.875 46.1719 21.875 45.7422C21.875 45.3281 21.6953 44.9766 21.3203 44.6797C20.9531 44.3906 20.4453 44.2422 19.7891 44.2422C19.3203 44.2422 18.8594 44.3438 18.4062 44.5469C17.9531 44.75 17.6172 44.9453 17.3906 45.1328L17.0703 45.4375L15.9531 44.3203C15.9844 44.2812 16.0391 44.2266 16.1172 44.1484C16.1953 44.0703 16.3516 43.9375 16.5938 43.7344C16.8438 43.5391 17.1016 43.3672 17.3672 43.2266C17.6406 43.0859 18 42.9531 18.4375 42.8281C18.8828 42.7031 19.3359 42.6406 19.7891 42.6406C20.9844 42.6406 21.9219 42.9297 22.6094 43.4922C23.2969 44.0547 23.6406 44.7578 23.6406 45.6016C23.6406 45.9453 23.5781 46.2656 23.4688 46.5625C23.3594 46.8594 23.2266 47.1016 23.0703 47.2734C22.9141 47.4531 22.7656 47.6094 22.6094 47.7344C22.4531 47.8594 22.3125 47.9531 22.2031 48L22.0391 48.0781Z" fill="#131411"/>
<path opacity="0.1" d="M76.3984 54L71.6016 54.0078V42.8047H76.1562C77.0625 42.8047 77.8359 43.1016 78.4766 43.7031C79.1172 44.2969 79.4375 44.9844 79.4375 45.7656C79.4375 46.2109 79.3438 46.625 79.1562 47C78.9688 47.375 78.7891 47.6328 78.6094 47.7812L78.3203 48.0078C78.3594 48.0234 78.4141 48.0625 78.4922 48.1094C78.5703 48.1562 78.7031 48.2656 78.9062 48.4297C79.1016 48.5938 79.2734 48.7734 79.4141 48.9766C79.5547 49.1719 79.6875 49.4297 79.8125 49.7422C79.9375 50.0547 80 50.3828 80 50.7188C80 51.6172 79.6562 52.3906 78.9688 53.0312C78.2812 53.6797 77.4219 54 76.3984 54ZM73.3594 52.4844H76.3984C76.9141 52.4844 77.3516 52.3047 77.7109 51.9531C78.0625 51.6016 78.2422 51.1641 78.2422 50.6484C78.2422 50.125 78.0625 49.6875 77.7109 49.3359C77.3594 48.9766 76.9219 48.8047 76.3984 48.8047H73.3594V52.4844ZM76.1562 44.3281H73.3594V47.3672H76.1562C76.5938 47.3672 76.9531 47.2188 77.2422 46.9297C77.5312 46.6406 77.6797 46.2812 77.6797 45.8438C77.6797 45.4062 77.5312 45.0469 77.2422 44.7578C76.9531 44.4688 76.5938 44.3281 76.1562 44.3281Z" fill="#131411"/>
<g opacity="0.1" clip-path="url(#clip0_320_2019)">
<path d="M46 47H33.83L39.42 41.41L38 40L30 48L38 56L39.41 54.59L33.83 49H46V47Z" fill="#131411"/>
</g>
<g opacity="0.1" clip-path="url(#clip1_320_2019)">
<path d="M56 58L54.59 56.59L49 62.17V50H47V62.17L41.42 56.58L40 58L48 66L56 58Z" fill="#131411"/>
</g>
<g opacity="0.1" clip-path="url(#clip2_320_2019)">
<path d="M58 40L56.59 41.41L62.17 47H50V49H62.17L56.59 54.59L58 56L66 48L58 40Z" fill="#131411"/>
</g>
<g clip-path="url(#clip3_320_2019)">
<path d="M40 38L41.41 39.41L47 33.83V46H49V33.83L54.58 39.42L56 38L48 30L40 38Z" fill="#323232"/>
</g>
<defs>
<clipPath id="clip0_320_2019">
<rect width="24" height="24" fill="white" transform="translate(26 36)"/>
</clipPath>
<clipPath id="clip1_320_2019">
<rect width="24" height="24" fill="white" transform="translate(36 46)"/>
</clipPath>
<clipPath id="clip2_320_2019">
<rect width="24" height="24" fill="white" transform="translate(46 36)"/>
</clipPath>
<clipPath id="clip3_320_2019">
<rect width="24" height="24" fill="white" transform="translate(36 26)"/>
</clipPath>
</defs>
</svg>
