<svg width="152" height="41" viewBox="0 0 152 41" fill="none" xmlns="http://www.w3.org/2000/svg">
<path d="M13.7298 2.48486L11.8501 6.83014H11.2482L13.1233 2.48486H13.7298Z" fill="#141414"/>
<path fill-rule="evenodd" clip-rule="evenodd" d="M41.9667 16.2574C41.1287 15.3236 40.0638 14.7464 38.5082 14.3898C38.4249 14.371 38.2814 14.3382 38.1564 14.3053C38.2814 14.2678 38.4342 14.2209 38.5823 14.1693C39.0129 14.0191 39.7259 13.7704 40.2259 13.334C40.874 12.846 41.2259 12.0013 41.1657 11.0816C41.1009 10.0961 40.5963 9.2421 39.8138 8.79631C39.2675 8.4866 38.4527 8.1112 37.6795 8.10182C37.4783 8.10182 37.2575 8.0982 37.0215 8.09434C36.8774 8.09197 36.7275 8.08952 36.573 8.08774H32.721C32.1192 8.08774 31.559 8.08774 31.0867 8.09713H29.3459L29.6284 8.23321C30.1839 8.4913 30.4663 9.01217 30.4663 9.78174C30.4895 13.9393 30.4941 18.4676 30.4941 21.9542C30.4941 22.7237 30.4941 23.5918 29.5728 24.0893L29.3321 24.2206H29.6052C29.6052 24.2206 30.7997 24.23 32.2673 24.23C33.8507 24.23 35.7813 24.2206 36.9804 24.1784C38.0221 24.1409 39.0962 23.9485 40.1009 23.62C41.5037 23.1601 42.5732 21.9917 42.9621 20.4901C43.3602 18.965 42.9852 17.3789 41.9667 16.2527V16.2574ZM32.1932 13.5968C32.2025 13.0947 32.2025 12.5785 32.1932 12.0858V10.8845C32.1932 10.7343 32.1937 10.5777 32.1942 10.4184V10.41C32.1953 10.0792 32.1964 9.73688 32.1932 9.41572V9.03094C32.1932 8.75877 32.2442 8.62738 32.5312 8.62738H36.6147C38.0129 8.62738 39.1981 9.69258 39.3184 11.0534V11.0816C39.4157 12.2969 39.0129 13.2448 38.2212 13.6765C37.7443 13.9393 36.823 14.0332 36.323 14.0332H32.5266C32.2442 14.0332 32.1932 13.9065 32.1886 13.6578V13.5968H32.1932ZM41.2352 19.8848C41.0778 21.4333 40.712 22.4609 39.2814 23.1695C39.2708 23.176 39.2534 23.1854 39.2371 23.1941C39.218 23.2045 39.2006 23.2139 39.1981 23.2164C38.5684 23.4698 36.7999 23.681 36.3276 23.681H32.4803C32.2534 23.6669 32.1886 23.5684 32.1932 23.2493V22.8973C32.2025 22.0245 32.2025 21.1377 32.1932 20.2789V18.2799C32.1932 17.9605 32.1937 17.6374 32.1943 17.3131V17.3118C32.1953 16.6599 32.1963 16.0032 32.1932 15.3612V14.9623C32.1932 14.7981 32.2164 14.7042 32.272 14.6479C32.3229 14.5963 32.4062 14.5728 32.5312 14.5728H36.2767C37.0915 14.5728 38.2258 14.8356 39.1703 15.2485C40.5037 15.8257 41.2768 17.2851 41.2768 19.1433C41.2768 19.3826 41.2629 19.6314 41.2352 19.8848Z" fill="#141414"/>
<path fill-rule="evenodd" clip-rule="evenodd" d="M16.0724 24.0845L15.4335 24.2253H19.841L19.4892 24.0892C18.841 23.8358 18.5401 23.2633 18.3086 22.7425C17.5358 20.9868 16.2776 18.1232 15.1342 15.5209L15.1278 15.5064C13.8351 12.5644 12.6907 9.95995 12.5631 9.6738C12.3223 9.14354 12.0862 8.62267 11.8779 8.14403L11.8593 8.1018H9.35463L9.34537 8.24258C9.95187 8.33643 10.4287 8.89015 10.4287 9.49548V9.57056C10.4287 9.58587 10.4292 9.60218 10.4297 9.61883C10.4308 9.65321 10.4319 9.68913 10.4287 9.72072C10.4102 9.90373 10.3778 9.99758 10.3037 10.1571C10.1094 10.6026 9.91398 11.0492 9.71852 11.4958L9.71736 11.4985C9.52199 11.9449 9.32662 12.3913 9.13241 12.8366C8.37312 14.5775 7.58607 16.3747 6.80364 18.1391L6.53048 18.7538C6.22955 19.4342 5.92398 20.1147 5.61842 20.7904C5.5455 20.9558 5.47257 21.1291 5.39965 21.3025C5.37535 21.3603 5.35105 21.418 5.32674 21.4755L5.23878 21.696C5.16007 21.8884 5.07673 22.0855 4.97951 22.2732L4.97025 22.292C4.62765 23.0193 4.123 23.7983 2.99334 24.0845L2.45166 24.2253H6.64159L6.65085 24.0845C6.0351 24.0142 5.63231 23.8171 5.45175 23.5027C5.29896 23.2352 5.30822 22.8833 5.48415 22.4562L6.61844 19.88C6.65085 19.8003 6.68326 19.7252 6.7203 19.6454C6.73649 19.6126 6.75041 19.5798 6.76365 19.5486C6.76935 19.5352 6.77492 19.522 6.78049 19.5093C6.80818 19.4602 6.8307 19.4137 6.85385 19.3659L6.8667 19.3394L6.87771 19.3169L6.88697 19.2935C6.9379 19.1762 7.16013 19.0588 7.30828 19.0448C7.38324 19.0358 7.46659 19.0312 7.54635 19.0267L7.55829 19.026H14.2159C14.3038 19.026 14.3872 19.0354 14.4659 19.0448C14.614 19.0588 14.8363 19.1762 14.8872 19.2935L14.9289 19.3826C15.0029 19.5469 15.077 19.7111 15.1418 19.88C15.5307 20.7482 15.9382 21.7054 16.4289 22.8926C16.5215 23.1273 16.6234 23.4276 16.5585 23.6247C16.4984 23.8077 16.2854 24.0376 16.0724 24.0845ZM14.4474 18.43C14.4242 18.4629 14.3826 18.4864 14.3409 18.4864H7.42865C7.38698 18.4864 7.34995 18.4676 7.3268 18.43C7.30365 18.3925 7.29902 18.3503 7.31754 18.308L10.7852 10.4528C10.8084 10.4058 10.85 10.3777 10.901 10.3777C10.9519 10.3777 10.9936 10.4011 11.0121 10.4481L11.9797 12.6582C12.7436 14.4086 13.7298 16.6563 14.4566 18.3127C14.4705 18.3503 14.4705 18.3925 14.4474 18.43Z" fill="#141414"/>
<path d="M138.062 9.84275C138.076 10.0868 138.09 18.5755 138.076 22.17L138.076 22.1869C138.071 22.7787 138.066 23.4459 137.52 23.8922C137.432 23.9626 137.331 24.0329 137.21 24.094L136.951 24.2253H140.969L140.664 24.0893C140.53 24.0329 140.409 23.9626 140.307 23.8875C139.831 23.5168 139.766 22.9912 139.743 22.4844C139.738 22.2967 139.729 21.8415 139.724 21.5037L139.724 20.9769C139.723 19.6283 139.721 13.4501 139.733 10.1572C139.733 9.5612 139.738 8.88079 140.289 8.435C140.377 8.35992 140.483 8.28953 140.594 8.23322L140.858 8.09713H136.84L137.145 8.23322C137.28 8.29422 137.4 8.35992 137.497 8.43969C137.979 8.8104 138.043 9.35473 138.062 9.84275Z" fill="#141414"/>
<path d="M149.548 16.8252C149.548 17.2851 149.183 17.6605 148.729 17.6605C148.275 17.6605 147.909 17.2851 147.909 16.8252C147.909 16.3653 148.275 15.9946 148.729 15.9946C149.183 15.9946 149.548 16.37 149.548 16.8252Z" fill="#141414"/>
<path d="M149.548 23.3947C149.548 23.8535 149.182 24.2253 148.729 24.2253C148.276 24.2253 147.909 23.8535 147.909 23.3947C147.909 22.936 148.276 22.5642 148.729 22.5642C149.182 22.5642 149.548 22.936 149.548 23.3947Z" fill="#141414"/>
<path fill-rule="evenodd" clip-rule="evenodd" d="M81.1576 24.2019C80.7456 24.1831 80.3428 24.1315 79.94 24.0517C78.9538 23.8546 78.0371 23.4792 77.1899 22.9208C76.3426 22.3624 75.6297 21.6679 75.0834 20.8045C74.4028 19.7346 74.0509 18.5521 73.912 17.2992C73.8956 17.141 73.884 16.9829 73.8725 16.8258C73.8646 16.7171 73.8567 16.6089 73.8472 16.5014C73.8472 16.4592 73.8394 16.417 73.8316 16.3747C73.829 16.3607 73.8264 16.3466 73.8241 16.3325V15.76C73.8265 15.74 73.8293 15.7203 73.8321 15.7008C73.8397 15.6471 73.8472 15.5945 73.8472 15.5395C73.8657 15.1218 73.9166 14.7089 73.9954 14.296C74.2037 13.2167 74.6204 12.2219 75.2315 11.3162C75.7639 10.5279 76.4167 9.8709 77.2084 9.35942C78.2964 8.65554 79.5048 8.26137 80.7826 8.13936C80.9724 8.12059 81.653 8.09244 81.8058 8.09244C81.9976 8.09244 82.337 8.11432 82.567 8.12915L82.653 8.13467C83.1299 8.18159 83.3799 8.21913 83.8336 8.32237C85.0049 8.58515 86.0605 9.09194 86.9911 9.86152C87.8985 10.617 88.593 11.5321 89.056 12.6254C89.4495 13.5592 89.6301 14.5447 89.6949 15.5536C89.7053 15.7149 89.7079 15.8789 89.7105 16.0415L89.7105 16.0445C89.7114 16.0984 89.7122 16.1523 89.7134 16.2058C89.7227 16.7314 89.6856 17.2569 89.6023 17.7731C89.4449 18.7304 89.13 19.6267 88.6485 20.4666C88.2411 21.1799 87.7411 21.8181 87.13 22.3577C86.38 23.0194 85.5235 23.4839 84.5744 23.7842C84.116 23.9297 83.6715 24.0611 83.1947 24.1221L83.1404 24.1294C82.8536 24.1685 82.3821 24.2327 81.1483 24.2019H81.1576ZM87.8939 16.295C87.8846 15.8867 87.8661 15.4785 87.8291 15.0702C87.7782 14.5634 87.7041 14.0613 87.5837 13.5686C87.3893 12.7521 87.0929 11.9778 86.6624 11.2552C86.292 10.6311 85.829 10.0915 85.2457 9.66913C84.3845 9.04502 83.4169 8.71185 82.366 8.64146C81.9493 8.61331 81.528 8.618 81.1067 8.65085C80.6252 8.68839 80.1529 8.79162 79.6946 8.95586C78.8381 9.26088 78.0927 9.7489 77.4908 10.4434C77.1019 10.8892 76.7964 11.3866 76.5371 11.9215C76.1482 12.7287 75.9167 13.5874 75.7871 14.479C75.7223 14.9294 75.6852 15.3846 75.6667 15.8398C75.6389 16.6234 75.6852 17.3977 75.8241 18.172C75.9862 19.0589 76.2686 19.9082 76.6852 20.7059C76.9492 21.2174 77.2686 21.6867 77.6714 22.0949C78.676 23.1085 79.9076 23.6012 81.3104 23.6763C81.4295 23.6817 81.5501 23.6809 81.6704 23.6801C81.7607 23.6796 81.8508 23.679 81.94 23.681C82.366 23.681 82.7919 23.6388 83.2086 23.5496C83.9864 23.376 84.6947 23.0569 85.329 22.5689C85.8383 22.1794 86.2503 21.6961 86.5976 21.1564C87.2967 20.0584 87.6763 18.8477 87.8245 17.5573C87.8708 17.1396 87.8893 16.7267 87.88 16.3044L87.8939 16.295Z" fill="#141414"/>
<path fill-rule="evenodd" clip-rule="evenodd" d="M108.307 8.14875C109.492 8.30829 110.543 8.82447 111.339 9.63158H111.344C111.969 10.2651 112.321 11.2646 112.321 12.2969C112.321 12.6066 112.288 12.9164 112.223 13.2214C111.936 14.5728 111.08 15.577 109.811 16.0603C109.033 16.356 108.098 16.5484 107.112 16.6141H107.075C107.061 16.6188 107.047 16.6188 107.033 16.6188C106.978 16.6281 106.908 16.6281 106.848 16.6281C105.591 16.6997 104.304 16.6903 103.052 16.6811L102.867 16.6798H102.45C102.195 16.6798 102.135 16.783 102.117 16.9707V16.9848C102.121 17.354 102.125 17.7407 102.129 18.1384L102.129 18.1426L102.129 18.1444L102.129 18.1459C102.132 18.4888 102.135 18.8399 102.14 19.195C102.149 20.3587 102.163 21.56 102.181 22.6064C102.195 23.1367 102.311 23.7279 103.089 24.0893L103.38 24.2253H99.3572L99.5979 24.0939C100.468 23.6106 100.478 22.8645 100.478 22.0762V10.8939C100.477 10.8423 100.476 10.7904 100.476 10.7384C100.472 10.3836 100.469 10.0205 100.441 9.66443C100.38 8.95117 100.098 8.46784 99.5979 8.23321L99.3109 8.09713H101.265C101.862 8.09244 102.529 8.09244 103.265 8.09244H107.089C107.445 8.09244 107.617 8.09244 107.668 8.09713C107.867 8.10182 108.075 8.12059 108.307 8.14875ZM102.107 9.01686V9.42042C102.112 9.90375 102.112 10.3918 102.112 10.8751V12.9351C102.112 13.0862 102.112 13.2376 102.112 13.3891C102.113 13.8442 102.114 14.3006 102.107 14.7511C102.11 14.8323 102.109 14.9135 102.108 14.9947C102.108 15.0354 102.107 15.0765 102.107 15.1171V15.699C102.112 15.9571 102.167 16.0885 102.45 16.0885H106.038C107.658 16.0885 108.932 15.7647 109.445 15.2204C109.834 14.8121 110.121 14.2866 110.297 13.6578C110.432 13.1651 110.51 12.6348 110.51 12.0999C110.51 10.8986 110.103 9.70197 108.95 9.01686C108.533 8.76347 108.01 8.63208 107.445 8.63208H102.445C102.163 8.63208 102.112 8.75408 102.107 9.01686Z" fill="#141414"/>
<path fill-rule="evenodd" clip-rule="evenodd" d="M133.219 19.0964C133.076 18.4207 132.789 17.8294 132.381 17.3508C131.974 16.8675 131.441 16.4967 130.807 16.2574C130.029 15.9618 129.094 15.7694 128.103 15.7037C128.094 15.7037 128.085 15.7037 128.076 15.699H128.034C128.004 15.699 127.973 15.6967 127.941 15.6943C127.91 15.692 127.879 15.6896 127.849 15.6896C126.529 15.6146 125.177 15.6286 123.872 15.6427H123.474C123.191 15.6427 123.131 15.5395 123.112 15.3518V15.333C123.122 14.6432 123.131 13.8924 123.136 13.1228C123.14 12.7551 123.144 12.3836 123.148 12.0145C123.156 11.2154 123.165 10.4271 123.177 9.71136C123.191 9.1811 123.307 8.58984 124.089 8.22852L124.376 8.09244H120.358L120.594 8.22383C121.464 8.70716 121.469 9.45327 121.474 10.2416V10.2979C121.483 12.921 121.483 15.7694 121.478 18.5239V21.4239C121.478 21.8275 121.474 22.2451 121.441 22.6533C121.386 23.3666 121.099 23.8499 120.599 24.0846L120.316 24.2206H122.205C122.807 24.2253 123.529 24.2253 124.265 24.2253H128.089C128.446 24.2253 128.622 24.2253 128.659 24.2206C128.867 24.2206 129.076 24.1972 129.307 24.169C130.497 24.0095 131.543 23.4933 132.34 22.6862C133.136 21.8791 133.502 20.4244 133.219 19.0964ZM128.446 23.6857H123.446C123.163 23.6857 123.112 23.559 123.108 23.3009V19.3827C123.112 18.7773 123.112 18.1673 123.108 17.5666V16.6188C123.108 16.3607 123.168 16.2293 123.45 16.2293H127.039C128.659 16.2293 129.937 16.5531 130.451 17.0974C130.835 17.5056 131.122 18.0312 131.298 18.66C131.432 19.1527 131.516 19.6877 131.516 20.2179C131.516 21.4192 131.103 22.6158 129.955 23.3009C129.534 23.5543 129.011 23.6857 128.446 23.6857Z" fill="#141414"/>
<path d="M65.2312 8.53822V8.50537C65.2081 8.12528 64.9118 8.1112 64.6756 8.1112H64.6062C63.9424 8.11433 63.2766 8.11328 62.6115 8.11224C62.2791 8.11172 61.947 8.1112 61.6154 8.1112H55.5411C55.2095 8.1112 54.8774 8.11172 54.5451 8.11224C53.8799 8.11328 53.2141 8.11433 52.5503 8.1112L52.5054 8.1112C52.2744 8.11114 51.9528 8.11107 51.9253 8.51006V8.53822C51.9207 8.56637 51.9207 8.59453 51.9253 8.61799C51.9392 9.76766 51.9392 10.5795 51.9392 10.5795L51.9484 10.7578L52.0734 10.6123L52.0819 10.6022C52.3557 10.2738 52.5724 10.0138 52.9253 9.76297C54.4068 8.7353 55.2402 8.64145 57.4254 8.62268C57.7495 8.62268 57.7819 9.10601 57.7819 9.31249V9.67381C57.7773 11.5227 57.7773 13.3715 57.7773 15.2251C57.7773 17.5338 57.7773 19.8472 57.7681 22.1606C57.7634 22.8972 57.7586 23.6576 56.8838 24.0892L56.6152 24.2253H60.5413L60.2727 24.0892C59.3979 23.6576 59.3931 22.8976 59.3885 22.161C59.3792 19.8476 59.3792 17.5338 59.3792 15.2251C59.3792 13.3715 59.3792 11.5227 59.3746 9.67381V9.31249C59.3746 9.10601 59.407 8.62268 59.7311 8.62268C61.9163 8.64145 62.7497 8.7353 64.2312 9.76297C64.5802 10.0111 64.7961 10.2681 65.0787 10.6047L65.097 10.6264L65.2173 10.7719V10.5795C65.2173 10.5795 65.222 9.76766 65.2312 8.62738C65.2343 8.60528 65.2333 8.58531 65.2322 8.56604C65.2317 8.55665 65.2312 8.54744 65.2312 8.53822Z" fill="#141414"/>
<path d="M89.4839 38.9295V33.0061H90.109V35.6291H93.3483V33.0061H93.9734V38.9295H93.3483V36.2239H90.109V38.9295H89.4839Z" fill="#141414"/>
<path d="M98.877 36.6866L97.7566 33.8942L96.6322 36.6866H98.877ZM99.1287 37.2814H96.3846L95.7189 38.9295H95.0532L97.4644 33.0061H98.0448L100.456 38.9295H99.7944L99.1287 37.2814Z" fill="#141414"/>
<path d="M103.748 33.601V35.3771H105.368C105.882 35.3771 106.315 35.5506 106.667 35.8976C107.021 36.2446 107.198 36.6632 107.198 37.1533C107.198 37.6435 107.021 38.0621 106.667 38.409C106.315 38.756 105.882 38.9295 105.368 38.9295H103.123V33.0061H106.74V33.601H103.748ZM103.748 38.3388H105.368C105.717 38.3388 106.005 38.2259 106.232 38.0001C106.46 37.7743 106.573 37.492 106.573 37.1533C106.573 36.8146 106.46 36.5324 106.232 36.3065C106.005 36.0807 105.717 35.9678 105.368 35.9678H103.748V38.3388Z" fill="#141414"/>
<path d="M109.504 34.2206C109.047 34.6915 108.818 35.2739 108.818 35.9678C108.818 36.6618 109.047 37.2442 109.504 37.7151C109.961 38.186 110.523 38.4214 111.189 38.4214C111.854 38.4214 112.416 38.186 112.873 37.7151C113.331 37.2442 113.559 36.6618 113.559 35.9678C113.559 35.2739 113.331 34.6915 112.873 34.2206C112.416 33.7497 111.854 33.5142 111.189 33.5142C110.523 33.5142 109.961 33.7497 109.504 34.2206ZM113.308 33.8116C113.889 34.4037 114.18 35.1224 114.18 35.9678C114.18 36.8132 113.889 37.532 113.308 38.124C112.726 38.7161 112.019 39.0121 111.189 39.0121C110.358 39.0121 109.652 38.7161 109.07 38.124C108.488 37.532 108.197 36.8132 108.197 35.9678C108.197 35.1224 108.488 34.4037 109.07 33.8116C109.652 33.2196 110.358 32.9235 111.189 32.9235C112.019 32.9235 112.726 33.2196 113.308 33.8116Z" fill="#141414"/>
<path d="M119.746 33.0061V38.9295H119.125V33.601H116.628V34.7823C116.628 35.6553 116.592 36.3795 116.518 36.9551C116.448 37.5278 116.337 37.9616 116.186 38.2562C116.037 38.5481 115.87 38.7478 115.686 38.8552C115.505 38.9598 115.279 39.0121 115.008 39.0121C114.919 39.0121 114.83 39.0052 114.741 38.9915C114.654 38.9777 114.588 38.9626 114.542 38.946L114.469 38.9295V38.2934C114.634 38.3485 114.785 38.3774 114.923 38.3801C115.094 38.3801 115.238 38.3374 115.358 38.2521C115.479 38.1667 115.593 38.0029 115.699 37.7605C115.804 37.5182 115.881 37.1506 115.93 36.6576C115.981 36.1647 116.007 35.5396 116.007 34.7823V33.0061H119.746Z" fill="#141414"/>
<path d="M123.699 38.9295H121.495V33.0061H122.12V35.2078H123.699C124.238 35.2078 124.684 35.3854 125.039 35.7406C125.393 36.0959 125.571 36.5392 125.571 37.0707C125.571 37.5994 125.393 38.0414 125.039 38.3967C124.684 38.7519 124.238 38.9295 123.699 38.9295ZM122.12 38.3388H123.699C124.075 38.3388 124.377 38.2232 124.604 37.9919C124.832 37.7605 124.945 37.4535 124.945 37.0707C124.945 36.6852 124.832 36.3768 124.604 36.1454C124.377 35.9141 124.075 35.7985 123.699 35.7985H122.12V38.3388Z" fill="#141414"/>
<path d="M126.943 38.9295V33.0061H127.568V38.3388H129.979V33.0061H130.6V38.3388H133.011V33.0061H133.636V38.9295H126.943Z" fill="#141414"/>
<path d="M136.311 34.2206C135.854 34.6915 135.625 35.2739 135.625 35.9678C135.625 36.6618 135.854 37.2442 136.311 37.7151C136.769 38.186 137.33 38.4214 137.996 38.4214C138.662 38.4214 139.223 38.186 139.681 37.7151C140.138 37.2442 140.367 36.6618 140.367 35.9678C140.367 35.2739 140.138 34.6915 139.681 34.2206C139.223 33.7497 138.662 33.5142 137.996 33.5142C137.33 33.5142 136.769 33.7497 136.311 34.2206ZM140.115 33.8116C140.697 34.4037 140.988 35.1224 140.988 35.9678C140.988 36.8132 140.697 37.532 140.115 38.124C139.533 38.7161 138.827 39.0121 137.996 39.0121C137.165 39.0121 136.459 38.7161 135.877 38.124C135.295 37.532 135.004 36.8132 135.004 35.9678C135.004 35.1224 135.295 34.4037 135.877 33.8116C136.459 33.2196 137.165 32.9235 137.996 32.9235C138.827 32.9235 139.533 33.2196 140.115 33.8116Z" fill="#141414"/>
<path d="M145.538 31.8867C145.332 32.0988 145.063 32.2048 144.73 32.2048C144.397 32.2048 144.127 32.0988 143.918 31.8867C143.71 31.6747 143.606 31.3993 143.606 31.0606H144.065C144.065 31.2534 144.128 31.4145 144.255 31.5439C144.382 31.6733 144.539 31.738 144.726 31.738C144.916 31.738 145.074 31.6733 145.201 31.5439C145.331 31.4145 145.396 31.2534 145.396 31.0606H145.851C145.851 31.3993 145.746 31.6747 145.538 31.8867ZM147.097 38.9295H146.476V34.1503L142.9 38.9295H142.36V33.0061H142.985V37.7894L146.557 33.0061H147.097V38.9295Z" fill="#141414"/>
</svg>
