<svg width="475" height="354" viewBox="0 0 475 354" fill="none" xmlns="http://www.w3.org/2000/svg">
<path d="M349.675 254.933C371.267 233.203 387.246 213.463 397.56 195.695C407.891 177.927 413.048 160.36 413.048 142.977C413.048 124.089 407.789 109.062 397.272 97.9137C386.755 86.7649 371.758 81.1822 352.262 81.1822C314.405 81.1822 288.214 104.8 273.689 152.053C273.689 152.822 272.912 153.19 271.39 153.19C270.24 153.19 269.09 152.905 267.941 152.337C266.791 151.769 266.402 151.301 266.791 150.916L289.161 64.7516C289.533 63.9994 290.784 63.8155 292.88 64.1832C294.977 64.5677 295.839 65.136 295.467 65.8882C295.079 67.7769 294.893 70.0501 294.893 72.6911C294.893 79.494 298.139 82.9038 304.649 82.9038C308.47 82.9038 314.405 81.5834 322.419 78.9424C331.212 75.917 339.142 73.6605 346.226 72.1395C353.294 70.6352 361.427 69.8663 370.608 69.8663C395.074 69.8663 414.671 76.3015 429.398 89.1384C444.108 101.992 451.481 118.807 451.481 139.6C451.481 155.847 446.323 171.726 435.992 187.221C425.661 202.716 411.239 218.778 392.69 235.41C374.142 252.041 344.603 276.996 304.091 310.242C302.552 311.378 302.079 312.331 302.653 313.083C303.228 313.852 304.463 314.22 306.373 314.22C357.217 314.22 392.403 313.568 411.898 312.231C431.393 310.91 444.971 307.885 452.613 303.155C460.256 298.425 465.599 289.833 468.676 277.364C469.048 276.612 470.198 276.328 472.126 276.511C474.036 276.712 475 277.18 475 277.932L467.543 335.765C467.543 337.286 467.053 338.69 466.106 340.011C465.142 341.331 463.908 342 462.386 342H263.95C262.04 342 260.602 341.248 259.656 339.727C258.692 338.222 258.793 336.701 259.943 335.197C298.173 303.456 328.084 276.712 349.692 254.983L349.675 254.933Z" fill="white"/>
<path d="M215.704 200.114C228.557 214.177 235 231.466 235 251.981C235 270.21 229.695 287.13 219.101 302.705C208.508 318.28 194.031 330.73 175.673 340.038C157.314 349.346 137.549 354 116.362 354C95.1748 354 74.54 347.918 56.7668 335.77C38.977 323.623 25.0698 306.519 15.0452 284.475C5.00392 262.414 0 237.531 0 209.792C0 176.373 7.56445 144.736 22.7101 114.913C37.839 85.0903 60.1809 59.8375 89.6856 39.1211C119.207 18.4215 154.402 5.40026 195.27 0.0909554C196.776 -0.27868 197.73 0.477392 198.115 2.37597C198.483 4.27456 198.115 5.41706 196.977 5.8035C162.535 12.6418 133.583 25.747 110.136 45.1193C86.6732 64.4915 69.0674 87.5769 57.3526 114.359C45.621 141.14 39.7636 169.166 39.7636 198.417C39.7636 223.485 43.6462 247.142 51.3947 269.37C59.1433 291.599 70.1218 309.459 84.3135 322.934C98.5052 336.426 114.688 343.163 132.846 343.163C152.143 343.163 167.271 336.241 178.25 322.363C189.228 308.501 194.718 289.986 194.718 266.8C194.718 243.613 189.797 227.299 179.957 214.362C170.116 201.458 155.925 194.99 137.382 194.99C127.173 194.99 117.701 196.989 108.998 200.971C100.296 204.97 90.8403 211.707 80.6149 221.2C80.23 221.587 79.661 221.771 78.9079 221.771C77.7699 221.771 76.6319 221.2 75.4939 220.058C74.3559 218.915 73.9709 217.974 74.3559 217.201C84.1963 204.667 96.2961 195.174 110.689 188.706C125.064 182.254 140.779 179.011 157.799 179.011C183.522 179.011 202.834 186.051 215.704 200.097V200.114Z" fill="white"/>
</svg>
