<svg width="440" height="110" viewBox="0 0 440 110" fill="none" xmlns="http://www.w3.org/2000/svg">
<path d="M28.1112 12.9934L33.7335 0H31.9194L26.311 12.9934H28.1112Z" fill="#D9D9D9"/>
<path fill-rule="evenodd" clip-rule="evenodd" d="M107.847 35.5986C112.5 36.665 115.685 38.3909 118.192 41.1833V41.1692C121.238 44.5369 122.36 49.2796 121.169 53.8399C120.006 58.3301 116.807 61.824 112.611 63.1991C109.606 64.1814 106.393 64.7567 103.278 64.8689C99.691 64.9952 93.9164 65.0233 89.1804 65.0233C84.7906 65.0233 81.2179 64.9952 81.2179 64.9952H80.4009L81.1209 64.6023C83.8767 63.1149 83.8767 60.5191 83.8767 58.2179C83.8767 47.7922 83.8628 34.2516 83.7936 21.8194C83.7936 19.5182 82.9489 17.9607 81.2871 17.1889L80.4424 16.782H85.6492C87.0617 16.7539 88.7373 16.7539 90.5375 16.7539H102.059C102.52 16.7593 102.968 16.7666 103.398 16.7736L103.4 16.7737C104.106 16.7852 104.767 16.796 105.369 16.796C107.681 16.8241 110.118 17.9466 111.752 18.8727C114.093 20.2058 115.602 22.7595 115.796 25.7062C115.976 28.4564 114.924 30.9822 112.985 32.4415C111.489 33.7464 109.357 34.4901 108.069 34.9391C107.626 35.0935 107.169 35.2338 106.795 35.3461C107.169 35.4443 107.598 35.5425 107.847 35.5986ZM88.9588 28.709C88.9865 30.1824 88.9865 31.7259 88.9588 33.2273H88.945V33.4097C88.9589 34.1533 89.1112 34.5322 89.9559 34.5322H101.311C102.807 34.5322 105.562 34.2516 106.989 33.4658C109.357 32.1749 110.562 29.3405 110.271 25.7062V25.622C109.911 21.5528 106.366 18.3676 102.184 18.3676H89.9698C89.1112 18.3676 88.9588 18.7605 88.9588 19.5743V20.7249C88.9681 21.6835 88.9649 22.705 88.9619 23.6925V23.7519C88.9603 24.2183 88.9588 24.6768 88.9588 25.1169V28.709ZM110.16 61.8521C114.439 59.7333 115.533 56.6603 116.004 52.0298C116.087 51.2721 116.128 50.5284 116.128 49.8128C116.128 44.2562 113.816 39.8923 109.828 38.1664C107.003 36.9316 103.61 36.1459 101.173 36.1459H89.9698C89.5959 36.1459 89.3466 36.216 89.1943 36.3704C89.0281 36.5388 88.9588 36.8194 88.9588 37.3105V38.5032C88.9681 40.4214 88.965 42.3833 88.9619 44.3307V44.34C88.9604 45.3097 88.9588 46.2757 88.9588 47.231V53.2085C88.9865 55.7763 88.9865 58.4283 88.9588 61.0382V62.0906C88.945 63.0448 89.1389 63.3394 89.8174 63.3815H101.325C102.738 63.3815 108.027 62.7501 109.911 61.9924C109.918 61.9848 109.97 61.9566 110.028 61.9257C110.053 61.9118 110.081 61.897 110.105 61.8836C110.126 61.8719 110.145 61.861 110.16 61.8521Z" fill="#D9D9D9"/>
<path fill-rule="evenodd" clip-rule="evenodd" d="M40.7405 64.5882L38.8295 65.0092H52.0127L50.9602 64.6023C49.0215 63.8445 48.1214 62.1327 47.429 60.5751C45.1176 55.3252 41.3542 46.7624 37.9342 38.981L37.9151 38.9376C34.0486 30.1403 30.6256 22.3523 30.2438 21.4966C29.5237 19.9111 28.8175 18.3535 28.1943 16.9223L28.1389 16.796H20.6472L20.6195 17.217C22.4336 17.4976 23.8599 19.1533 23.8599 20.9634V21.1879C23.8599 21.2336 23.8614 21.2823 23.8629 21.332C23.866 21.4348 23.8692 21.5425 23.8599 21.637C23.8045 22.1842 23.7076 22.4648 23.486 22.9419C22.9049 24.2739 22.3202 25.6094 21.7356 26.9449L21.73 26.9577C21.1464 28.291 20.5627 29.6243 19.9825 30.9541C17.7115 36.1599 15.3573 41.534 13.017 46.81L12.2 48.6481C11.2999 50.6827 10.3859 52.7173 9.47196 54.7379C9.25391 55.2324 9.03585 55.7506 8.8178 56.2688C8.7451 56.4415 8.67224 56.6147 8.59954 56.7866L8.33643 57.4461C8.10102 58.0214 7.85175 58.6107 7.56095 59.172L7.53325 59.2281C6.50851 61.403 4.99909 63.7323 1.6202 64.5882L0 65.0092H12.5323L12.56 64.5882C10.7183 64.3777 9.5135 63.7884 8.97343 62.8483C8.51645 62.0485 8.54415 60.9961 9.07037 59.7192L12.4631 52.0158C12.56 51.7772 12.657 51.5527 12.7678 51.3142C12.8162 51.2161 12.8578 51.118 12.8974 51.0247C12.9144 50.9845 12.9311 50.9452 12.9478 50.9072C13.0306 50.7604 13.098 50.6213 13.1672 50.4784L13.2057 50.3992L13.2386 50.3319L13.2663 50.2618C13.4186 49.911 14.0833 49.5602 14.5264 49.5181C14.7506 49.4914 15 49.4774 15.2385 49.464L15.2742 49.462H35.1875C35.4506 49.462 35.6999 49.49 35.9353 49.5181C36.3784 49.5602 37.0431 49.911 37.1954 50.2618L37.3201 50.5284C37.5416 51.0195 37.7632 51.5106 37.9571 52.0158C39.1203 54.6116 40.3389 57.4741 41.8068 61.0242C42.0837 61.7257 42.3884 62.6238 42.1945 63.2131C42.0145 63.7604 41.3775 64.4479 40.7405 64.5882ZM35.8799 47.6799C35.8106 47.7782 35.686 47.8483 35.5614 47.8483H14.8865C14.7619 47.8483 14.6511 47.7922 14.5818 47.6799C14.5126 47.5677 14.4987 47.4414 14.5541 47.3151L24.9262 23.8259C24.9954 23.6856 25.1201 23.6014 25.2724 23.6014C25.4247 23.6014 25.5494 23.6716 25.6048 23.8119L28.499 30.4209C30.7839 35.6547 33.7335 42.3759 35.9076 47.3291C35.9491 47.4414 35.9491 47.5677 35.8799 47.6799Z" fill="#D9D9D9"/>
<path d="M405.66 58.8633C405.702 48.115 405.66 22.7315 405.619 22.0019C405.563 20.5426 405.369 18.9149 403.929 17.8064C403.638 17.5678 403.278 17.3714 402.877 17.189L401.963 16.782H413.983L413.193 17.189C412.861 17.3573 412.543 17.5678 412.279 17.7923C410.632 19.1253 410.618 21.16 410.618 22.942C410.58 32.7887 410.588 51.263 410.59 55.2958L410.59 56.8708C410.604 57.8811 410.632 59.2422 410.645 59.8035C410.715 61.3189 410.909 62.8905 412.335 63.999C412.64 64.2235 413 64.434 413.401 64.6023L414.315 65.0093H402.295L403.071 64.6164C403.431 64.434 403.735 64.2235 403.998 64.013C405.631 62.6786 405.646 60.6833 405.66 58.9137L405.66 58.8633Z" fill="#D9D9D9"/>
<path d="M439.975 42.8811C439.975 44.2562 438.881 45.3787 437.524 45.3787C436.167 45.3787 435.073 44.2562 435.073 42.8811C435.073 41.506 436.167 40.3975 437.524 40.3975C438.881 40.3975 439.975 41.52 439.975 42.8811Z" fill="#D9D9D9"/>
<path d="M437.524 65.0092C438.878 65.0092 439.975 63.8972 439.975 62.5256C439.975 61.1539 438.878 60.0419 437.524 60.0419C436.171 60.0419 435.073 61.1539 435.073 62.5256C435.073 63.8972 436.171 65.0092 437.524 65.0092Z" fill="#D9D9D9"/>
<path fill-rule="evenodd" clip-rule="evenodd" d="M235.414 64.9391C234.182 64.8829 232.977 64.7286 231.772 64.4901C228.823 63.9007 226.081 62.7782 223.547 61.1084C221.012 59.4386 218.88 57.3619 217.246 54.7801C215.21 51.5808 214.158 48.0448 213.742 44.2983C213.693 43.8255 213.659 43.3527 213.624 42.8828C213.6 42.5578 213.577 42.2342 213.548 41.9129C213.548 41.7866 213.525 41.6603 213.502 41.534C213.494 41.492 213.486 41.4499 213.479 41.4078V39.6959C213.486 39.639 213.494 39.583 213.502 39.5275L213.502 39.5256L213.502 39.5239L213.503 39.5187C213.526 39.3581 213.548 39.201 213.548 39.0364C213.604 37.7876 213.756 36.5528 213.991 35.318C214.615 32.0907 215.861 29.116 217.689 26.4078C219.281 24.0505 221.234 22.086 223.602 20.5566C226.856 18.4518 230.47 17.2731 234.293 16.9083C234.86 16.8522 236.896 16.768 237.353 16.768C237.927 16.768 238.942 16.8334 239.63 16.8778L239.887 16.8943C241.313 17.0346 242.061 17.1468 243.418 17.4555C246.922 18.2413 250.079 19.7568 252.863 22.058C255.577 24.3171 257.654 27.0533 259.039 30.3227C260.216 33.115 260.756 36.0617 260.95 39.0785C260.981 39.561 260.989 40.0513 260.996 40.5377L260.996 40.5465L261.001 40.8166C261.002 40.8875 261.004 40.9583 261.005 41.0289C261.033 42.6005 260.922 44.1721 260.673 45.7155C260.202 48.578 259.26 51.2581 257.82 53.7698C256.601 55.9026 255.106 57.8109 253.278 59.4246C251.035 61.4031 248.473 62.7922 245.634 63.6903C244.263 64.1252 242.934 64.5181 241.507 64.7005L241.345 64.7225C240.487 64.8393 239.077 65.0312 235.386 64.9391H235.414ZM255.563 41.2955C255.535 40.0748 255.48 38.854 255.369 37.6332C255.217 36.1178 254.995 34.6164 254.635 33.1431C254.053 30.7015 253.167 28.3863 251.879 26.2254C250.771 24.3592 249.387 22.7455 247.642 21.4827C245.066 19.6164 242.172 18.6202 239.028 18.4097C237.782 18.3255 236.522 18.3396 235.262 18.4378C233.822 18.55 232.409 18.8587 231.038 19.3498C228.476 20.2619 226.247 21.7212 224.447 23.7979C223.283 25.1309 222.369 26.6183 221.594 28.2179C220.431 30.6314 219.738 33.1992 219.351 35.8652C219.157 37.2123 219.046 38.5734 218.991 39.9345C218.908 42.2778 219.046 44.593 219.461 46.9082C219.946 49.5603 220.791 52.1 222.037 54.4854C222.826 56.0149 223.782 57.4181 224.987 58.6388C227.992 61.6697 231.675 63.143 235.871 63.3675C236.227 63.3836 236.588 63.3813 236.948 63.379C237.218 63.3773 237.487 63.3755 237.754 63.3816C239.028 63.3816 240.302 63.2553 241.549 62.9887C243.875 62.4695 245.994 61.5153 247.891 60.056C249.414 58.8914 250.647 57.4461 251.685 55.8325C253.776 52.549 254.912 48.9288 255.355 45.0701C255.494 43.8213 255.549 42.5865 255.521 41.3236L255.563 41.2955Z" fill="#D9D9D9"/>
<path fill-rule="evenodd" clip-rule="evenodd" d="M325.689 21.3704C323.307 18.9569 320.163 17.4135 316.618 16.9364C315.926 16.8522 315.303 16.7961 314.707 16.782C314.555 16.768 314.043 16.768 312.976 16.768H301.538C299.336 16.768 297.342 16.768 295.556 16.782H289.712L290.57 17.1889C292.066 17.8905 292.911 19.3358 293.091 21.4686C293.175 22.5333 293.186 23.6192 293.197 24.68L293.201 25.145V58.5827C293.201 60.94 293.174 63.1711 290.57 64.6164L289.85 65.0092H301.884L301.012 64.6023C298.685 63.5219 298.339 61.7539 298.297 60.1683C298.242 57.0392 298.201 53.4471 298.173 49.9672C298.16 48.9055 298.15 47.8557 298.141 46.8303L298.141 46.8256L298.141 46.8203L298.14 46.808V46.7923C298.129 45.6085 298.118 44.4575 298.104 43.3582V43.3161C298.159 42.7548 298.339 42.4461 299.101 42.4461H300.347L300.901 42.4502C304.646 42.4776 308.495 42.5057 312.256 42.2918C312.436 42.2918 312.644 42.2918 312.81 42.2637C312.852 42.2637 312.893 42.2637 312.935 42.2497H313.045C315.995 42.0533 318.792 41.478 321.119 40.594C324.913 39.1487 327.475 36.1459 328.334 32.1047C328.527 31.1927 328.624 30.2666 328.624 29.3405C328.624 26.2535 327.572 23.2647 325.702 21.3704H325.689ZM298.076 20.739V19.5323C298.09 18.7465 298.242 18.3816 299.087 18.3816H314.043C315.732 18.3816 317.297 18.7745 318.543 19.5323C321.991 21.5809 323.21 25.159 323.21 28.7511C323.21 30.3508 322.974 31.9363 322.573 33.4097C322.047 35.2899 321.188 36.8615 320.025 38.0823C318.488 39.7099 314.68 40.6781 309.833 40.6781H299.101C298.256 40.6781 298.09 40.2852 298.076 39.5135V37.7736C298.076 37.652 298.077 37.5291 298.079 37.4075C298.082 37.1647 298.085 36.9219 298.076 36.6791C298.097 35.332 298.094 33.9671 298.091 32.6062C298.091 32.1533 298.09 31.7006 298.09 31.2488V25.0888C298.09 23.6436 298.09 22.1843 298.076 20.739Z" fill="#D9D9D9"/>
<path fill-rule="evenodd" clip-rule="evenodd" d="M391.134 49.6725C390.704 47.6519 389.846 45.8839 388.627 44.4527C387.409 43.0074 385.816 41.8989 383.919 41.1833C381.593 40.2993 378.795 39.724 375.832 39.5275C375.804 39.5275 375.776 39.5275 375.749 39.5135H375.624C375.534 39.5135 375.441 39.5065 375.347 39.4995C375.254 39.4925 375.16 39.4854 375.07 39.4854C371.124 39.2609 367.08 39.303 363.175 39.3451H361.984C361.139 39.3451 360.959 39.0364 360.904 38.4752V38.419C360.932 36.3563 360.959 34.1113 360.973 31.8101C360.986 30.7105 360.998 29.5997 361.01 28.4959C361.035 26.1063 361.06 23.7493 361.098 21.609C361.139 20.0234 361.485 18.2554 363.826 17.1749L364.684 16.768H352.664L353.371 17.1609C355.974 18.6062 355.988 20.8372 356.002 23.1945V23.3629C356.029 31.2067 356.029 39.724 356.016 47.9606V56.6323C356.016 57.839 356.002 59.0878 355.905 60.3086C355.739 62.4414 354.88 63.8867 353.384 64.5883L352.54 64.9952H358.19C359.99 65.0092 362.15 65.0092 364.352 65.0092H375.79C376.857 65.0092 377.383 65.0092 377.494 64.9952C378.117 64.9952 378.74 64.9251 379.432 64.8409C382.991 64.3638 386.121 62.8203 388.503 60.4068C390.884 57.9934 391.979 53.6435 391.134 49.6725ZM376.857 63.3956H361.901C361.056 63.3956 360.904 63.0167 360.89 62.245V50.5284C360.904 48.7183 360.904 46.8942 360.89 45.0982V42.2637C360.89 41.492 361.07 41.0991 361.915 41.0991H372.647C377.494 41.0991 381.316 42.0673 382.853 43.695C384.002 44.9157 384.861 46.4873 385.387 48.3676C385.788 49.8409 386.038 51.4405 386.038 53.0261C386.038 56.6182 384.805 60.1963 381.371 62.245C380.111 63.0027 378.546 63.3956 376.857 63.3956Z" fill="#D9D9D9"/>
<path d="M187.777 18.0028V18.101C187.777 18.1285 187.779 18.1561 187.78 18.1842C187.784 18.2418 187.787 18.3015 187.777 18.3676C187.75 21.7773 187.736 24.2048 187.736 24.2048V24.7801L187.376 24.3451L187.321 24.2802C186.476 23.2739 185.83 22.5051 184.786 21.7633C180.355 18.6903 177.862 18.4097 171.326 18.3536C170.357 18.3536 170.26 19.7988 170.26 20.4162V21.4967C170.274 27.0252 170.274 32.5537 170.274 38.0963C170.274 44.9999 170.274 51.9187 170.301 58.8364C170.315 61.039 170.33 63.3116 172.946 64.6023L173.75 65.0092H162.007L162.81 64.6023C165.426 63.3116 165.441 61.0379 165.455 58.8352C165.482 51.9215 165.482 45.0077 165.482 38.1079V38.0963C165.482 32.5537 165.482 27.0252 165.496 21.4967V20.4162C165.496 19.7988 165.399 18.3536 164.43 18.3536C157.894 18.4097 155.401 18.6903 150.97 21.7633C149.914 22.5133 149.266 23.2909 148.447 24.2728L148.422 24.303L148.048 24.738L148.02 24.2048C148.02 24.2048 148.02 21.7773 147.979 18.3395C147.965 18.2694 147.965 18.1852 147.979 18.101V18.0168C148.061 16.8237 149.023 16.8239 149.714 16.8241L149.848 16.8241C151.833 16.8335 153.825 16.8303 155.814 16.8272H155.819C156.812 16.8257 157.803 16.8241 158.794 16.8241H176.962C177.953 16.8241 178.945 16.8257 179.937 16.8272H179.942C181.931 16.8303 183.923 16.8335 185.908 16.8241H186.116C186.822 16.8241 187.708 16.8662 187.777 18.0028Z" fill="#D9D9D9"/>
<path d="M432.922 88.8698C433.917 88.8698 434.723 88.5528 435.338 87.9187C435.961 87.2847 436.273 86.4612 436.273 85.4484H434.913C434.913 86.0248 434.718 86.5065 434.33 86.8935C433.949 87.2805 433.476 87.474 432.909 87.474C432.351 87.474 431.881 87.2805 431.501 86.8935C431.121 86.5065 430.93 86.0248 430.93 85.4484H429.558C429.558 86.4612 429.87 87.2847 430.493 87.9187C431.117 88.5528 431.926 88.8698 432.922 88.8698Z" fill="#D9D9D9"/>
<path d="M438.142 108.978H440V91.266H438.385L427.701 105.569V91.266H425.831V108.978H427.446L438.142 94.6874V108.978Z" fill="#D9D9D9"/>
<path fill-rule="evenodd" clip-rule="evenodd" d="M338.935 93.6746C340.675 95.445 341.545 97.5942 341.545 100.122C341.545 102.65 340.675 104.799 338.935 106.57C337.194 108.34 335.082 109.225 332.597 109.225C330.112 109.225 327.999 108.34 326.259 106.57C324.519 104.799 323.648 102.65 323.648 100.122C323.648 97.5942 324.519 95.445 326.259 93.6746C327.999 91.9042 330.112 91.019 332.597 91.019C335.082 91.019 337.194 91.9042 338.935 93.6746ZM327.558 94.8974C326.19 96.3055 325.506 98.0471 325.506 100.122C325.506 102.197 326.19 103.939 327.558 105.347C328.926 106.755 330.605 107.459 332.597 107.459C334.588 107.459 336.267 106.755 337.635 105.347C339.003 103.939 339.687 102.197 339.687 100.122C339.687 98.0471 339.003 96.3055 337.635 94.8974C336.267 93.4893 334.588 92.7852 332.597 92.7852C330.605 92.7852 328.926 93.4893 327.558 94.8974Z" fill="#D9D9D9"/>
<path d="M267.676 108.978V91.266H269.546V99.1093H279.235V91.266H281.105V108.978H279.235V100.888H269.546V108.978H267.676Z" fill="#D9D9D9"/>
<path fill-rule="evenodd" clip-rule="evenodd" d="M296.524 104.05H288.317L286.326 108.978H284.334L291.546 91.266H293.283L300.495 108.978H298.516L296.524 104.05ZM295.772 102.271L292.421 93.9216L289.057 102.271H295.772Z" fill="#D9D9D9"/>
<path fill-rule="evenodd" clip-rule="evenodd" d="M310.341 98.3559V93.0446H319.29V91.266H308.472V108.978H315.186C316.724 108.978 318.019 108.46 319.071 107.422C320.132 106.384 320.662 105.133 320.662 103.667C320.662 102.201 320.132 100.95 319.071 99.9122C318.019 98.8746 316.724 98.3559 315.186 98.3559H310.341ZM315.186 107.212H310.341V100.122H315.186C316.23 100.122 317.092 100.46 317.772 101.135C318.452 101.81 318.792 102.654 318.792 103.667C318.792 104.68 318.452 105.524 317.772 106.199C317.092 106.874 316.23 107.212 315.186 107.212Z" fill="#D9D9D9"/>
<path d="M356.333 108.978H358.191V91.266H347.009V96.5772C347.009 98.8417 346.932 100.711 346.778 102.185C346.632 103.659 346.402 104.758 346.086 105.483C345.77 106.207 345.43 106.697 345.066 106.953C344.71 107.208 344.277 107.336 343.767 107.336C343.354 107.327 342.901 107.241 342.407 107.076V108.978L342.626 109.028C342.763 109.077 342.961 109.122 343.22 109.164C343.488 109.205 343.755 109.225 344.022 109.225C344.831 109.225 345.507 109.069 346.049 108.756C346.6 108.435 347.098 107.838 347.543 106.965C347.996 106.084 348.328 104.787 348.538 103.074C348.757 101.353 348.866 99.1875 348.866 96.5772V93.0446H356.333V108.978Z" fill="#D9D9D9"/>
<path fill-rule="evenodd" clip-rule="evenodd" d="M370.017 108.978H363.424V91.266H365.294V97.8494H370.017C371.627 97.8494 372.963 98.3806 374.023 99.4428C375.084 100.505 375.614 101.831 375.614 103.42C375.614 105.001 375.084 106.323 374.023 107.385C372.963 108.447 371.627 108.978 370.017 108.978ZM365.294 107.212H370.017C371.142 107.212 372.044 106.866 372.724 106.174C373.404 105.483 373.744 104.565 373.744 103.42C373.744 102.267 373.404 101.345 372.724 100.653C372.044 99.9616 371.142 99.6157 370.017 99.6157H365.294V107.212Z" fill="#D9D9D9"/>
<path d="M381.587 91.266H379.718V108.978H399.739V91.266H397.869V107.212H390.657V91.266H388.799V107.212H381.587V91.266Z" fill="#D9D9D9"/>
<path fill-rule="evenodd" clip-rule="evenodd" d="M419.117 93.6746C420.857 95.445 421.727 97.5942 421.727 100.122C421.727 102.65 420.857 104.799 419.117 106.57C417.376 108.34 415.264 109.225 412.779 109.225C410.294 109.225 408.181 108.34 406.441 106.57C404.701 104.799 403.831 102.65 403.831 100.122C403.831 97.5942 404.701 95.445 406.441 93.6746C408.181 91.9042 410.294 91.019 412.779 91.019C415.264 91.019 417.376 91.9042 419.117 93.6746ZM407.74 94.8974C406.372 96.3055 405.688 98.0471 405.688 100.122C405.688 102.197 406.372 103.939 407.74 105.347C409.108 106.755 410.788 107.459 412.779 107.459C414.77 107.459 416.45 106.755 417.818 105.347C419.186 103.939 419.869 102.197 419.869 100.122C419.869 98.0471 419.186 96.3055 417.818 94.8974C416.45 93.4893 414.77 92.7852 412.779 92.7852C410.788 92.7852 409.108 93.4893 407.74 94.8974Z" fill="#D9D9D9"/>
</svg>
