<svg width="1097" height="1349" viewBox="0 0 1097 1349" fill="none" xmlns="http://www.w3.org/2000/svg">
<g opacity="0.6">
<path d="M592.249 270.822L710.269 0H672.115L554.418 270.822H592.249Z" fill="white"/>
<path fill-rule="evenodd" clip-rule="evenodd" d="M856.443 1340.46L817.012 1349H1096.06L1073.97 1340.6C1056.53 1332.42 1040.92 1320.82 1028.08 1306.5C1015.24 1292.18 1005.44 1275.44 999.256 1257.27C950.893 1149.24 872.295 973.946 800.525 813.886C718.03 629.905 644.557 466.045 636.392 447.564C629.387 431.708 622.451 416.805 615.739 402.385C607.822 385.376 600.219 369.04 593.186 352.609V350.025H434.981V358.745C453.679 361.816 470.716 371.266 483.166 385.471C495.616 399.676 502.7 417.748 503.201 436.583V441.105C503.363 444.225 503.363 447.352 503.201 450.472C502.499 459.848 499.844 468.977 495.405 477.279L421.338 643.291C373.584 751.166 323.881 862.593 274.178 972.084L256.961 1009.87C243.571 1039.94 229.854 1069.84 216.158 1099.7C210.581 1111.86 205.007 1124.01 199.461 1136.16C193.294 1149.71 187.127 1164.23 180.96 1178.75L180.945 1178.79L175.422 1192.36C170.549 1204.31 165.352 1216.58 159.179 1228.21C148.743 1255.24 131.987 1279.41 110.296 1298.73C88.6051 1318.05 62.6023 1331.96 34.4351 1339.31L0 1348.03H264.757V1339.31C250.182 1339.54 235.754 1336.39 222.616 1330.11C209.479 1323.83 197.992 1314.6 189.066 1303.14C184.258 1292.98 181.928 1281.83 182.267 1270.61C182.605 1259.38 185.603 1248.4 191.015 1238.54L268.98 1064.13C269.929 1062.44 270.656 1060.74 271.355 1059.11C271.854 1057.94 272.338 1056.81 272.879 1055.74C273.329 1054.84 273.973 1053.64 274.704 1052.27C276.085 1049.69 277.777 1046.53 279.051 1043.78C282.154 1039.49 286.127 1035.89 290.716 1033.22C295.304 1030.55 300.405 1028.87 305.689 1028.28H754.64C759.923 1028.87 765.024 1030.55 769.612 1033.22C774.201 1035.89 778.175 1039.49 781.277 1043.78L783.876 1049.28C788.749 1059.61 793.297 1069.62 797.52 1079.96C821.884 1133.9 847.548 1193.32 878.734 1266.64C886.079 1280.63 888.915 1296.53 886.856 1312.18C884.194 1318.92 880.036 1324.98 874.693 1329.9C869.464 1334.71 863.232 1338.32 856.443 1340.46ZM750.685 992.765C751.871 992.147 752.893 991.258 753.665 990.17L755.289 987.264C755.859 986.165 756.156 984.946 756.156 983.71C756.156 982.474 755.859 981.257 755.289 980.158C741.123 948.394 725.373 913.139 708.95 876.38C672.272 794.282 632.243 704.684 599.034 629.725L538.61 495.689C538.007 494.336 536.994 493.204 535.713 492.452C534.432 491.699 532.946 491.363 531.464 491.49C529.952 491.436 528.459 491.839 527.183 492.646C525.907 493.453 524.908 494.627 524.317 496.011L305.039 982.741C304.466 983.897 304.168 985.168 304.168 986.456C304.168 987.744 304.466 989.015 305.039 990.17C305.692 991.297 306.643 992.224 307.788 992.85C308.934 993.477 310.231 993.778 311.537 993.723H746.843C748.182 993.71 749.499 993.382 750.685 992.765Z" fill="white"/>
</g>
</svg>
