<svg width="220" height="46" viewBox="0 0 220 46" fill="none" xmlns="http://www.w3.org/2000/svg">
<g clip-path="url(#clip0_1298_87)">
<path d="M73.2767 44.9426C73.5219 44.2439 73.8049 43.4508 74.1068 42.5444C74.4087 41.6568 74.7294 40.8449 75.0312 40.1084H76.4651C76.7103 40.9015 77.0122 41.7513 77.3329 42.6388C77.6537 43.5263 77.9367 44.3005 78.2008 44.9237H77.2009C76.9933 44.3949 76.8235 43.9984 76.7292 43.734H74.6162C74.503 44.0928 74.3709 44.4894 74.2389 44.9237H73.2578L73.2767 44.9426ZM74.8426 42.9598H76.4462C76.201 42.2422 75.9746 41.5435 75.767 40.9015H75.5784C75.352 41.4869 75.1067 42.1667 74.8237 42.9598H74.8426Z" fill="#131411"/>
<path d="M78.4272 42.4876C78.4272 42.091 78.465 41.77 78.5216 41.4679C78.5782 41.1657 78.6725 40.9391 78.7857 40.7503C78.8989 40.5615 79.0498 40.4104 79.2574 40.2971C79.446 40.1838 79.6536 40.1083 79.8988 40.0516C80.1441 39.995 80.4082 39.9761 80.7289 39.9761C81.0497 39.9761 81.3138 39.995 81.5591 40.0516C81.8043 40.1083 82.0118 40.1838 82.2005 40.2971C82.3892 40.4104 82.5401 40.5615 82.6722 40.7503C82.7854 40.9391 82.8797 41.1846 82.9363 41.4679C82.9929 41.7511 83.0306 42.091 83.0306 42.4876C83.0306 42.9785 82.9929 43.394 82.8986 43.7339C82.8042 44.0738 82.6533 44.3193 82.4646 44.527C82.2571 44.7158 82.0307 44.848 81.7477 44.9424C81.4647 45.0179 81.144 45.0557 80.7289 45.0557C80.4082 45.0557 80.1441 45.0368 79.8988 44.9802C79.6536 44.9235 79.446 44.848 79.2574 44.7347C79.0687 44.6214 78.9178 44.4703 78.8046 44.2626C78.6914 44.0738 78.597 43.8283 78.5404 43.5262C78.4838 43.224 78.4461 42.8841 78.4461 42.4876H78.4272ZM79.4272 41.8644C79.4272 42.0344 79.4083 42.2421 79.4083 42.4876C79.4083 42.7331 79.4083 42.9408 79.4272 43.1107C79.4272 43.2807 79.4649 43.4317 79.5215 43.5639C79.5592 43.6961 79.6158 43.7905 79.6724 43.8849C79.729 43.9605 79.8234 44.0171 79.9177 44.0738C80.012 44.1304 80.1441 44.1493 80.2573 44.1682C80.3705 44.1871 80.5403 44.1871 80.7289 44.1871C80.9176 44.1871 81.0685 44.1871 81.2006 44.1682C81.3327 44.1493 81.4459 44.1115 81.5402 44.0738C81.6345 44.036 81.7288 43.9605 81.7854 43.8849C81.842 43.8094 81.8986 43.6961 81.9364 43.5639C81.9741 43.4317 82.0118 43.2807 82.0307 43.1107C82.0307 42.9408 82.0496 42.7331 82.0496 42.4876C82.0496 42.2421 82.0496 42.0344 82.0307 41.8644C82.0118 41.6945 81.993 41.5434 81.9364 41.4112C81.8798 41.279 81.842 41.1846 81.7854 41.1091C81.7288 41.0335 81.6345 40.9769 81.5402 40.9391C81.4459 40.9014 81.3138 40.8636 81.2006 40.8447C81.0874 40.8258 80.9176 40.8258 80.7289 40.8258C80.5403 40.8258 80.3893 40.8258 80.2573 40.8447C80.1252 40.8636 80.012 40.8825 79.9177 40.9391C79.8234 40.9958 79.729 41.0524 79.6724 41.1091C79.6158 41.1846 79.5592 41.279 79.5215 41.4112C79.4838 41.5434 79.446 41.6945 79.4272 41.8644Z" fill="#131411"/>
<path d="M85.3887 42.7899L87.2564 40.8638L87.747 41.3736L86.5207 42.7899L87.747 44.225L87.2564 44.7538L85.3887 42.8088V42.7899ZM87.2753 42.7899L89.1431 40.8638L89.6336 41.3736L88.4073 42.7899L89.6336 44.225L89.1431 44.7538L87.2753 42.8088V42.7899Z" fill="#131411"/>
<path d="M90.4263 44.9422V40.127H93.8977V40.9201H91.3507V42.0531H93.0298C93.4637 42.0531 93.8033 42.1852 94.0109 42.4307C94.2184 42.6762 94.3127 43.0539 94.3127 43.526C94.3127 44.0358 94.1995 44.3946 93.992 44.6212C93.7845 44.8478 93.4826 44.9611 93.0676 44.9611H90.4451L90.4263 44.9422ZM91.3319 44.168H92.8412C93.143 44.168 93.3128 43.9414 93.3128 43.4882C93.3128 43.0161 93.143 42.7706 92.8223 42.7706H91.3319V44.1491V44.168Z" fill="#131411"/>
<path d="M95.0672 43.8469C95.0672 43.6581 95.0861 43.4882 95.1427 43.356C95.1804 43.2238 95.2559 43.1105 95.3125 43.035C95.3879 42.9594 95.4823 42.8839 95.6143 42.8461C95.7275 42.7895 95.8596 42.7706 95.9917 42.7517C96.1237 42.7517 96.2746 42.7328 96.4444 42.7328C96.7086 42.7328 96.9916 42.7706 97.3123 42.8272C97.3123 42.6573 97.3123 42.544 97.2746 42.4496C97.2557 42.3552 97.1991 42.2796 97.1425 42.223C97.067 42.1663 96.9916 42.1286 96.8784 42.1097C96.7652 42.0908 96.6142 42.0719 96.4256 42.0719C96.0105 42.0719 95.6521 42.1286 95.3691 42.223L95.2181 41.5243C95.6898 41.411 96.1426 41.3354 96.6142 41.3354C96.8972 41.3354 97.1236 41.3543 97.3123 41.3921C97.501 41.4299 97.6519 41.5054 97.784 41.6187C97.916 41.732 98.0103 41.8642 98.0669 42.0341C98.1235 42.2041 98.1613 42.4307 98.1613 42.6951V44.7533C97.9349 44.8478 97.6708 44.9233 97.3689 44.9611C97.067 44.9988 96.784 45.0366 96.5199 45.0366C95.9539 45.0366 95.5766 44.9611 95.3691 44.7911C95.1615 44.6212 95.0483 44.3001 95.0483 43.8469H95.0672ZM95.9539 43.8092C95.9539 44.0358 95.9917 44.168 96.086 44.2435C96.1615 44.3001 96.3501 44.3379 96.6142 44.3379C96.8595 44.3379 97.0859 44.3001 97.3123 44.2246V43.3937C97.1236 43.356 96.8784 43.3371 96.6142 43.3371C96.4822 43.3371 96.369 43.3371 96.3124 43.3371C96.2369 43.3371 96.1803 43.3749 96.1237 43.3937C96.0671 43.4126 96.0294 43.4693 96.0105 43.5448C95.9917 43.6015 95.9728 43.6959 95.9728 43.8092H95.9539Z" fill="#131411"/>
<path d="M99.0859 44.9425V41.4302H99.9349V42.7331H101.312V41.4302H102.161V44.9425H101.312V43.4507H99.9349V44.9425H99.0859Z" fill="#131411"/>
<path d="M103.142 44.9425V41.4302H103.991V43.1297C104.33 42.752 104.783 42.1855 105.349 41.4302H106.368C105.689 42.3366 105.255 42.8653 105.029 43.0353C105.104 43.073 105.179 43.0919 105.236 43.1297C105.293 43.1674 105.368 43.2241 105.462 43.3185C105.557 43.4129 105.632 43.5074 105.727 43.6395C105.821 43.7717 105.915 43.9417 106.047 44.1683C106.179 44.3949 106.293 44.6404 106.444 44.9425H105.444C105.293 44.6404 105.161 44.376 105.029 44.1683C104.896 43.9606 104.764 43.7906 104.651 43.6773C104.538 43.564 104.425 43.4696 104.312 43.4129C104.198 43.3563 104.104 43.3185 103.972 43.2807V44.9047H103.123L103.142 44.9425Z" fill="#131411"/>
<path d="M108.33 44.1114H109.122C109.556 42.9217 109.802 41.5999 109.858 40.127H113.047V44.1114H113.952L113.801 45.9997H112.952V44.9422H109.33V45.9997H108.481L108.33 44.1114ZM110.122 44.1114H112.122V40.9012H110.688C110.594 42.1475 110.405 43.2238 110.122 44.1114Z" fill="#131411"/>
<path d="M114.217 42.4876C114.217 42.091 114.255 41.77 114.311 41.4679C114.368 41.1657 114.462 40.9391 114.575 40.7503C114.688 40.5615 114.839 40.4104 115.047 40.2971C115.236 40.1838 115.443 40.1083 115.688 40.0516C115.934 39.995 116.198 39.9761 116.518 39.9761C116.839 39.9761 117.103 39.995 117.349 40.0516C117.594 40.1083 117.801 40.1838 117.99 40.2971C118.179 40.4104 118.33 40.5615 118.462 40.7503C118.575 40.9391 118.669 41.1846 118.726 41.4679C118.782 41.7511 118.82 42.091 118.82 42.4876C118.82 42.9785 118.782 43.394 118.688 43.7339C118.594 44.0738 118.443 44.3193 118.254 44.527C118.047 44.7158 117.82 44.848 117.537 44.9424C117.254 45.0179 116.934 45.0557 116.518 45.0557C116.198 45.0557 115.934 45.0368 115.688 44.9802C115.443 44.9235 115.236 44.848 115.047 44.7347C114.858 44.6214 114.707 44.4703 114.594 44.2626C114.481 44.0738 114.387 43.8283 114.33 43.5262C114.273 43.224 114.236 42.8841 114.236 42.4876H114.217ZM115.217 41.8644C115.217 42.0344 115.198 42.2421 115.198 42.4876C115.198 42.7331 115.198 42.9408 115.217 43.1107C115.217 43.2807 115.254 43.4317 115.311 43.5639C115.349 43.6961 115.405 43.7905 115.462 43.8849C115.519 43.9605 115.613 44.0171 115.707 44.0738C115.802 44.1304 115.934 44.1493 116.047 44.1682C116.16 44.1871 116.33 44.1871 116.518 44.1871C116.707 44.1871 116.858 44.1871 116.99 44.1682C117.122 44.1493 117.235 44.1115 117.33 44.0738C117.424 44.036 117.518 43.9605 117.575 43.8849C117.632 43.8094 117.688 43.6961 117.726 43.5639C117.764 43.4317 117.801 43.2807 117.82 43.1107C117.82 42.9408 117.839 42.7331 117.839 42.4876C117.839 42.2421 117.839 42.0344 117.82 41.8644C117.801 41.6945 117.783 41.5434 117.726 41.4112C117.669 41.279 117.632 41.1846 117.575 41.1091C117.518 41.0335 117.424 40.9769 117.33 40.9391C117.235 40.9014 117.103 40.8636 116.99 40.8447C116.877 40.8258 116.707 40.8258 116.518 40.8258C116.33 40.8258 116.179 40.8258 116.047 40.8447C115.915 40.8636 115.802 40.8825 115.707 40.9391C115.613 40.9958 115.519 41.0524 115.462 41.1091C115.405 41.1846 115.349 41.279 115.311 41.4112C115.273 41.5434 115.236 41.6945 115.217 41.8644Z" fill="#131411"/>
<path d="M119.763 44.9422V40.127H121.027C121.48 41.0711 121.933 42.1097 122.386 43.2049C122.763 42.223 123.197 41.1844 123.725 40.127H124.895V44.9422H124.008V41.3544C123.612 42.223 123.178 43.2616 122.669 44.5079H121.952C121.348 42.9595 120.914 41.902 120.669 41.3544V44.9422H119.782H119.763Z" fill="#131411"/>
<path d="M125.933 44.4324C125.933 44.2247 125.97 44.0925 126.046 44.0358C126.121 43.9792 126.253 43.9414 126.461 43.9414C126.687 43.9414 126.819 43.9792 126.895 44.0358C126.97 44.0925 127.008 44.2247 127.008 44.4324C127.008 44.659 126.97 44.81 126.895 44.8667C126.819 44.9233 126.668 44.9611 126.461 44.9611C126.253 44.9611 126.121 44.9233 126.046 44.8478C125.97 44.7723 125.933 44.6401 125.933 44.4135V44.4324Z" fill="#131411"/>
<path d="M128.064 44.9422V40.127H130.555C131.442 40.127 131.875 40.6746 131.875 41.7698C131.875 41.9775 131.857 42.1852 131.8 42.3552C131.743 42.5251 131.668 42.6951 131.574 42.8462C131.479 42.9972 131.328 43.1105 131.159 43.1861C130.989 43.2805 130.8 43.3183 130.574 43.3183H128.97V44.9233H128.064V44.9422ZM128.97 42.6007H130.31C130.498 42.6007 130.649 42.5251 130.743 42.393C130.838 42.2608 130.894 42.0531 130.894 41.7698C130.894 41.1844 130.706 40.9012 130.328 40.9012H128.97V42.6007Z" fill="#131411"/>
<path d="M132.366 42.5251C132.366 42.223 132.403 41.9586 132.46 41.7509C132.517 41.5432 132.63 41.3733 132.781 41.2222C132.932 41.0711 133.139 40.9578 133.403 40.8823C133.667 40.8068 133.988 40.769 134.384 40.7312V40.127H135.29V40.7312C135.686 40.7501 136.026 40.8068 136.29 40.8823C136.554 40.9578 136.762 41.0711 136.912 41.2222C137.063 41.3733 137.177 41.5432 137.252 41.7509C137.309 41.9586 137.346 42.223 137.346 42.5251C137.346 42.8273 137.309 43.0916 137.252 43.2994C137.195 43.5071 137.082 43.6959 136.912 43.847C136.762 43.9981 136.554 44.1114 136.29 44.1869C136.026 44.2624 135.686 44.3191 135.29 44.338V44.9611H134.384V44.338C133.988 44.3191 133.667 44.2624 133.403 44.1869C133.139 44.1114 132.932 43.9981 132.781 43.847C132.63 43.6959 132.517 43.5071 132.46 43.2994C132.403 43.0916 132.366 42.8273 132.366 42.5251ZM133.271 42.5251C133.271 42.6762 133.271 42.8084 133.29 42.9217C133.29 43.0161 133.328 43.1105 133.384 43.2049C133.441 43.2994 133.498 43.356 133.573 43.4127C133.649 43.4693 133.762 43.5071 133.894 43.526C134.026 43.5448 134.177 43.5826 134.366 43.5826V41.4866C134.12 41.4866 133.932 41.5243 133.8 41.5621C133.667 41.5999 133.554 41.6565 133.479 41.7509C133.403 41.8453 133.347 41.9398 133.328 42.0531C133.309 42.1664 133.29 42.3363 133.29 42.5251H133.271ZM135.271 43.5826C135.479 43.5826 135.63 43.5637 135.762 43.526C135.894 43.4882 136.007 43.4504 136.082 43.4127C136.177 43.356 136.233 43.2994 136.271 43.2049C136.309 43.1105 136.347 43.0161 136.365 42.9217C136.365 42.8273 136.384 42.6951 136.384 42.5251C136.384 42.3174 136.384 42.1664 136.346 42.0342C136.309 41.902 136.271 41.8076 136.196 41.7132C136.12 41.6187 136.007 41.5621 135.856 41.5243C135.705 41.4866 135.516 41.4677 135.252 41.4677V43.5826H135.271Z" fill="#131411"/>
<path d="M137.818 44.2249L139.045 42.8086L137.818 41.3546L138.309 40.8447L140.196 42.7708L138.328 44.6969L137.837 44.1871L137.818 44.2249ZM139.705 44.2249L140.931 42.8086L139.705 41.3546L140.196 40.8447L142.082 42.7708L140.214 44.6969L139.724 44.1871L139.705 44.2249Z" fill="#131411"/>
<path d="M58.8817 0H56.5234V40.0706H58.8817V0Z" fill="#131411"/>
<path d="M14.1309 35.35H2.35829V30.6291H14.1309V35.35ZM0 28.2876V40.0708H2.35829V37.7104H16.4892V28.2876H0Z" fill="#131411"/>
<path d="M37.6761 35.3498H30.6201V30.629H37.6761V35.3498ZM21.1869 30.629H28.2429V35.3498H21.1869V30.629ZM18.8286 28.2686V37.6914H28.2429V40.0518H30.6012V37.6914H40.0155V28.2686H18.8286Z" fill="#131411"/>
<path d="M40.0343 23.5664H0V25.9268H40.0343V23.5664Z" fill="#131411"/>
<path d="M36.5061 0L32.9781 3.55008V0H29.4312L23.5449 5.89162V21.2061H25.9032V7.08128L30.6198 2.36043V21.2061H32.9781V7.08128L37.6758 2.36043V21.2061H40.0341V0H36.5061Z" fill="#131411"/>
<path d="M7.07486 2.36043V18.8645H2.35829V7.08128L7.07486 2.36043ZM0 21.2061H9.41429V0H5.88629L0 5.89162V21.2061Z" fill="#131411"/>
<path d="M14.1309 2.36043H18.8475V18.8645H14.1309V2.36043ZM21.2058 0H11.7915V21.2061H21.2058V0Z" fill="#131411"/>
<path d="M79.2194 7.02441V8.30849C82.6531 8.47844 83.6152 9.61144 83.6152 12.1418C83.6152 14.6722 82.6531 15.8241 79.2194 15.9752V17.2781H77.295V15.9752C73.9368 15.8052 73.0312 14.6722 73.0312 12.1418C73.0312 9.61144 73.9368 8.47844 77.295 8.30849V7.02441H79.2194ZM77.295 14.3889V9.91358C75.2763 9.98911 74.9745 10.5556 74.9745 12.1418C74.9745 13.728 75.2952 14.3134 77.295 14.3701V14.3889ZM79.2194 9.89469V14.3889C81.3324 14.3323 81.6532 13.728 81.6532 12.1607C81.6532 10.5934 81.3513 9.97023 79.2194 9.91358V9.89469Z" fill="#131411"/>
<path d="M94.3122 17.2781H92.4067V9.85693C91.0483 12.3495 89.5768 14.9366 88.0675 17.2781H85.5205V7.02441H87.426V14.7666C89.0108 12.1985 90.5767 9.59256 91.9539 7.02441H94.2933V17.2781H94.3122Z" fill="#131411"/>
<path d="M98.8593 17.2781H96.916V7.02441H98.8593V10.9333H103.236V7.02441H105.142V17.2781H103.236V12.7272H98.8593V17.2781Z" fill="#131411"/>
<path d="M113.613 14.729H109.122C108.821 15.6354 108.556 16.504 108.33 17.2972H106.292C107.255 14.238 108.745 10.1026 109.99 7.04346H113.028C114.065 10.3481 115.575 14.5591 116.726 17.2972H114.575C114.273 16.5607 113.933 15.6732 113.594 14.729H113.613ZM111.235 8.68631C110.726 10.0082 110.179 11.5188 109.651 13.0673H113.065C112.537 11.5566 112.028 10.0082 111.632 8.68631H111.235Z" fill="#131411"/>
<path d="M119.706 17.2781H117.763V7.02441H119.706V10.9333H124.083V7.02441H125.989V17.2781H124.083V12.7272H119.706V17.2781Z" fill="#131411"/>
<path d="M132.875 6.77914C133.819 6.77914 135.026 6.94909 135.819 7.15681L135.385 8.85631C134.856 8.66748 133.894 8.5353 133.215 8.5353C130.989 8.5353 130.14 8.91296 130.14 12.0665C130.14 15.22 130.97 15.711 133.215 15.711C133.913 15.711 134.856 15.5788 135.385 15.39L135.819 17.1272C135.026 17.3538 133.819 17.486 132.875 17.486C129.63 17.486 128.064 16.2397 128.064 12.0476C128.064 7.85549 129.63 6.76025 132.875 6.76025V6.77914Z" fill="#131411"/>
<path d="M146.063 17.2781H144.157V9.85693C142.799 12.3495 141.327 14.9366 139.818 17.2781H137.271V7.02441H139.176V14.7666C140.761 12.1985 142.327 9.59256 143.704 7.02441H146.044V17.2781H146.063Z" fill="#131411"/>
<path d="M148.667 17.2781V7.02441H154.006C156.175 7.02441 156.854 8.53509 156.854 10.5367C156.854 12.3118 156.024 13.898 154.043 13.898H150.61V17.2781H148.667ZM153.459 12.274C154.27 12.274 154.723 11.6886 154.723 10.5178C154.723 9.27154 154.289 8.66727 153.496 8.66727H150.591V12.274H153.44H153.459Z" fill="#131411"/>
<path d="M167.778 12.0667C167.778 16.2965 166.155 17.5051 162.91 17.5051C159.665 17.5051 158.024 16.3154 158.024 12.0667C158.024 7.81788 159.665 6.7793 162.91 6.7793C166.155 6.7793 167.778 7.89342 167.778 12.0667ZM165.721 12.1044C165.721 9.00754 165.155 8.53545 162.91 8.53545C160.665 8.53545 160.099 8.98866 160.099 12.1044C160.099 15.2202 160.665 15.7489 162.91 15.7489C165.155 15.7489 165.721 15.1824 165.721 12.1044Z" fill="#131411"/>
<path d="M178.117 14.4834C178.117 16.5039 177.117 17.297 175.475 17.297H169.872V7.02441H175.381C177.419 7.02441 177.89 7.98747 177.89 9.47926C177.89 10.8389 177.588 11.6886 175.758 11.8397C177.72 11.9341 178.117 12.9349 178.117 14.4645V14.4834ZM171.815 11.1221H174.966C175.607 11.1221 175.853 10.65 175.853 9.89469C175.853 9.06382 175.626 8.68615 174.966 8.68615H171.815V11.1221ZM175.041 15.6541C175.739 15.6541 176.022 15.1443 176.022 14.219C176.022 13.2937 175.683 12.7083 174.985 12.7083H171.815V15.673H175.041V15.6541Z" fill="#131411"/>
<path d="M186.21 14.729H181.72C181.418 15.6354 181.154 16.504 180.928 17.2972H178.89C179.852 14.238 181.343 10.1026 182.588 7.04346H185.625C186.663 10.3481 188.172 14.5591 189.323 17.2972H187.172C186.871 16.5607 186.531 15.6732 186.191 14.729H186.21ZM183.833 8.68631C183.324 10.0082 182.777 11.5188 182.248 13.0673H185.663C185.135 11.5566 184.625 10.0082 184.229 8.68631H183.833Z" fill="#131411"/>
<path d="M192.304 17.2781H190.361V7.02441H192.304V10.9333H196.681V7.02441H198.587V17.2781H196.681V12.7272H192.304V17.2781Z" fill="#131411"/>
<path d="M209.963 17.2781H208.057V9.85693C206.699 12.3495 205.227 14.9366 203.718 17.2781H201.171V7.02441H203.077V14.7666C204.661 12.1985 206.227 9.59256 207.605 7.02441H209.944V17.2781H209.963Z" fill="#131411"/>
<path d="M220 7.02441V8.70504H214.51V11.0655H218.434V12.7272H214.51V15.5975H220V17.2781H212.566V7.02441H220Z" fill="#131411"/>
<path d="M78.0873 21.9994C79.0306 21.9994 80.238 22.1693 81.0304 22.377L80.5965 24.0765C80.0682 23.8877 79.1061 23.7555 78.4269 23.7555C76.2006 23.7555 75.3517 24.1332 75.3517 27.2867C75.3517 30.4402 76.1818 30.9312 78.4269 30.9312C79.1249 30.9312 80.0682 30.799 80.5965 30.6102L81.0304 32.3475C80.238 32.5741 79.0306 32.7062 78.0873 32.7062C74.8423 32.7062 73.2764 31.4599 73.2764 27.2678C73.2764 23.0757 74.8423 21.9805 78.0873 21.9805V21.9994Z" fill="#131411"/>
<path d="M84.7094 32.5174V23.9443H81.2568V22.2637H90.124V23.9443H86.6715V32.5174H84.7094Z" fill="#131411"/>
<path d="M91.4448 32.5174V22.2637H96.784C98.9536 22.2637 99.6328 23.7743 99.6328 25.776C99.6328 27.551 98.8027 29.1372 96.8217 29.1372H93.3881V32.5174H91.4448ZM96.2369 27.5133C97.0481 27.5133 97.5009 26.9279 97.5009 25.7571C97.5009 24.5108 97.067 23.9065 96.2746 23.9065H93.3692V27.5133H96.218H96.2369Z" fill="#131411"/>
<path d="M110.575 27.2864C110.575 31.5163 108.953 32.7248 105.708 32.7248C102.463 32.7248 100.821 31.5351 100.821 27.2864C100.821 23.0376 102.463 21.999 105.708 21.999C108.953 21.999 110.575 23.1131 110.575 27.2864ZM108.519 27.3241C108.519 24.2273 107.953 23.7552 105.708 23.7552C103.463 23.7552 102.897 24.2084 102.897 27.3241C102.897 30.4399 103.463 30.9686 105.708 30.9686C107.953 30.9686 108.519 30.4021 108.519 27.3241Z" fill="#131411"/>
<path d="M121.442 32.5174H119.537V25.0962C118.178 27.5888 116.707 30.1758 115.197 32.5174H112.65V22.2637H114.556V30.0059C116.141 27.4377 117.707 24.8318 119.084 22.2637H121.423V32.5174H121.442Z" fill="#131411"/>
<path d="M126.253 32.5174V23.9443H122.801V22.2637H131.668V23.9443H128.215V32.5174H126.253Z" fill="#131411"/>
<path d="M140.441 22.2446V23.9253H134.951V26.2857H138.875V27.9474H134.951V30.8177H140.441V32.4983H133.007V22.2446H140.441Z" fill="#131411"/>
<path d="M145.119 23.9253C144.912 26.5689 144.289 29.6847 143.308 32.4983H141.271C142.27 29.4581 143.176 25.9835 143.346 22.2446H150.232V32.4983H148.327V23.9253H145.138H145.119Z" fill="#131411"/>
<path d="M154.741 22.2446V25.8891H158.307C160.326 25.8891 161.061 27.3432 161.061 29.1937C161.061 31.2709 160.231 32.4983 158.401 32.4983H152.798V22.2446H154.741ZM157.854 30.8744C158.628 30.8744 158.948 30.3078 158.948 29.2126C158.948 28.1174 158.552 27.5131 157.797 27.5131H154.722V30.8744H157.835H157.854Z" fill="#131411"/>
<path d="M167.193 21.9994C168.136 21.9994 169.344 22.1693 170.136 22.377L169.702 24.0765C169.174 23.8877 168.212 23.7555 167.532 23.7555C165.306 23.7555 164.457 24.1332 164.457 27.2867C164.457 30.4402 165.287 30.9312 167.532 30.9312C168.23 30.9312 169.174 30.799 169.702 30.6102L170.136 32.3475C169.344 32.5741 168.136 32.7062 167.193 32.7062C163.948 32.7062 162.382 31.4599 162.382 27.2678C162.382 23.0757 163.948 21.9805 167.193 21.9805V21.9994Z" fill="#131411"/>
<path d="M173.815 32.5174V23.9443H170.363V22.2637H179.23V23.9443H175.777V32.5174H173.815Z" fill="#131411"/>
<path d="M188.814 29.7037C188.814 31.7243 187.814 32.5174 186.172 32.5174H180.569V22.2637H186.078C188.116 22.2637 188.587 23.2267 188.587 24.7185C188.587 26.0781 188.285 26.9279 186.455 27.0789C188.417 27.1734 188.814 28.1742 188.814 29.7037ZM182.512 26.3425H185.663C186.304 26.3425 186.55 25.8704 186.55 25.1151C186.55 24.2842 186.323 23.9065 185.663 23.9065H182.512V26.3425ZM185.738 30.8745C186.437 30.8745 186.72 30.3647 186.72 29.4394C186.72 28.5141 186.38 27.9287 185.682 27.9287H182.512V30.8934H185.738V30.8745Z" fill="#131411"/>
<path d="M196.908 29.9492H192.417C192.115 30.8556 191.851 31.7243 191.625 32.5174H189.587C190.55 29.4583 192.04 25.3228 193.285 22.2637H196.323C197.36 25.5683 198.87 29.7793 200.02 32.5174H197.87C197.568 31.7809 197.228 30.8934 196.889 29.9492H196.908ZM194.53 23.9065C194.021 25.2284 193.474 26.739 192.946 28.2875H196.36C195.832 26.7768 195.323 25.2284 194.927 23.9065H194.53Z" fill="#131411"/>
</g>
<defs>
<clipPath id="clip0_1298_87">
<rect width="220" height="46" fill="white"/>
</clipPath>
</defs>
</svg>
