<svg width="414" height="360" viewBox="0 0 414 360" fill="none" xmlns="http://www.w3.org/2000/svg">
<path d="M73.655 345.359L43.4879 359.886C42.8487 360.19 42.0705 359.886 41.1256 358.946C40.1808 358.007 39.8612 357.219 40.1808 356.597L170.743 93.5995C171.688 91.4156 170.896 90.3236 168.38 90.3236C115.592 90.3236 79.2271 90.9594 59.2732 92.2034C39.3192 93.4613 26.2853 96.0322 20.1574 99.9439C14.0294 103.856 9.2355 111.278 5.78942 122.212C5.78942 123.152 5.15023 123.622 3.89964 123.622C2.95475 123.622 2.00985 123.387 1.06496 122.917C0.120067 122.447 -0.19953 121.908 0.120067 121.272L16.6279 53.7497C16.9336 53.1277 18.0452 52.8928 19.9211 53.0448C21.8109 53.2107 22.5891 53.5977 22.2834 54.2197C21.9638 55.4775 21.8109 57.0395 21.8109 58.9055C21.8109 62.0293 23.2977 64.0612 26.2853 65.0011C29.2728 65.941 35.3173 66.411 44.4328 66.411H185.819C187.39 66.411 188.571 67.1159 189.349 68.5258C190.127 69.9357 190.21 71.2626 189.585 72.5066L83.5486 334.108C81.0335 339.416 77.7264 343.175 73.655 345.359Z" fill="white"/>
<path d="M398.071 164.501C408.681 176.061 414 190.273 414 207.137C414 222.122 409.62 236.03 400.875 248.834C392.13 261.637 380.179 271.871 365.023 279.523C349.868 287.174 333.551 291 316.061 291C298.57 291 281.535 286 266.863 276.015C252.177 266.029 240.696 251.969 232.42 233.848C224.145 215.741 220 195.286 220 172.484C220 145.013 226.245 119.006 238.748 94.4901C251.237 69.9747 269.681 49.2161 294.038 32.1865C318.409 15.1431 347.464 4.4392 381.202 0.0747684C382.445 -0.229084 383.232 0.392433 383.55 1.95313C383.854 3.51383 383.55 4.45301 382.611 4.75686C354.178 10.3781 330.277 21.1511 310.921 37.0758C291.551 53.0004 277.017 71.9774 267.346 93.9929C257.662 116.008 252.826 139.046 252.826 163.092C252.826 183.699 256.031 203.145 262.428 221.418C268.825 239.69 277.888 254.372 289.603 265.449C301.319 276.539 314.679 282.078 329.669 282.078C345.599 282.078 358.088 276.387 367.151 264.979C376.214 253.585 380.746 238.364 380.746 219.305C380.746 200.245 376.684 186.834 368.56 176.199C360.437 165.592 348.721 160.274 333.413 160.274C324.985 160.274 317.166 161.918 309.982 165.191C302.797 168.478 294.992 174.017 286.55 181.82C286.232 182.138 285.763 182.29 285.141 182.29C284.202 182.29 283.262 181.82 282.323 180.881C281.383 179.942 281.065 179.168 281.383 178.533C289.507 168.23 299.496 160.426 311.377 155.109C323.245 149.805 336.218 147.14 350.268 147.14C371.503 147.14 387.446 152.927 398.071 164.473V164.501Z" fill="white"/>
</svg>
