<svg width="416" height="310" viewBox="0 0 416 310" fill="none" xmlns="http://www.w3.org/2000/svg">
<path d="M306.341 223.581C325.234 204.509 339.215 187.183 348.24 171.589C357.279 155.994 361.792 140.575 361.792 125.318C361.792 108.74 357.191 95.5513 347.988 85.766C338.786 75.9807 325.663 71.0808 308.605 71.0808C275.479 71.0808 252.562 91.8103 239.853 133.284C239.853 133.959 239.173 134.281 237.841 134.281C236.835 134.281 235.829 134.032 234.823 133.533C233.817 133.034 233.477 132.624 233.817 132.286L253.391 56.6596C253.716 55.9995 254.811 55.8381 256.645 56.1608C258.48 56.4983 259.234 56.9971 258.909 57.6572C258.569 59.315 258.406 61.3102 258.406 63.6281C258.406 69.5991 261.247 72.5918 266.943 72.5918C270.286 72.5918 275.479 71.4329 282.492 69.1149C290.185 66.4596 297.124 64.479 303.323 63.144C309.507 61.8237 316.623 61.1488 324.657 61.1488C346.065 61.1488 363.212 66.797 376.098 78.064C388.97 89.3456 395.42 104.104 395.42 122.354C395.42 136.614 390.908 150.551 381.868 164.151C372.829 177.75 360.209 191.849 343.979 206.446C327.749 221.043 301.903 242.946 266.454 272.126C265.108 273.124 264.694 273.96 265.197 274.62C265.7 275.295 266.78 275.618 268.452 275.618C312.94 275.618 343.727 275.045 360.786 273.872C377.844 272.713 389.724 270.057 396.412 265.906C403.099 261.754 407.774 254.213 410.467 243.269C410.792 242.609 411.798 242.359 413.485 242.521C415.157 242.697 416 243.108 416 243.768L409.475 294.528C409.475 295.863 409.046 297.095 408.218 298.254C407.375 299.413 406.295 300 404.963 300H231.332C229.66 300 228.402 299.34 227.574 298.005C226.73 296.684 226.819 295.349 227.825 294.029C261.276 266.17 287.448 242.697 306.356 223.625L306.341 223.581Z" fill="white"/>
<path d="M189.085 175.241C200.352 187.556 206 202.696 206 220.661C206 236.625 201.35 251.441 192.063 265.08C182.777 278.72 170.087 289.622 153.994 297.773C137.901 305.924 120.575 310 102.002 310C83.4299 310 65.3414 304.674 49.7616 294.036C34.1671 283.398 21.9761 268.42 13.1886 249.117C4.38641 229.798 0 208.008 0 183.716C0 154.451 6.63096 126.746 19.9076 100.63C33.1695 74.5141 52.7543 52.4 78.618 34.2586C104.496 16.1318 135.348 4.72904 171.173 0.0796502C172.493 -0.244042 173.329 0.418055 173.667 2.08066C173.989 3.74325 173.667 4.74376 172.669 5.08216C142.478 11.0705 117.098 22.5468 96.5451 39.5112C75.9774 56.4756 60.5442 76.6917 50.275 100.145C39.9912 123.598 34.8566 148.139 34.8566 173.755C34.8566 195.707 38.2601 216.424 45.0524 235.889C51.8448 255.355 61.4685 270.995 73.9088 282.795C86.3492 294.61 100.535 300.51 116.453 300.51C133.367 300.51 146.629 294.448 156.253 282.295C165.877 270.156 170.689 253.942 170.689 233.638C170.689 213.334 166.376 199.047 157.749 187.718C149.123 176.418 136.683 170.754 120.428 170.754C111.479 170.754 103.176 172.504 95.5475 175.992C87.919 179.493 79.6303 185.393 70.6667 193.706C70.3293 194.045 69.8305 194.207 69.1704 194.207C68.1728 194.207 67.1752 193.706 66.1776 192.706C65.18 191.705 64.8426 190.881 65.18 190.205C73.8062 179.228 84.4128 170.915 97.0292 165.251C109.631 159.601 123.406 156.761 138.326 156.761C160.874 156.761 177.804 162.926 189.085 175.226V175.241Z" fill="white"/>
</svg>
