<svg width="1100" height="1521" viewBox="0 0 1100 1521" fill="none" xmlns="http://www.w3.org/2000/svg">
<path d="M594.377 305.352L712.82 0H674.529L556.41 305.352H594.377Z" fill="white"/>
<path fill-rule="evenodd" clip-rule="evenodd" d="M859.52 1511.38L819.947 1521H1100L1077.83 1511.53C1060.32 1502.3 1044.66 1489.22 1031.78 1473.08C1018.89 1456.94 1009.05 1438.06 1002.85 1417.58C954.309 1295.77 875.428 1098.13 803.401 917.657C720.61 710.219 646.873 525.466 638.678 504.629C631.648 486.752 624.687 469.948 617.951 453.69C610.006 434.512 602.375 416.093 595.317 397.567V394.653H436.544V404.485C455.308 407.948 472.407 418.603 484.902 434.619C497.396 450.635 504.506 471.012 505.009 492.248V497.347C505.172 500.865 505.172 504.39 505.009 507.908C504.305 518.48 501.64 528.772 497.184 538.132L422.851 725.311C374.926 846.941 325.044 972.576 275.163 1096.03L257.884 1138.63C244.446 1172.53 230.68 1206.25 216.934 1239.91C211.337 1253.62 205.744 1267.32 200.178 1281.02C193.989 1296.3 187.8 1312.67 181.611 1329.05L181.595 1329.09L176.052 1344.38C171.162 1357.86 165.946 1371.69 159.751 1384.8C149.277 1415.28 132.461 1442.54 110.692 1464.32C88.9234 1486.1 62.8272 1501.79 34.5588 1510.08L0 1519.91H265.709V1510.08C251.081 1510.33 236.601 1506.78 223.416 1499.7C210.231 1492.62 198.703 1482.21 189.745 1469.29C184.919 1457.83 182.582 1445.27 182.922 1432.61C183.261 1419.96 186.269 1407.57 191.701 1396.46L269.947 1199.81C270.898 1197.9 271.628 1195.98 272.33 1194.14C272.83 1192.83 273.316 1191.56 273.859 1190.34C274.311 1189.33 274.957 1187.98 275.691 1186.44C277.077 1183.53 278.775 1179.97 280.054 1176.87C283.167 1172.03 287.155 1167.97 291.76 1164.96C296.365 1161.95 301.484 1160.05 306.787 1159.39H757.351C762.653 1160.05 767.772 1161.95 772.377 1164.96C776.982 1167.97 780.97 1172.03 784.084 1176.87L786.692 1183.06C791.583 1194.71 796.147 1206 800.385 1217.66C824.837 1278.47 850.593 1345.48 881.891 1428.14C889.262 1443.91 892.108 1461.84 890.041 1479.49C887.37 1487.09 883.198 1493.91 877.835 1499.46C872.588 1504.89 866.333 1508.96 859.52 1511.38ZM753.382 1119.34C754.572 1118.65 755.597 1117.64 756.373 1116.42L758.002 1113.14C758.574 1111.9 758.873 1110.53 758.873 1109.14C758.873 1107.74 758.574 1106.37 758.002 1105.13C743.785 1069.32 727.978 1029.57 711.497 988.12C674.687 895.555 634.514 794.532 601.186 710.016L540.545 558.89C539.94 557.365 538.923 556.089 537.638 555.24C536.352 554.392 534.861 554.012 533.373 554.156C531.856 554.095 530.358 554.549 529.077 555.459C527.796 556.369 526.793 557.692 526.2 559.253L306.135 1108.04C305.56 1109.35 305.261 1110.78 305.261 1112.23C305.261 1113.68 305.56 1115.12 306.135 1116.42C306.79 1117.69 307.744 1118.73 308.894 1119.44C310.044 1120.15 311.345 1120.49 312.656 1120.42H749.526C750.87 1120.41 752.191 1120.04 753.382 1119.34Z" fill="white"/>
</svg>
