<svg width="118" height="118" viewBox="0 0 118 118" fill="none" xmlns="http://www.w3.org/2000/svg">
<rect x="25.0586" y="0.21225" width="96" height="96" rx="48" transform="rotate(15 25.0586 0.21225)" fill="#F6F6F6"/>
<path d="M67.5204 26.747C68.0637 26.8926 68.5718 27.1096 69.0314 27.3864C69.4986 27.6653 69.8671 27.95 70.1446 28.2428C70.42 28.543 70.6522 28.8236 70.8411 29.0845C71.0355 29.355 71.1701 29.5771 71.2449 29.7508L71.3543 30.0066L69.984 30.8041C69.9639 30.7583 69.9403 30.6954 69.9002 30.6037C69.86 30.5121 69.7661 30.3494 69.6074 30.0966C69.4542 29.8533 69.2798 29.6287 69.0748 29.4281C68.8772 29.2296 68.6022 29.0184 68.2572 28.7966C67.9123 28.5748 67.5189 28.4127 67.0963 28.2995C65.9795 28.0002 64.9255 28.1303 63.9324 28.6973C62.9469 29.2663 62.2997 30.112 61.9984 31.2364C61.6992 32.3533 61.8368 33.4092 62.4038 34.4023C62.9728 35.3878 63.8185 36.035 64.9429 36.3363C65.3655 36.4495 65.7891 36.4984 66.2064 36.4807C66.6236 36.4631 66.9769 36.4122 67.278 36.315C67.579 36.2177 67.8424 36.1103 68.083 35.9969C68.3237 35.8834 68.5035 35.786 68.6244 35.6971L68.7957 35.5408L69.5912 36.9186C69.5373 36.9689 69.4567 37.0281 69.3474 37.104C69.2381 37.1799 69.0105 37.3049 68.657 37.4771C68.3055 37.6417 67.945 37.7797 67.5755 37.891C67.208 37.9947 66.7389 38.055 66.1853 38.0685C65.6317 38.0819 65.0833 38.0158 64.54 37.8702C62.9175 37.4355 61.7027 36.5357 60.8977 35.1634C60.083 33.7966 59.8936 32.3305 60.3101 30.7759C60.7266 29.2214 61.6218 28.0539 63.0127 27.27C64.394 26.4916 65.898 26.3123 67.5204 26.747Z" fill="#131411"/>
<path opacity="0.3" d="M58.7203 88.3254C58.3078 89.8649 57.4222 91.0268 56.067 91.8284C54.7043 92.6279 53.2909 92.8315 51.8194 92.4373C50.446 92.0692 49.3921 91.2935 48.6467 90.0908C47.8993 88.8957 47.6201 87.5834 47.7959 86.1423L46.015 85.6651L44.7512 90.3816L43.0533 89.9266L45.9529 79.1052L47.6508 79.5602L46.4275 84.1257L48.2084 84.6029C48.7544 83.35 49.6478 82.4004 50.8906 81.7467C52.1334 81.0929 53.4415 80.95 54.7999 81.314C56.2714 81.7083 57.3936 82.5913 58.174 83.9651C58.9468 85.3369 59.1308 86.7935 58.7203 88.3254ZM57.0204 87.878C57.3277 86.731 57.2127 85.6811 56.6945 84.7172C56.1763 83.7534 55.4041 83.134 54.3854 82.861C53.3591 82.586 52.3881 82.7383 51.4574 83.3139C50.5267 83.8896 49.9097 84.7433 49.6024 85.8904C49.295 87.0374 49.4025 88.0853 49.9207 89.0491C50.4389 90.013 51.2056 90.6228 52.2319 90.8978C53.2506 91.1708 54.2271 91.028 55.1578 90.4524C56.0885 89.8768 56.713 89.0251 57.0204 87.878Z" fill="#131411"/>
<path opacity="0.3" d="M33.9027 52.3563C33.9526 52.3912 34.0182 52.4385 34.0993 52.4979C34.1791 52.5625 34.3158 52.6961 34.5095 52.899C34.7045 53.0969 34.8658 53.3099 34.9933 53.5382C35.1209 53.7665 35.2113 54.063 35.2645 54.4278C35.3241 54.7888 35.3047 55.153 35.2063 55.5203C34.9664 56.4158 34.3817 57.0787 33.4522 57.509C32.5277 57.9407 31.4315 57.9867 30.1638 57.647C29.6506 57.5095 29.1713 57.3163 28.7257 57.0675C28.2814 56.8137 27.9256 56.562 27.6582 56.3124C27.3971 56.0591 27.1695 55.8121 26.9752 55.5713C26.7859 55.3319 26.6521 55.1369 26.5738 54.9865L26.4658 54.7554L27.8417 53.9675C27.8638 54.0058 27.8969 54.0632 27.9411 54.1397C27.9903 54.2176 28.0928 54.3583 28.2486 54.5618C28.4094 54.7666 28.5843 54.9591 28.7733 55.1392C28.9636 55.3142 29.2221 55.4967 29.5486 55.6866C29.8765 55.8715 30.2191 56.0118 30.5763 56.1075C31.351 56.3151 32.0037 56.304 32.5344 56.0742C33.0651 55.8443 33.3965 55.4829 33.5286 54.9898C33.6607 54.4968 33.5538 54.0206 33.2078 53.5612C32.8631 53.0968 32.3034 52.7608 31.5286 52.5532L30.2156 52.2014L30.6301 50.6544L31.9431 51.0062C32.572 51.1748 33.1034 51.1635 33.5375 50.9724C33.9729 50.7763 34.2458 50.472 34.3563 50.0595C34.4642 49.657 34.3773 49.2671 34.0956 48.8896C33.8139 48.5122 33.3586 48.2392 32.7297 48.0707C32.2769 47.9494 31.8054 47.9282 31.3152 48.0071C30.8249 48.0861 30.4473 48.1871 30.1825 48.3103L29.7942 48.5217L29.0043 47.1534C29.0452 47.1212 29.1104 47.0794 29.1997 47.0278C29.2954 46.9726 29.487 46.881 29.7747 46.7532C30.0624 46.6254 30.3552 46.5286 30.6532 46.4629C30.9526 46.3921 31.3316 46.3562 31.7902 46.3551C32.2502 46.3489 32.7015 46.4051 33.1442 46.5237C34.2963 46.8324 35.1284 47.3493 35.6405 48.0742C36.159 48.7955 36.309 49.5636 36.0907 50.3786C36.0017 50.7107 35.8634 51.0052 35.6759 51.2623C35.4934 51.5208 35.3038 51.7153 35.1071 51.8459C34.9153 51.9779 34.7272 52.0865 34.5425 52.1719C34.3593 52.2522 34.2055 52.3026 34.0814 52.3233L33.9027 52.3563Z" fill="#131411"/>
<path opacity="0.3" d="M84.8772 72.1456L80.2417 70.9116L83.1413 60.0903L87.5408 61.2691C88.4162 61.5037 89.0864 61.9906 89.5495 62.7375C90.0146 63.4768 90.1461 64.2238 89.9439 64.9784C89.8286 65.4085 89.6309 65.7842 89.3527 66.0979C89.0746 66.4116 88.8343 66.6141 88.6223 66.711L88.2845 66.855C88.3181 66.8802 88.3609 66.9321 88.4242 66.9976C88.4875 67.0631 88.5875 67.2031 88.7412 67.4142C88.8874 67.6232 89.0069 67.8413 89.0902 68.0739C89.1755 68.2989 89.237 68.5823 89.2769 68.9165C89.3168 69.2507 89.2922 69.5838 89.2053 69.9083C88.9727 70.7762 88.4405 71.4343 87.6106 71.8751C86.7787 72.3235 85.8657 72.4105 84.8772 72.1456ZM82.3339 69.8951L85.2694 70.6816C85.7675 70.8151 86.2366 70.7548 86.6747 70.5082C87.1053 70.2596 87.3921 69.8835 87.5255 69.3855C87.661 68.8799 87.6007 68.4108 87.3521 67.9802C87.1055 67.5421 86.7274 67.2628 86.2218 67.1273L83.2863 66.3408L82.3339 69.8951ZM87.1465 62.7406L84.4449 62.0167L83.6584 64.9523L86.3599 65.6761C86.7825 65.7894 87.1681 65.739 87.5221 65.5346C87.8761 65.3302 88.1125 65.0215 88.2258 64.5989C88.339 64.1763 88.2886 63.7908 88.0842 63.4367C87.8798 63.0827 87.5691 62.8539 87.1465 62.7406Z" fill="#131411"/>
<g opacity="0.3">
<path d="M57.3257 57.5164L45.5704 54.3666L52.4167 50.4139L51.41 48.6844L41.6121 54.3413L47.2689 64.1392L48.9958 63.1422L45.0527 56.2985L56.8081 59.4483L57.3257 57.5164Z" fill="#131411"/>
</g>
<g opacity="0.3">
<path d="M64.1382 70.7298L63.1411 69.0029L56.2974 72.946L59.4472 61.1907L57.5154 60.673L54.3656 72.4284L50.4225 65.5846L48.6834 66.5887L54.3402 76.3867L64.1382 70.7298Z" fill="#131411"/>
</g>
<g opacity="0.3">
<path d="M70.7294 53.8608L69.0025 54.8578L72.9455 61.7016L61.1902 58.5517L60.6726 60.4836L72.4279 63.6334L65.5912 67.5887L66.5883 69.3156L76.3862 63.6588L70.7294 53.8608Z" fill="#131411"/>
</g>
<path d="M53.8601 47.2702L54.8571 48.9971L61.7009 45.054L58.551 56.8093L60.4829 57.327L63.6327 45.5717L67.5758 52.4154L69.3149 51.4113L63.6581 41.6134L53.8601 47.2702Z" fill="#323232"/>
</svg>
