<svg width="457" height="93" viewBox="0 0 457 93" fill="none" xmlns="http://www.w3.org/2000/svg">
<path d="M6.96058 89.9077C7.66444 89.2445 8.01637 88.43 8.01637 87.4642C8.01637 86.4983 7.66444 85.6856 6.96058 85.026C6.26058 84.3629 5.40396 84.0313 4.39071 84.0313C3.37746 84.0313 2.5189 84.3629 1.81504 85.026C1.11504 85.6856 0.765048 86.4983 0.765048 87.4642C0.765048 88.43 1.11504 89.2445 1.81504 89.9077C2.5189 90.5672 3.37746 90.897 4.39071 90.897C5.40396 90.897 6.26058 90.5672 6.96058 89.9077ZM7.37825 84.6422C8.19814 85.4171 8.60808 86.3577 8.60808 87.4642C8.60808 88.5706 8.19814 89.5112 7.37825 90.2861C6.55837 91.061 5.56252 91.4484 4.39071 91.4484C3.22663 91.4484 2.23272 91.061 1.40897 90.2861C0.585215 89.5112 0.17334 88.5706 0.17334 87.4642C0.17334 86.3577 0.585215 85.4171 1.40897 84.6422C2.23272 83.8674 3.22663 83.4799 4.39071 83.4799C5.56252 83.4799 6.55837 83.8674 7.37825 84.6422Z" fill="#565656"/>
<path d="M10.158 90.7889H10.6337C10.6724 90.76 10.7246 90.7096 10.7903 90.6375C10.8599 90.5654 10.9798 90.3942 11.15 90.1239C11.3202 89.85 11.471 89.5455 11.6025 89.2103C11.734 88.8751 11.8519 88.412 11.9563 87.821C12.0646 87.2299 12.1188 86.5938 12.1188 85.9126V83.588H17.0497V90.7889H18.1171V92.9999H17.5254V91.3403H10.7497V92.9999H10.158V90.7889ZM12.7105 85.9126C12.7105 86.5758 12.6621 87.1957 12.5655 87.7723C12.4726 88.3489 12.3605 88.8157 12.229 89.1725C12.1014 89.5257 11.9699 89.8302 11.8345 90.0861C11.6992 90.3384 11.5831 90.5204 11.4865 90.6321L11.3472 90.7889H16.4522V84.1449H12.7105V85.9126Z" fill="#565656"/>
<path d="M20.92 91.3403V83.588H21.5175V87.1344H26.5645V83.588H27.1562V91.3403H26.5645V87.6858H21.5175V91.3403H20.92Z" fill="#565656"/>
<path d="M35.4295 88.5183L33.5848 84.3665L31.7459 88.5183H35.4295ZM35.6674 89.0698H31.508L30.4986 91.3403H29.8431L33.2889 83.588H33.8865L37.3265 91.3403H36.6768L35.6674 89.0698Z" fill="#565656"/>
<path d="M43.9244 90.2861C43.1006 89.5112 42.6888 88.5706 42.6888 87.4642C42.6888 86.3577 43.1006 85.4171 43.9244 84.6422C44.7481 83.8674 45.7421 83.4799 46.9061 83.4799C47.3277 83.4799 47.7318 83.5376 48.1186 83.6529C48.5053 83.7646 48.8244 83.9034 49.0757 84.0692C49.331 84.2314 49.5534 84.3935 49.7429 84.5557C49.9362 84.7179 50.0754 84.8531 50.1605 84.9612L50.294 85.1396L49.8763 85.4747C49.8531 85.4387 49.8144 85.3864 49.7603 85.318C49.71 85.2495 49.594 85.1324 49.4122 84.9666C49.2304 84.8008 49.0313 84.6566 48.8147 84.5341C48.602 84.408 48.3235 84.2926 47.9793 84.1881C47.6351 84.0836 47.2774 84.0313 46.9061 84.0313C45.8929 84.0313 45.0343 84.3629 44.3305 85.026C43.6305 85.6856 43.2805 86.4983 43.2805 87.4642C43.2805 88.43 43.6305 89.2445 44.3305 89.9077C45.0343 90.5672 45.8929 90.897 46.9061 90.897C47.2851 90.897 47.6467 90.8483 47.9909 90.751C48.3351 90.6501 48.6194 90.5294 48.8437 90.3888C49.0719 90.2483 49.271 90.1077 49.4412 89.9672C49.6114 89.8266 49.7371 89.7095 49.8183 89.6158L49.9343 89.459L50.352 89.7888C50.321 89.832 50.2727 89.8915 50.2069 89.9672C50.1451 90.0428 50.0039 90.1762 49.7835 90.3672C49.5669 90.5582 49.3348 90.7276 49.0873 90.8754C48.8437 91.0231 48.5227 91.1565 48.1244 91.2754C47.7299 91.3907 47.3238 91.4484 46.9061 91.4484C45.7421 91.4484 44.7481 91.061 43.9244 90.2861Z" fill="#565656"/>
<path d="M59.5071 83.588V91.3403H58.9154V84.1449H53.8685V91.3403H53.271V83.588H59.5071Z" fill="#565656"/>
<path d="M67.7805 88.5183L65.9357 84.3665L64.0968 88.5183H67.7805ZM68.0183 89.0698H63.8589L62.8496 91.3403H62.194L65.6399 83.588H66.2374L69.6774 91.3403H69.0277L68.0183 89.0698Z" fill="#565656"/>
<path d="M78.4206 83.588V91.3403H77.8231V84.1449H73.8436V85.9126C73.8436 87.0335 73.7895 87.9741 73.6812 88.7346C73.5768 89.4914 73.4201 90.0609 73.2113 90.4429C73.0063 90.8213 72.7859 91.0844 72.55 91.2322C72.3141 91.3763 72.0337 91.4484 71.7088 91.4484C71.6044 91.4484 71.4922 91.4376 71.3724 91.416C71.2563 91.3943 71.1655 91.3727 71.0997 91.3511L70.9953 91.3187V90.7889C71.2312 90.8609 71.4478 90.897 71.645 90.897C71.8732 90.897 72.0743 90.8339 72.2483 90.7078C72.4262 90.5816 72.5964 90.351 72.7588 90.0158C72.9212 89.6806 73.0431 89.1689 73.1243 88.4805C73.2094 87.7885 73.2519 86.9326 73.2519 85.9126V83.588H78.4206Z" fill="#565656"/>
<path d="M85.0871 91.3403H82.117V83.588H82.7145V86.5776H85.0871C85.8567 86.5776 86.4948 86.8064 87.0015 87.2641C87.5081 87.7218 87.7614 88.2877 87.7614 88.9616C87.7614 89.632 87.5081 90.196 87.0015 90.6537C86.4948 91.1114 85.8567 91.3403 85.0871 91.3403ZM82.7145 90.7889H85.0871C85.7059 90.7889 86.2067 90.6177 86.5896 90.2753C86.9763 89.9293 87.1697 89.4914 87.1697 88.9616C87.1697 88.4282 86.9763 87.9903 86.5896 87.648C86.2067 87.3056 85.7059 87.1344 85.0871 87.1344H82.7145V90.7889Z" fill="#565656"/>
<path d="M90.8544 91.3403V83.588H91.4519V87.1344H96.4989V83.588H97.0906V91.3403H96.4989V87.6858H91.4519V91.3403H90.8544Z" fill="#565656"/>
<path d="M102.869 83.588H106.014V91.3403H105.422V88.1291H102.748L100.787 91.3403H100.137L102.156 88.021C102.11 88.0138 102.044 87.9994 101.959 87.9777C101.877 87.9525 101.729 87.8894 101.512 87.7885C101.299 87.684 101.114 87.5597 100.955 87.4155C100.797 87.2713 100.65 87.0605 100.514 86.783C100.379 86.5055 100.311 86.1973 100.311 85.8586C100.311 85.2171 100.553 84.6783 101.036 84.2422C101.524 83.8061 102.135 83.588 102.869 83.588ZM105.422 84.1449H102.869C102.282 84.1449 101.808 84.3052 101.448 84.626C101.089 84.9468 100.909 85.3594 100.909 85.864C100.909 86.3649 101.089 86.7758 101.448 87.0966C101.808 87.4173 102.282 87.5777 102.869 87.5777H105.422V84.1449Z" fill="#565656"/>
<path d="M36.4749 15.5589L43.7433 0H41.3935L34.145 15.5589H36.4749Z" fill="#D8D8D8"/>
<path fill-rule="evenodd" clip-rule="evenodd" d="M52.7458 77.0104L50.3173 77.5008H67.5032L66.1428 77.0184C65.0683 76.548 64.1071 75.8817 63.3165 75.0592C62.5259 74.2367 61.9221 73.2748 61.5412 72.2311C58.5626 66.0242 53.722 55.9538 49.3019 46.7582C44.2213 36.1884 39.6963 26.7745 39.1935 25.7128C38.7621 24.8019 38.3349 23.9457 37.9215 23.1173C37.434 22.1401 36.9657 21.2015 36.5326 20.2576V20.1091H26.7892V20.6101C27.9407 20.7865 28.99 21.3294 29.7568 22.1455C30.5235 22.9616 30.9598 23.9999 30.9907 25.0819V25.3417C31.0006 25.521 31.0006 25.7006 30.9907 25.8798C30.9474 26.4185 30.7839 26.943 30.5105 27.4199L25.9489 36.9574C23.0079 43.1549 19.9469 49.5565 16.8858 55.8467L15.8254 58.0177C15.0008 59.745 14.156 61.463 13.3125 63.1783C12.969 63.8768 12.6258 64.5748 12.2842 65.2728C11.9044 66.0515 11.5246 66.8857 11.1448 67.72L11.1438 67.7221L10.8037 68.5015C10.5036 69.188 10.1835 69.8931 9.80339 70.5611C9.16064 72.114 8.12868 73.5028 6.7928 74.6127C5.45692 75.7226 3.85549 76.5218 2.12075 76.9442L0 77.4451H16.3056V76.9442C15.408 76.9572 14.5194 76.7762 13.7103 76.4154C12.9012 76.0547 12.1937 75.5242 11.644 74.866C11.3479 74.2822 11.2044 73.642 11.2253 72.9971C11.2461 72.3523 11.4307 71.7211 11.7641 71.1549L16.5657 61.135C16.6241 61.0375 16.6689 60.94 16.7119 60.8462C16.7426 60.7793 16.7725 60.7143 16.8058 60.6526C16.8335 60.6012 16.8732 60.532 16.9182 60.4535C17.0033 60.3053 17.1074 60.1238 17.1859 59.966C17.377 59.7194 17.6217 59.5127 17.9043 59.3593C18.1869 59.2059 18.5011 59.1091 18.8265 59.0753H46.476C46.8014 59.1091 47.1155 59.2059 47.3981 59.3593C47.6807 59.5127 47.9255 59.7194 48.1165 59.966L48.2766 60.2814C48.5767 60.8752 48.8568 61.4504 49.1169 62.0442C50.6174 65.143 52.1979 68.5571 54.1186 72.7692C54.571 73.573 54.7456 74.4865 54.6188 75.3855C54.4549 75.7728 54.1988 76.1207 53.8697 76.4034C53.5477 76.6801 53.1639 76.8873 52.7458 77.0104ZM46.2324 57.0349C46.3055 56.9994 46.3684 56.9483 46.416 56.8858L46.516 56.7188C46.5511 56.6557 46.5694 56.5857 46.5694 56.5147C46.5694 56.4437 46.5511 56.3737 46.516 56.3106C45.6436 54.4858 44.6735 52.4603 43.6621 50.3485C41.4032 45.632 38.938 40.4845 36.8927 36.178L33.1714 28.4776C33.1343 28.3999 33.0719 28.3349 32.993 28.2916C32.9141 28.2484 32.8226 28.2291 32.7313 28.2364C32.6382 28.2332 32.5462 28.2564 32.4676 28.3028C32.3891 28.3492 32.3275 28.4166 32.2911 28.4961L18.7865 56.459C18.7512 56.5254 18.7328 56.5985 18.7328 56.6725C18.7328 56.7465 18.7512 56.8195 18.7865 56.8858C18.8266 56.9505 18.8852 57.0038 18.9558 57.0398C19.0263 57.0758 19.1062 57.0931 19.1866 57.0899H45.9958C46.0783 57.0892 46.1594 57.0704 46.2324 57.0349Z" fill="#D8D8D8"/>
<path d="M78.8054 77.501C82.0973 76.9796 86.0423 75.9074 87.9418 72.8083C88.6284 71.6881 88.9717 69.9278 88.9717 67.5274C88.9717 56.1759 88.9717 44.8244 88.9717 33.4729C88.9717 29.1754 84.5861 26.2713 80.6296 27.9489L78.8452 28.7054L78.3037 27.4302L94.5075 20.1303L95.2799 20.634V67.5274C95.2799 70.0078 95.5803 71.8081 96.1811 72.9284C97.9119 76.1555 102.392 76.6102 105.575 77.501H78.8054Z" fill="#D8D8D8"/>
<path d="M258.476 59.6535C263.444 55.1078 267.022 51.0323 269.211 47.4271C271.4 43.8219 272.495 40.1775 272.495 36.494C272.495 32.3402 271.274 29.0876 268.832 26.7364C266.39 24.3852 262.896 23.2096 258.35 23.2096C249.425 23.2096 243.598 27.6769 240.82 37.3169H239.28L244.192 19.8784C244.192 19.8784 244.009 23.7974 247.489 23.7974C248.415 23.7974 249.762 23.4839 251.53 22.8569C253.635 22.2299 255.403 21.7989 256.834 21.5637C258.266 21.2502 259.95 21.0935 261.886 21.0935C267.274 21.0935 271.568 22.4258 274.768 25.0906C278.051 27.7553 279.693 31.2429 279.693 35.5535C279.693 38.7668 278.641 42.0585 276.536 45.4286C274.431 48.7203 270.577 52.4689 266.306 56.5969C259.039 63.6221 247.428 72.7027 247.428 72.7027C255.64 72.7027 265.199 72.7027 269.665 72.7027C276.753 72.7027 278.965 70.8327 281.112 64.7086C281.112 68.9455 281.112 77.5008 281.112 77.5008H235.75C235.75 77.5008 254.177 63.5199 258.476 59.6535Z" fill="#D8D8D8"/>
<path d="M204.182 15.5589L211.45 6.10352e-05H209.101L201.852 15.5589H204.182Z" fill="#D8D8D8"/>
<path fill-rule="evenodd" clip-rule="evenodd" d="M220.453 77.0105L218.024 77.5009H235.21L233.85 77.0185C232.775 76.5481 231.814 75.8818 231.024 75.0592C230.233 74.2367 229.629 73.2749 229.248 72.2311C226.27 66.0243 221.429 55.9538 217.009 46.7582C211.928 36.1884 207.403 26.7746 206.901 25.7129C206.469 24.802 206.042 23.9457 205.629 23.1173C205.141 22.1401 204.673 21.2016 204.24 20.2576V20.1092H194.496V20.6101C195.648 20.7866 196.697 21.3295 197.464 22.1456C198.231 22.9616 198.667 23.9999 198.698 25.082V25.3418C198.708 25.521 198.708 25.7007 198.698 25.8799C198.654 26.4186 198.491 26.943 198.218 27.42L193.656 36.9575C190.715 43.1549 187.654 49.5565 184.593 55.8468L183.532 58.0177C182.708 59.7451 181.863 61.4631 181.02 63.1784C180.676 63.8769 180.333 64.5749 179.991 65.2729C179.611 66.0516 179.232 66.8858 178.852 67.7201L178.851 67.7222L178.511 68.5016C178.211 69.1881 177.891 69.8932 177.51 70.5612C176.868 72.1141 175.836 73.5028 174.5 74.6127C173.164 75.7226 171.563 76.5218 169.828 76.9442L167.707 77.4452H184.013V76.9442C183.115 76.9572 182.226 76.7762 181.417 76.4155C180.608 76.0548 179.901 75.5243 179.351 74.866C179.055 74.2823 178.911 73.642 178.932 72.9972C178.953 72.3524 179.138 71.7212 179.471 71.155L184.273 61.1351C184.331 61.0376 184.376 60.9401 184.419 60.8463C184.45 60.7794 184.48 60.7144 184.513 60.6526C184.541 60.6012 184.58 60.5321 184.625 60.4536C184.71 60.3053 184.814 60.1238 184.893 59.9661C185.084 59.7195 185.329 59.5128 185.611 59.3593C185.894 59.2059 186.208 59.1092 186.534 59.0754H214.183C214.508 59.1092 214.823 59.2059 215.105 59.3593C215.388 59.5128 215.633 59.7195 215.824 59.9661L215.984 60.2815C216.284 60.8753 216.564 61.4505 216.824 62.0443C218.324 65.143 219.905 68.5572 221.826 72.7693C222.278 73.5731 222.453 74.4865 222.326 75.3856C222.162 75.7729 221.906 76.1208 221.577 76.4035C221.255 76.6801 220.871 76.8874 220.453 77.0105ZM213.939 57.0349C214.013 56.9994 214.075 56.9484 214.123 56.8859L214.223 56.7189C214.258 56.6558 214.276 56.5858 214.276 56.5148C214.276 56.4437 214.258 56.3738 214.223 56.3107C213.351 54.4858 212.381 52.4604 211.369 50.3486C209.11 45.632 206.645 40.4845 204.6 36.1781L200.878 28.4776C200.841 28.3999 200.779 28.3349 200.7 28.2917C200.621 28.2484 200.53 28.2291 200.438 28.2364C200.345 28.2333 200.253 28.2565 200.175 28.3028C200.096 28.3492 200.035 28.4166 199.998 28.4962L186.493 56.4591C186.458 56.5255 186.44 56.5985 186.44 56.6725C186.44 56.7465 186.458 56.8195 186.493 56.8859C186.534 56.9506 186.592 57.0039 186.663 57.0399C186.733 57.0758 186.813 57.0931 186.894 57.09H213.703C213.785 57.0893 213.866 57.0704 213.939 57.0349Z" fill="#D8D8D8"/>
<path d="M167.977 90.7889H168.453C168.491 90.7601 168.544 90.7096 168.609 90.6376C168.679 90.5655 168.799 90.3943 168.969 90.124C169.139 89.8501 169.29 89.5455 169.422 89.2104C169.553 88.8752 169.671 88.4121 169.775 87.821C169.884 87.23 169.938 86.5939 169.938 85.9127V83.5881H174.869V90.7889H175.936V93H175.344V91.3403H168.569V93H167.977V90.7889ZM170.53 85.9127C170.53 86.5758 170.481 87.1957 170.384 87.7724C170.292 88.349 170.18 88.8157 170.048 89.1725C169.92 89.5257 169.789 89.8303 169.654 90.0861C169.518 90.3384 169.402 90.5204 169.305 90.6322L169.166 90.7889H174.271V84.1449H170.53V85.9127Z" fill="#565656"/>
<path d="M184.64 87.1885L184.797 87.248C184.867 87.2732 184.986 87.3399 185.157 87.448C185.327 87.5561 185.476 87.6769 185.603 87.8102C185.735 87.9436 185.855 88.1346 185.963 88.3832C186.071 88.6283 186.125 88.895 186.125 89.1833C186.125 89.8032 185.889 90.3186 185.418 90.7295C184.946 91.1367 184.329 91.3403 183.567 91.3403H180.359V83.5881H183.451C184.124 83.5881 184.667 83.7719 185.081 84.1395C185.499 84.5035 185.708 84.9666 185.708 85.5289C185.708 85.7667 185.669 85.9866 185.592 86.1884C185.518 86.3902 185.429 86.5506 185.325 86.6695C185.224 86.7885 185.122 86.8894 185.017 86.9723C184.913 87.0516 184.826 87.1056 184.756 87.1345L184.64 87.1885ZM180.957 90.7889H183.567C184.178 90.7889 184.658 90.6412 185.006 90.3456C185.354 90.0501 185.528 89.6627 185.528 89.1833C185.528 88.6752 185.356 88.2715 185.012 87.9724C184.667 87.6697 184.186 87.5183 183.567 87.5183H180.957V90.7889ZM183.451 84.1449H180.957V86.9669H183.451C183.981 86.9669 184.389 86.8407 184.675 86.5884C184.965 86.3326 185.11 85.9794 185.11 85.5289C185.11 85.1072 184.963 84.772 184.669 84.5233C184.379 84.2711 183.973 84.1449 183.451 84.1449Z" fill="#565656"/>
<path d="M191.5 90.7889H196.605V91.3403H190.902V83.5881H196.489V84.1449H191.5V87.0209H195.537V87.5777H191.5V90.7889Z" fill="#565656"/>
<path d="M206.623 90.2862C205.799 89.5113 205.387 88.5707 205.387 87.4642C205.387 86.3578 205.799 85.4171 206.623 84.6423C207.446 83.8674 208.44 83.48 209.604 83.48C210.026 83.48 210.43 83.5376 210.817 83.653C211.204 83.7647 211.523 83.9035 211.774 84.0692C212.029 84.2314 212.252 84.3936 212.441 84.5558C212.634 84.718 212.774 84.8531 212.859 84.9612L212.992 85.1396L212.575 85.4748C212.551 85.4388 212.513 85.3865 212.459 85.318C212.408 85.2496 212.292 85.1324 212.11 84.9666C211.929 84.8009 211.73 84.6567 211.513 84.5342C211.3 84.408 211.022 84.2927 210.678 84.1882C210.333 84.0837 209.976 84.0314 209.604 84.0314C208.591 84.0314 207.733 84.363 207.029 85.0261C206.329 85.6856 205.979 86.4983 205.979 87.4642C205.979 88.4301 206.329 89.2446 207.029 89.9077C207.733 90.5673 208.591 90.897 209.604 90.897C209.983 90.897 210.345 90.8484 210.689 90.7511C211.033 90.6502 211.318 90.5294 211.542 90.3889C211.77 90.2483 211.969 90.1078 212.139 89.9672C212.31 89.8267 212.435 89.7095 212.517 89.6158L212.633 89.459L213.05 89.7888C213.019 89.8321 212.971 89.8915 212.905 89.9672C212.843 90.0429 212.702 90.1762 212.482 90.3673C212.265 90.5583 212.033 90.7277 211.786 90.8754C211.542 91.0232 211.221 91.1565 210.823 91.2755C210.428 91.3908 210.022 91.4485 209.604 91.4485C208.44 91.4485 207.446 91.061 206.623 90.2862Z" fill="#565656"/>
<path d="M223.825 83.5881V91.3403H223.234V84.1449H218.187V91.3403H217.589V83.5881H223.825Z" fill="#565656"/>
<path d="M233.719 88.5184L231.874 84.3666L230.035 88.5184H233.719ZM233.957 89.0698H229.797L228.788 91.3403H228.132L231.578 83.5881H232.176L235.616 91.3403H234.966L233.957 89.0698Z" fill="#565656"/>
<path d="M245.979 83.5881V91.3403H245.382V84.1449H241.402V85.9127C241.402 87.0335 241.348 87.9742 241.24 88.7346C241.135 89.4915 240.979 90.0609 240.77 90.4429C240.565 90.8214 240.344 91.0845 240.108 91.2322C239.873 91.3764 239.592 91.4485 239.267 91.4485C239.163 91.4485 239.051 91.4377 238.931 91.416C238.815 91.3944 238.724 91.3728 238.658 91.3512L238.554 91.3187V90.7889C238.79 90.861 239.006 90.897 239.203 90.897C239.432 90.897 239.633 90.834 239.807 90.7078C239.985 90.5817 240.155 90.351 240.317 90.0159C240.48 89.6807 240.602 89.1689 240.683 88.4806C240.768 87.7886 240.81 86.9326 240.81 85.9127V83.5881H245.979Z" fill="#565656"/>
<path d="M254.266 91.3403H251.296V83.5881H251.893V86.5776H254.266C255.035 86.5776 255.673 86.8065 256.18 87.2642C256.687 87.7219 256.94 88.2877 256.94 88.9617C256.94 89.632 256.687 90.1961 256.18 90.6538C255.673 91.1115 255.035 91.3403 254.266 91.3403ZM251.893 90.7889H254.266C254.884 90.7889 255.385 90.6177 255.768 90.2754C256.155 89.9294 256.348 89.4915 256.348 88.9617C256.348 88.4283 256.155 87.9904 255.768 87.648C255.385 87.3056 254.884 87.1345 254.266 87.1345H251.893V90.7889Z" fill="#565656"/>
<path d="M261.653 91.3403V83.5881H262.251V87.1345H267.297V83.5881H267.889V91.3403H267.297V87.6859H262.251V91.3403H261.653Z" fill="#565656"/>
<path d="M279.801 91.3403H279.21V84.6423L273.681 91.3403H273.206V83.5881H273.803V90.2862L279.326 83.5881H279.801V91.3403Z" fill="#565656"/>
<path d="M344.663 83.5881H350.719V84.1449H347.987V91.3403H347.395V84.1449H344.663V83.5881Z" fill="#565656"/>
<path d="M354.962 83.5881H357.932C358.702 83.5881 359.34 83.817 359.847 84.2747C360.353 84.7324 360.607 85.2982 360.607 85.9722C360.607 86.6425 360.353 87.2065 359.847 87.6642C359.34 88.122 358.702 88.3508 357.932 88.3508H355.56V91.3403H354.962V83.5881ZM357.932 84.1449H355.56V87.7994H357.932C358.551 87.7994 359.052 87.6282 359.435 87.2858C359.821 86.9398 360.015 86.5019 360.015 85.9722C360.015 85.4388 359.821 85.0009 359.435 84.6585C359.052 84.3161 358.551 84.1449 357.932 84.1449Z" fill="#565656"/>
<path d="M371.857 91.3403H371.266V84.6423L365.737 91.3403H365.262V83.5881H365.859V90.2862L371.382 83.5881H371.857V91.3403Z" fill="#565656"/>
<path d="M382.711 90.2862C381.887 89.5113 381.475 88.5707 381.475 87.4642C381.475 86.3578 381.887 85.4171 382.711 84.6423C383.534 83.8674 384.528 83.48 385.692 83.48C386.114 83.48 386.518 83.5376 386.905 83.653C387.292 83.7647 387.611 83.9035 387.862 84.0692C388.117 84.2314 388.34 84.3936 388.529 84.5558C388.723 84.718 388.862 84.8531 388.947 84.9612L389.08 85.1396L388.663 85.4748C388.639 85.4388 388.601 85.3865 388.547 85.318C388.496 85.2496 388.38 85.1324 388.198 84.9666C388.017 84.8009 387.818 84.6567 387.601 84.5342C387.388 84.408 387.11 84.2927 386.766 84.1882C386.421 84.0837 386.064 84.0314 385.692 84.0314C384.679 84.0314 383.821 84.363 383.117 85.0261C382.417 85.6856 382.067 86.4983 382.067 87.4642C382.067 88.4301 382.417 89.2446 383.117 89.9077C383.821 90.5673 384.679 90.897 385.692 90.897C386.071 90.897 386.433 90.8484 386.777 90.7511C387.121 90.6502 387.406 90.5294 387.63 90.3889C387.858 90.2483 388.057 90.1078 388.227 89.9672C388.398 89.8267 388.523 89.7095 388.605 89.6158L388.721 89.459L389.138 89.7888C389.107 89.8321 389.059 89.8915 388.993 89.9672C388.931 90.0429 388.79 90.1762 388.57 90.3673C388.353 90.5583 388.121 90.7277 387.874 90.8754C387.63 91.0232 387.309 91.1565 386.911 91.2755C386.516 91.3908 386.11 91.4485 385.692 91.4485C384.528 91.4485 383.534 91.061 382.711 90.2862Z" fill="#565656"/>
<path d="M399.913 83.5881V91.3403H399.322V84.1449H394.275V91.3403H393.677V83.5881H399.913Z" fill="#565656"/>
<path d="M409.807 88.5184L407.962 84.3666L406.123 88.5184H409.807ZM410.045 89.0698H405.885L404.876 91.3403H404.22L407.666 83.5881H408.264L411.704 91.3403H411.054L410.045 89.0698Z" fill="#565656"/>
<path d="M422.067 83.5881V91.3403H421.47V84.1449H417.49V85.9127C417.49 87.0335 417.436 87.9742 417.328 88.7346C417.223 89.4915 417.067 90.0609 416.858 90.4429C416.653 90.8214 416.432 91.0845 416.197 91.2322C415.961 91.3764 415.68 91.4485 415.355 91.4485C415.251 91.4485 415.139 91.4377 415.019 91.416C414.903 91.3944 414.812 91.3728 414.746 91.3512L414.642 91.3187V90.7889C414.878 90.861 415.094 90.897 415.292 90.897C415.52 90.897 415.721 90.834 415.895 90.7078C416.073 90.5817 416.243 90.351 416.405 90.0159C416.568 89.6807 416.69 89.1689 416.771 88.4806C416.856 87.7886 416.898 86.9326 416.898 85.9127V83.5881H422.067Z" fill="#565656"/>
<path d="M430.354 91.3403H427.384V83.5881H427.981V86.5776H430.354C431.123 86.5776 431.761 86.8065 432.268 87.2642C432.775 87.7219 433.028 88.2877 433.028 88.9617C433.028 89.632 432.775 90.1961 432.268 90.6538C431.761 91.1115 431.123 91.3403 430.354 91.3403ZM427.981 90.7889H430.354C430.972 90.7889 431.473 90.6177 431.856 90.2754C432.243 89.9294 432.436 89.4915 432.436 88.9617C432.436 88.4283 432.243 87.9904 431.856 87.648C431.473 87.3056 430.972 87.1345 430.354 87.1345H427.981V90.7889Z" fill="#565656"/>
<path d="M437.741 91.3403V83.5881H438.339V87.1345H443.386V83.5881H443.977V91.3403H443.386V87.6859H438.339V91.3403H437.741Z" fill="#565656"/>
<path d="M455.889 91.3403H455.298V84.6423L449.769 91.3403H449.294V83.5881H449.891V90.2862L455.414 83.5881H455.889V91.3403Z" fill="#565656"/>
<path d="M438.492 47.0031C443.724 47.3073 447.965 48.7673 451.216 51.3833C454.545 53.9992 456.21 57.3147 456.21 61.3299C456.21 64.6758 455.061 67.6872 452.762 70.3639C450.463 72.9799 447.291 75.0483 443.248 76.5692C439.284 78.0292 434.884 78.7592 430.048 78.7592C423.799 78.7592 418.115 77.4505 412.468 74.9849L410.308 63.6112C410.308 63.6112 414.63 71.3871 419.465 74.1966C423.9 76.7736 427.749 77.2992 432.427 77.2992C438.056 77.2992 442.178 75.9304 444.794 73.1928C447.49 70.4552 448.837 67.0484 448.837 62.9724C448.837 58.0448 446.974 54.3338 443.248 51.8395C439.601 49.2844 434.329 48.0069 427.432 48.0069C427.115 48.0069 426.957 47.8244 426.957 47.4594C426.957 47.0944 427.115 46.9119 427.432 46.9119C433.775 46.9119 438.531 45.756 441.702 43.4442C444.873 41.1325 446.459 37.9995 446.459 34.0452C446.459 30.0908 445.032 26.897 442.178 24.4636C439.403 22.0301 435.756 20.8134 431.238 20.8134C421.861 20.8134 416.883 27.0886 412.211 33.8626L414.351 22.7297C414.351 22.7297 427.883 19.6271 432.902 19.6271C439.324 19.6271 444.279 20.8438 447.767 23.2773C451.255 25.6499 453 28.6004 453 32.1288C453 35.4748 451.533 38.5166 448.6 41.2542C445.666 43.9918 442.297 45.9081 438.492 47.0031Z" fill="#D8D8D8"/>
<path d="M379.28 15.5589L386.548 6.10352e-05H384.198L376.95 15.5589H379.28Z" fill="#D8D8D8"/>
<path fill-rule="evenodd" clip-rule="evenodd" d="M395.55 77.0105L393.122 77.5009H410.308L408.947 77.0185C407.873 76.5481 406.912 75.8818 406.121 75.0592C405.331 74.2367 404.727 73.2749 404.346 72.2311C401.367 66.0243 396.527 55.9538 392.107 46.7582C387.026 36.1884 382.501 26.7746 381.998 25.7129C381.567 24.802 381.14 23.9457 380.726 23.1173C380.239 22.1401 379.77 21.2016 379.337 20.2576V20.1092H369.594V20.6101C370.745 20.7866 371.795 21.3295 372.561 22.1456C373.328 22.9616 373.764 23.9999 373.795 25.082V25.3418C373.805 25.521 373.805 25.7007 373.795 25.8799C373.752 26.4186 373.589 26.943 373.315 27.42L368.754 36.9575C365.813 43.1549 362.752 49.5565 359.69 55.8468L358.63 58.0177C357.806 59.7451 356.961 61.4631 356.117 63.1784C355.774 63.8769 355.43 64.5749 355.089 65.2729C354.709 66.0516 354.329 66.8858 353.95 67.7201L353.949 67.7222L353.608 68.5016C353.308 69.1881 352.988 69.8932 352.608 70.5612C351.965 72.1141 350.933 73.5028 349.597 74.6127C348.262 75.7226 346.66 76.5218 344.925 76.9442L342.805 77.4452H359.11V76.9442C358.213 76.9572 357.324 76.7762 356.515 76.4155C355.706 76.0548 354.998 75.5243 354.449 74.866C354.153 74.2823 354.009 73.642 354.03 72.9972C354.051 72.3524 354.235 71.7212 354.569 71.155L359.37 61.1351C359.429 61.0376 359.474 60.9401 359.517 60.8463C359.547 60.7794 359.577 60.7144 359.61 60.6526C359.638 60.6012 359.678 60.5321 359.723 60.4536C359.808 60.3053 359.912 60.1238 359.991 59.9661C360.182 59.7195 360.426 59.5128 360.709 59.3593C360.992 59.2059 361.306 59.1092 361.631 59.0754H389.281C389.606 59.1092 389.92 59.2059 390.203 59.3593C390.485 59.5128 390.73 59.7195 390.921 59.9661L391.081 60.2815C391.381 60.8753 391.661 61.4505 391.922 62.0443C393.422 65.143 395.003 68.5572 396.923 72.7693C397.376 73.5731 397.55 74.4865 397.423 75.3856C397.26 75.7729 397.003 76.1208 396.674 76.4035C396.352 76.6801 395.969 76.8874 395.55 77.0105ZM389.037 57.0349C389.11 56.9994 389.173 56.9484 389.221 56.8859L389.321 56.7189C389.356 56.6558 389.374 56.5858 389.374 56.5148C389.374 56.4437 389.356 56.3738 389.321 56.3107C388.448 54.4858 387.478 52.4604 386.467 50.3486C384.208 45.632 381.743 40.4845 379.697 36.1781L375.976 28.4776C375.939 28.3999 375.877 28.3349 375.798 28.2917C375.719 28.2484 375.627 28.2291 375.536 28.2364C375.443 28.2333 375.351 28.2565 375.272 28.3028C375.194 28.3492 375.132 28.4166 375.096 28.4962L361.591 56.4591C361.556 56.5255 361.538 56.5985 361.538 56.6725C361.538 56.7465 361.556 56.8195 361.591 56.8859C361.631 56.9506 361.69 57.0039 361.76 57.0399C361.831 57.0758 361.911 57.0931 361.991 57.09H388.801C388.883 57.0893 388.964 57.0704 389.037 57.0349Z" fill="#D8D8D8"/>
</svg>
