<svg width="1526" height="231" viewBox="0 0 1526 231" fill="none" xmlns="http://www.w3.org/2000/svg">
<g clip-path="url(#clip0_532_5102)">
<path d="M410.122 146.562C400.537 136.089 387.945 129.116 374.227 126.684L370.6 125.798L375.027 124.359C381.167 122.498 386.932 119.496 392.041 115.5C395.462 112.675 398.147 109.006 399.852 104.828C401.556 100.651 402.227 96.0962 401.802 91.5803C401.587 86.6393 400.193 81.8312 397.744 77.5883C395.295 73.3455 391.869 69.8008 387.774 67.2732C381.052 63.0562 373.471 60.5341 365.639 59.9092H354.172H279.5L282.433 61.2934C285.337 62.8163 287.725 65.222 289.279 68.1897C290.832 71.1574 291.477 74.5462 291.127 77.9041C291.127 122.199 291.394 170.149 291.394 207.191C291.394 215.386 291.394 224.577 281.847 229.892L279.34 231.277H282.113C282.113 231.277 294.541 231.277 309.742 231.277C326.17 231.277 346.171 231.277 358.599 230.723C369.601 230.299 380.495 228.306 390.974 224.798C398.218 222.311 404.736 217.96 409.921 212.15C415.107 206.341 418.791 199.263 420.63 191.577C422.688 183.764 422.804 175.536 420.967 167.663C419.129 159.791 415.398 152.53 410.122 146.562ZM308.782 118.268C308.782 112.731 308.782 107.471 308.782 102.211V69.7649C308.782 66.8857 309.262 65.5013 312.249 65.5013H354.598C361.515 65.4283 368.212 68.0204 373.394 72.7761C378.576 77.5319 381.875 84.1134 382.654 91.2481V91.1927C383.667 104.094 379.454 114.171 371.24 118.877C364.988 121.488 358.295 122.769 351.558 122.642H312.195C309.262 122.642 308.782 121.313 308.729 118.656L308.782 118.268ZM402.548 185.043C400.895 201.654 397.215 212.728 382.28 219.926L381.374 220.424C371.672 223.274 361.684 224.946 351.612 225.407H311.715C309.369 225.407 308.729 224.189 308.782 220.812V217.047C308.782 207.8 308.782 198.387 308.782 189.362V168.156C308.782 157.912 308.782 147.337 308.782 137.149V132.886C308.621 131.712 308.908 130.52 309.582 129.563C309.952 129.249 310.378 129.015 310.836 128.872C311.293 128.729 311.773 128.682 312.249 128.733H351.078C361.431 129.182 371.613 131.622 381.107 135.931C394.921 142.077 402.975 157.58 402.975 177.292C402.963 179.918 402.821 182.543 402.548 185.154" fill="#131411"/>
<path d="M141.57 229.616L134.956 231.111H180.773L177.146 229.672C174.282 228.268 171.719 226.28 169.611 223.825C167.504 221.371 165.894 218.501 164.878 215.386C147.81 175.576 107.808 82.5004 105.301 76.5759C102.794 70.6514 100.34 65.5022 98.207 60.2975V59.8545H72.2318V61.3494C75.3016 61.8759 78.099 63.4959 80.1431 65.9311C82.1871 68.3663 83.3503 71.4645 83.4326 74.6934V75.4686C83.4592 76.0035 83.4592 76.5395 83.4326 77.0744C83.3174 78.6818 82.8814 80.2467 82.1525 81.6699L69.9916 110.13C62.1511 128.623 53.9905 147.725 45.83 166.495L43.0031 172.974C39.9096 180.227 36.7093 187.425 33.5624 194.623C32.549 196.948 31.5357 199.44 30.5223 201.932L29.6155 204.257C28.8155 206.306 27.9621 208.41 26.9487 210.403C25.2352 215.037 22.484 219.181 18.9227 222.493C15.3613 225.805 11.092 228.19 6.46727 229.45L0.813477 230.945H44.2832V229.45C41.8902 229.489 39.5213 228.949 37.3642 227.872C35.2071 226.796 33.3212 225.213 31.8557 223.249C31.0662 221.507 30.6837 219.596 30.7393 217.672C30.7949 215.748 31.287 213.865 32.1757 212.175L43.9098 184.767L44.9766 182.276C45.2432 181.777 45.4033 181.279 45.6167 180.836C45.83 180.393 46.31 179.507 46.6301 178.787C47.1395 178.052 47.7919 177.435 48.5452 176.977C49.2986 176.519 50.1361 176.23 51.0037 176.13C51.8037 176.13 52.7104 176.13 53.5638 176.13H122.102C123.062 176.13 123.915 176.13 124.716 176.13C125.583 176.23 126.42 176.519 127.174 176.977C127.927 177.435 128.58 178.052 129.089 178.787L129.516 179.729C130.316 181.5 131.063 183.217 131.756 184.989C135.756 194.235 139.97 204.423 145.09 216.992C146.296 219.391 146.762 222.116 146.424 224.799C145.987 225.955 145.304 226.993 144.427 227.837C143.549 228.68 142.5 229.308 141.357 229.672M124.556 169.596C124.429 169.783 124.261 169.935 124.066 170.041C123.871 170.147 123.655 170.203 123.435 170.205H51.9638C51.7493 170.215 51.5364 170.163 51.3483 170.056C51.1603 169.948 51.0041 169.789 50.897 169.596C50.8029 169.398 50.754 169.18 50.754 168.959C50.754 168.739 50.8029 168.521 50.897 168.323L86.8995 84.8813C86.9965 84.644 87.1606 84.4428 87.3701 84.3044C87.5797 84.166 87.8247 84.0969 88.0729 84.1062C88.3163 84.0844 88.5603 84.1421 88.7706 84.2711C88.981 84.4001 89.1473 84.5942 89.2463 84.826L99.167 107.804C107.061 126.408 117.302 150.272 124.822 167.88C124.916 168.068 124.965 168.277 124.965 168.489C124.965 168.701 124.916 168.909 124.822 169.098" fill="#131411"/>
<path d="M1406.72 209.074C1406.72 170.869 1406.72 80.7282 1406.72 78.1258C1406.94 75.3445 1406.53 72.5488 1405.52 69.9626C1404.51 67.3763 1402.93 65.0712 1400.91 63.2315C1399.77 62.3493 1398.54 61.606 1397.23 61.0166L1394.08 59.5771H1435.74L1433.02 60.9614C1431.88 61.5571 1430.81 62.2812 1429.82 63.1207C1424.11 67.8824 1424.06 75.0805 1424.06 81.3926C1424.06 120.151 1424.06 195.841 1424.06 199.052V201.931C1424.06 205.53 1424.06 210.347 1424.06 212.341C1423.57 215.884 1424.24 219.496 1425.98 222.591C1427.71 225.686 1430.4 228.084 1433.61 229.394L1436.81 230.834H1395.1L1397.82 229.45C1398.95 228.847 1400.03 228.123 1401.02 227.29C1406.72 222.528 1406.72 215.33 1406.78 209.018" fill="#131411"/>
<path d="M1525.72 152.099C1525.72 153.851 1525.22 155.564 1524.28 157.021C1523.34 158.478 1522.01 159.614 1520.45 160.284C1518.89 160.955 1517.18 161.13 1515.52 160.788C1513.87 160.446 1512.35 159.603 1511.15 158.364C1509.96 157.125 1509.15 155.546 1508.82 153.828C1508.49 152.109 1508.66 150.328 1509.3 148.709C1509.95 147.09 1511.04 145.707 1512.45 144.733C1513.85 143.76 1515.5 143.24 1517.19 143.24C1519.45 143.24 1521.62 144.174 1523.22 145.835C1524.82 147.496 1525.72 149.75 1525.72 152.099Z" fill="#131411"/>
<path d="M1525.72 222.086C1525.72 223.838 1525.22 225.55 1524.28 227.007C1523.34 228.464 1522.01 229.6 1520.45 230.27C1518.89 230.941 1517.18 231.116 1515.52 230.774C1513.87 230.433 1512.35 229.589 1511.15 228.35C1509.96 227.111 1509.15 225.532 1508.82 223.814C1508.49 222.095 1508.66 220.314 1509.3 218.695C1509.95 217.077 1511.04 215.693 1512.45 214.72C1513.85 213.746 1515.5 213.227 1517.19 213.227C1519.45 213.227 1521.62 214.16 1523.22 215.821C1524.82 217.483 1525.72 219.736 1525.72 222.086Z" fill="#131411"/>
<path d="M117.302 0L97.8337 46.1779H91.5933L111.008 0H117.302Z" fill="#131411"/>
<path d="M816.497 230.668C812.253 230.434 808.029 229.897 803.856 229.062C793.703 227.006 784.031 222.926 775.374 217.047C766.617 211.268 759.159 203.602 753.506 194.568C746.774 183.39 742.613 170.753 741.345 157.636C741.078 154.812 740.918 152.099 740.705 149.165C740.705 148.556 740.705 147.947 740.705 147.338V141.025C740.705 140.25 740.705 139.475 740.972 138.7C741.15 134.275 741.649 129.87 742.465 125.522C744.623 114.165 748.998 103.387 755.319 93.8511C760.71 85.5321 767.701 78.4624 775.854 73.0876C787.113 65.7014 799.919 61.2383 813.19 60.0759C815.11 60.0759 822.204 59.6328 823.858 59.6328C825.511 59.6328 830.311 59.6329 832.605 60.0759C836.719 60.4166 840.802 61.0828 844.819 62.0691C856.835 64.7226 868.064 70.3233 877.568 78.403C886.876 86.235 894.2 96.3088 898.903 107.749C902.795 117.655 905.032 128.179 905.517 138.866C905.517 141.192 905.517 143.462 905.517 145.787C905.629 151.35 905.236 156.912 904.343 162.398C902.733 172.476 899.39 182.173 894.476 191.024C890.269 198.594 884.859 205.37 878.475 211.067C870.713 218.017 861.625 223.187 851.806 226.239C847.15 227.849 842.367 229.035 837.512 229.782C830.442 230.763 823.3 231.059 816.177 230.668M886.369 146.562C886.369 142.244 886.049 137.925 885.675 133.606C885.169 128.219 884.313 122.872 883.115 117.604C881.183 108.953 877.98 100.662 873.621 93.0204C869.865 86.4929 864.854 80.8385 858.9 76.4097C850.16 69.8466 839.799 66.0052 829.031 65.3358C824.699 65.0036 820.349 65.0036 816.017 65.3358C811.01 65.711 806.076 66.7915 801.349 68.5473C792.556 71.6748 784.692 77.1111 778.521 84.3276C774.536 89.0411 771.214 94.3166 768.654 99.997C764.715 108.565 762.088 117.719 760.866 127.128C760.193 131.917 759.784 136.742 759.64 141.579C759.281 149.886 759.836 158.208 761.293 166.384C762.921 175.774 765.925 184.849 770.2 193.294C772.899 198.699 776.35 203.661 780.441 208.022C790.528 218.354 804.037 224.296 818.204 224.633C820.337 224.633 822.524 224.633 824.711 224.633C829.139 224.696 833.559 224.232 837.885 223.249C845.855 221.488 853.356 217.935 859.86 212.839C865.081 208.697 869.544 203.614 873.034 197.834C880.086 186.285 884.434 173.182 885.729 159.574C886.237 155.165 886.451 150.725 886.369 146.286" fill="#131411"/>
<path d="M1129.48 75.9109C1120.96 67.1876 1109.89 61.639 1098.01 60.1309C1095.61 59.854 1093.48 59.6325 1091.4 59.5771H1004.72L1007.71 61.0166C1010.38 62.4636 1012.62 64.6537 1014.16 67.3425C1015.71 70.0313 1016.5 73.1129 1016.46 76.2431C1016.78 80.5619 1016.78 84.9915 1016.83 89.3103V120.096C1016.83 149.33 1016.83 179.617 1016.83 207.468V208.077C1016.83 216.438 1016.83 224.356 1007.71 229.505L1005.26 230.889H1046.97L1043.93 229.45C1040.95 228.192 1038.44 225.985 1036.75 223.149C1035.07 220.313 1034.29 216.993 1034.54 213.669C1034.54 202.596 1034.17 189.805 1034.11 177.458C1034.11 169.263 1034.11 161.29 1033.85 153.981C1033.85 151.988 1034.65 150.936 1037.31 150.936H1041.63C1055.23 150.936 1069.21 151.213 1082.92 150.438H1084.84H1085.64C1095.19 149.858 1104.62 147.882 1113.64 144.569C1119.97 142.217 1125.6 138.2 1129.98 132.91C1134.37 127.621 1137.36 121.24 1138.65 114.393C1139.34 111.174 1139.68 107.888 1139.67 104.592C1139.92 94.1583 1136.29 84.0234 1129.53 76.2986M1033.79 74.0284V69.765C1033.79 66.9412 1034.38 65.6678 1037.31 65.6678H1089.16C1094.61 65.5397 1099.99 66.9561 1104.73 69.765C1110 73.2105 1114.26 78.0722 1117.08 83.8339C1119.9 89.5956 1121.16 96.0421 1120.73 102.488C1120.73 108.106 1119.97 113.696 1118.49 119.099C1116.92 125.302 1113.89 131.008 1109.69 135.71C1104.36 141.247 1091.13 144.901 1074.33 144.901H1036.99C1034.06 144.901 1033.47 143.517 1033.42 140.748V134.602C1033.42 133.273 1033.42 132 1033.42 130.727C1033.42 124.304 1033.42 117.825 1033.42 111.403V89.5319C1033.42 84.3825 1033.42 79.2332 1033.42 74.0838" fill="#131411"/>
<path d="M1356.38 176.406C1355.01 169.568 1352.02 163.192 1347.68 157.857C1343.29 152.609 1337.67 148.623 1331.36 146.285C1322.33 142.921 1312.88 140.925 1303.3 140.361H1300.85C1287.14 139.53 1273.12 139.696 1259.62 139.862H1255.46C1252.53 139.862 1251.94 138.81 1251.73 136.817C1251.73 129.508 1251.73 121.535 1251.73 113.34C1251.73 100.993 1251.99 88.2581 1252.21 77.1289C1251.96 73.7987 1252.75 70.4742 1254.44 67.637C1256.14 64.7998 1258.66 62.5973 1261.65 61.3487L1264.64 59.9092H1222.98L1225.43 61.3487C1234.45 66.4426 1234.5 74.3605 1234.55 82.7767V83.3302C1234.55 111.015 1234.55 141.468 1234.55 170.703V201.543C1234.55 205.807 1234.55 210.236 1234.18 214.555C1234.26 217.692 1233.47 220.786 1231.93 223.481C1230.38 226.176 1228.13 228.36 1225.43 229.782L1222.5 231.221H1309.01C1311.26 231.166 1313.5 230.981 1315.73 230.668C1327.62 229.216 1338.69 223.681 1347.2 214.943C1351.54 209.798 1354.63 203.652 1356.22 197.016C1357.8 190.38 1357.84 183.447 1356.32 176.793M1306.82 225.518H1254.98C1252.05 225.518 1251.51 224.189 1251.46 221.476V217.157C1251.46 212.008 1251.46 206.859 1251.46 201.709V179.839C1251.46 173.416 1251.46 166.938 1251.46 160.57C1251.46 159.241 1251.46 157.968 1251.46 156.639V150.493C1251.46 147.725 1252.1 146.34 1255.03 146.34H1292.37C1309.17 146.34 1322.45 149.773 1327.79 155.587C1331.96 160.303 1334.96 166.005 1336.53 172.198C1338 177.605 1338.77 183.191 1338.83 188.808C1339.24 195.26 1337.98 201.709 1335.16 207.477C1332.34 213.246 1328.08 218.119 1322.83 221.587C1318.05 224.345 1312.66 225.74 1307.2 225.629" fill="#131411"/>
<path d="M1023.5 61.0721V59.5771H1045.58V61.0721H1023.5Z" fill="#131411"/>
<path d="M651.366 63.9511V64.2834C651.392 64.5966 651.392 64.9114 651.366 65.2246C651.366 77.3504 651.366 85.9326 651.366 85.9326V87.9814L650.139 86.4311C647.558 82.9656 644.524 79.8906 641.125 77.295C625.764 66.2212 617.124 65.3907 594.455 65.1692C591.095 65.1692 590.775 70.3185 590.775 72.4779V76.3539C590.775 95.9545 590.775 115.611 590.775 135.322C590.775 159.795 590.775 184.342 590.775 208.963C590.775 216.77 590.775 224.854 599.949 229.449L602.723 230.889H562.026L564.8 229.616C573.867 225.02 573.921 216.936 573.974 209.129C573.974 184.545 573.974 159.998 573.974 135.488C573.974 115.777 573.974 96.1206 573.974 76.52V72.644C573.974 70.4846 573.601 65.3353 570.24 65.3353C547.572 65.3353 538.932 66.5534 523.57 77.4611C520.241 80.0226 517.278 83.0613 514.77 86.4863L513.436 88.0367V86.0987C513.436 86.0987 513.436 77.5166 513.436 65.28C513.383 65.0059 513.383 64.7236 513.436 64.4495V64.1726C513.436 59.8538 517.117 59.9092 519.517 59.9092H645.659C648.112 59.9092 650.993 59.9091 651.419 64.1172" fill="#131411"/>
</g>
<defs>
<clipPath id="clip0_532_5102">
<rect width="1525.33" height="231" fill="white" transform="translate(0.333496)"/>
</clipPath>
</defs>
</svg>
