<svg width="768" height="117" viewBox="0 0 768 117" fill="none" xmlns="http://www.w3.org/2000/svg">
<g clip-path="url(#clip0_554_5307)">
<path d="M206.712 73.801C201.897 68.5332 195.57 65.026 188.678 63.8031L186.856 63.3575L189.08 62.6334C192.165 61.6974 195.062 60.1877 197.628 58.1776C199.347 56.7568 200.696 54.9115 201.552 52.8101C202.409 50.7087 202.746 48.418 202.532 46.1466C202.424 43.6614 201.724 41.2431 200.494 39.109C199.263 36.9749 197.542 35.1921 195.485 33.9207C192.107 31.7997 188.298 30.5311 184.364 30.2168H178.603H141.087L142.561 30.913C144.02 31.679 145.22 32.889 146 34.3817C146.78 35.8744 147.105 37.5789 146.929 39.2678C146.929 61.5473 147.063 85.6649 147.063 104.296C147.063 108.418 147.063 113.041 142.266 115.714L141.007 116.41H142.4C142.4 116.41 148.644 116.41 156.281 116.41C164.534 116.41 174.583 116.411 180.827 116.132C186.355 115.919 191.828 114.916 197.092 113.152C200.731 111.901 204.006 109.712 206.612 106.791C209.217 103.869 211.068 100.309 211.991 96.4425C213.026 92.5126 213.084 88.3742 212.161 84.4145C211.237 80.4548 209.363 76.8031 206.712 73.801ZM155.799 59.57C155.799 56.7851 155.799 54.1393 155.799 51.4937V35.174C155.799 33.7258 156.04 33.0295 157.54 33.0295H178.817C182.292 32.9928 185.656 34.2966 188.26 36.6886C190.863 39.0806 192.521 42.391 192.912 45.9795V45.9517C193.421 52.4406 191.304 57.5091 187.178 59.8763C184.037 61.1896 180.674 61.8336 177.29 61.7701H157.514C156.04 61.7701 155.799 61.1017 155.772 59.7649L155.799 59.57ZM202.907 93.1563C202.077 101.511 200.228 107.081 192.725 110.701L192.269 110.952C187.395 112.385 182.377 113.227 177.316 113.458H157.272C156.093 113.458 155.772 112.846 155.799 111.147V109.253C155.799 104.602 155.799 99.868 155.799 95.3286V84.6622C155.799 79.5101 155.799 74.1909 155.799 69.0666V66.9222C155.718 66.3321 155.862 65.7324 156.201 65.2512C156.386 65.0933 156.6 64.9752 156.83 64.9035C157.06 64.8318 157.302 64.808 157.54 64.8335H177.048C182.25 65.0593 187.365 66.2868 192.135 68.4539C199.075 71.5452 203.122 79.343 203.122 89.2574C203.116 90.5785 203.044 91.8985 202.907 93.212" fill="#131411"/>
<path d="M71.7908 115.576L68.468 116.327H91.4864L89.6643 115.603C88.2252 114.898 86.9378 113.897 85.8789 112.663C84.8199 111.428 84.0112 109.985 83.501 108.418C74.9261 88.3946 54.8285 41.5798 53.5691 38.5999C52.3096 35.62 51.077 33.0301 50.0051 30.4123V30.1895H36.9551V30.9414C38.4973 31.2062 39.9028 32.021 40.9297 33.2458C41.9567 34.4707 42.541 36.029 42.5824 37.6531V38.043C42.5958 38.312 42.5958 38.5816 42.5824 38.8506C42.5245 39.6591 42.3055 40.4463 41.9392 41.1621L35.8296 55.4767C31.8905 64.7784 27.7906 74.3864 23.6907 83.8273L22.2705 87.0857C20.7162 90.7339 19.1084 94.3543 17.5274 97.9748C17.0183 99.1444 16.5092 100.398 16 101.651L15.5445 102.821C15.1425 103.851 14.7138 104.909 14.2046 105.912C13.3438 108.243 11.9616 110.327 10.1723 111.993C8.38309 113.659 6.23817 114.858 3.91471 115.492L1.07422 116.244H22.9136V115.492C21.7113 115.512 20.5212 115.24 19.4374 114.698C18.3537 114.157 17.4062 113.361 16.6699 112.373C16.2733 111.497 16.0811 110.536 16.1091 109.568C16.137 108.6 16.3842 107.653 16.8307 106.803L22.726 93.0176L23.2619 91.7644C23.3959 91.5138 23.4763 91.2631 23.5835 91.0403C23.6907 90.8175 23.9319 90.3719 24.0927 90.0099C24.3486 89.6397 24.6763 89.3295 25.0548 89.0992C25.4333 88.869 25.8541 88.7238 26.29 88.6731C26.6919 88.6731 27.1474 88.6731 27.5762 88.6731H62.01C62.4924 88.6731 62.9211 88.6731 63.3231 88.6731C63.7589 88.7238 64.1797 88.869 64.5582 89.0992C64.9367 89.3295 65.2645 89.6397 65.5204 90.0099L65.7348 90.4833C66.1367 91.3745 66.5119 92.2378 66.8602 93.129C68.87 97.7798 70.9869 102.904 73.5594 109.226C74.1653 110.432 74.3992 111.803 74.2293 113.153C74.0098 113.734 73.6668 114.256 73.226 114.68C72.7853 115.105 72.2581 115.42 71.6836 115.603M63.2427 85.3869C63.179 85.4806 63.0947 85.5573 62.9969 85.6106C62.899 85.6638 62.7904 85.6921 62.6799 85.6932H26.7723C26.6646 85.698 26.5576 85.672 26.4631 85.618C26.3686 85.564 26.2902 85.484 26.2364 85.3869C26.1891 85.2873 26.1645 85.1777 26.1645 85.0666C26.1645 84.9556 26.1891 84.8459 26.2364 84.7463L44.3242 42.7773C44.3729 42.658 44.4554 42.5568 44.5606 42.4872C44.6659 42.4176 44.789 42.3828 44.9137 42.3875C45.036 42.3765 45.1585 42.4055 45.2642 42.4704C45.3699 42.5353 45.4535 42.6329 45.5032 42.7495L50.4874 54.307C54.4533 63.6644 59.5983 75.6675 63.3766 84.5236C63.4236 84.6183 63.4482 84.7233 63.4482 84.8299C63.4482 84.9364 63.4236 85.0415 63.3766 85.1363" fill="#131411"/>
<path d="M707.409 105.244C707.409 86.028 707.409 40.6892 707.409 39.3803C707.519 37.9814 707.311 36.5752 706.804 35.2744C706.297 33.9736 705.504 32.8142 704.489 31.8888C703.915 31.4451 703.295 31.0713 702.64 30.7748L701.059 30.0508H721.987L720.62 30.747C720.048 31.0466 719.508 31.4108 719.012 31.8331C716.145 34.2281 716.118 37.8486 716.118 41.0234C716.118 60.518 716.118 98.588 716.118 100.203V101.651C716.118 103.462 716.118 105.885 716.118 106.887C715.871 108.669 716.211 110.486 717.081 112.043C717.952 113.6 719.303 114.805 720.915 115.465L722.523 116.189H701.568L702.934 115.493C703.505 115.189 704.044 114.825 704.542 114.406C707.409 112.011 707.409 108.391 707.436 105.216" fill="#131411"/>
<path d="M767.193 76.5868C767.193 77.4681 766.942 78.3296 766.471 79.0623C765.999 79.7951 765.33 80.3662 764.546 80.7035C763.763 81.0407 762.901 81.1289 762.069 80.957C761.238 80.7851 760.474 80.3608 759.874 79.7376C759.274 79.1144 758.866 78.3204 758.701 77.456C758.535 76.5917 758.62 75.6958 758.945 74.8815C759.269 74.0673 759.819 73.3714 760.524 72.8818C761.229 72.3922 762.058 72.1309 762.906 72.1309C764.043 72.1309 765.133 72.6003 765.937 73.436C766.741 74.2716 767.193 75.405 767.193 76.5868Z" fill="#131411"/>
<path d="M767.193 111.788C767.193 112.669 766.942 113.531 766.471 114.263C765.999 114.996 765.33 115.567 764.546 115.905C763.763 116.242 762.901 116.33 762.069 116.158C761.238 115.986 760.474 115.562 759.874 114.939C759.274 114.316 758.866 113.522 758.701 112.657C758.535 111.793 758.62 110.897 758.945 110.083C759.269 109.269 759.819 108.573 760.524 108.083C761.229 107.593 762.058 107.332 762.906 107.332C764.043 107.332 765.133 107.801 765.937 108.637C766.741 109.473 767.193 110.606 767.193 111.788Z" fill="#131411"/>
<path d="M59.5986 0.0839844L49.8178 23.3103H46.6826L56.4366 0.0839844H59.5986Z" fill="#131411"/>
<path d="M410.877 116.105C408.745 115.987 406.623 115.717 404.526 115.297C399.425 114.263 394.566 112.211 390.217 109.254C385.817 106.347 382.07 102.491 379.23 97.9471C375.848 92.3251 373.757 85.9688 373.12 79.3715C372.986 77.9512 372.906 76.5866 372.799 75.1106C372.799 74.8042 372.799 74.4979 372.799 74.1916V71.0167C372.799 70.6268 372.799 70.2369 372.933 69.847C373.022 67.6212 373.273 65.4056 373.683 63.2189C374.767 57.5066 376.965 52.0854 380.141 47.2891C382.849 43.1048 386.362 39.549 390.458 36.8456C396.114 33.1305 402.548 30.8856 409.216 30.301C410.18 30.301 413.744 30.0781 414.575 30.0781C415.406 30.0781 417.817 30.0782 418.97 30.301C421.037 30.4723 423.088 30.8075 425.106 31.3035C431.143 32.6382 436.784 35.4552 441.559 39.5191C446.236 43.4584 449.915 48.5253 452.278 54.2792C454.233 59.2622 455.357 64.5551 455.601 69.9305C455.601 71.1002 455.601 72.242 455.601 73.4117C455.657 76.2097 455.46 79.007 455.011 81.7665C454.202 86.8358 452.523 91.7127 450.054 96.1647C447.94 99.9721 445.222 103.381 442.015 106.246C438.115 109.742 433.55 112.342 428.616 113.877C426.277 114.687 423.874 115.283 421.435 115.659C417.883 116.152 414.295 116.302 410.716 116.105M445.981 73.8016C445.981 71.6294 445.82 69.4572 445.632 67.2849C445.378 64.5751 444.948 61.8862 444.346 59.2364C443.375 54.885 441.766 50.7146 439.576 46.8713C437.689 43.5881 435.172 40.7441 432.18 38.5165C427.789 35.2154 422.584 33.2833 417.174 32.9466C414.998 32.7795 412.812 32.7795 410.636 32.9466C408.12 33.1353 405.641 33.6788 403.267 34.5619C398.849 36.135 394.898 38.8693 391.798 42.499C389.796 44.8698 388.127 47.5232 386.84 50.3803C384.861 54.69 383.542 59.294 382.928 64.0265C382.59 66.4352 382.384 68.8621 382.312 71.2952C382.131 75.4733 382.41 79.6592 383.142 83.7717C383.96 88.4943 385.469 93.0589 387.617 97.3065C388.973 100.025 390.707 102.521 392.762 104.714C397.83 109.911 404.617 112.9 411.734 113.069C412.806 113.069 413.905 113.069 415.004 113.069C417.228 113.101 419.449 112.868 421.622 112.373C425.627 111.487 429.395 109.7 432.663 107.137C435.286 105.054 437.528 102.497 439.282 99.5902C442.824 93.7812 445.009 87.1905 445.659 80.3463C445.915 78.1287 446.022 75.8954 445.981 73.6624" fill="#131411"/>
<path d="M568.12 38.2663C563.838 33.8786 558.279 31.0878 552.31 30.3293C551.104 30.19 550.032 30.0786 548.987 30.0508H505.442L506.943 30.7748C508.287 31.5026 509.409 32.6042 510.185 33.9566C510.961 35.309 511.36 36.8589 511.338 38.4334C511.498 40.6056 511.498 42.8336 511.525 45.0059V60.4901C511.525 75.1946 511.525 90.4281 511.525 104.436V104.743C511.525 108.948 511.525 112.93 506.943 115.52L505.71 116.217H526.665L525.138 115.493C523.644 114.86 522.382 113.75 521.534 112.324C520.686 110.897 520.297 109.227 520.422 107.555C520.422 101.986 520.234 95.5524 520.207 89.342C520.207 85.2203 520.207 81.21 520.073 77.5339C520.073 76.5313 520.475 76.0022 521.815 76.0022H523.986C530.819 76.0022 537.84 76.1415 544.726 75.7516H545.691H546.093C550.893 75.4599 555.629 74.4661 560.161 72.7995C563.341 71.6167 566.171 69.5961 568.374 66.9356C570.577 64.2751 572.078 61.0657 572.729 57.6216C573.072 56.0028 573.243 54.3498 573.238 52.6923C573.367 47.4443 571.544 42.3466 568.147 38.4613M520.047 37.3194V35.1751C520.047 33.7547 520.341 33.1142 521.815 33.1142H547.862C550.601 33.0498 553.307 33.7622 555.686 35.1751C558.332 36.908 560.476 39.3534 561.892 42.2514C563.307 45.1494 563.941 48.3918 563.725 51.634C563.723 54.4596 563.344 57.2712 562.6 59.9888C561.809 63.109 560.29 65.9786 558.178 68.3436C555.499 71.1286 548.853 72.9666 540.412 72.9666H521.654C520.181 72.9666 519.886 72.2704 519.859 70.8779V67.7866C519.859 67.1182 519.859 66.4777 519.859 65.8372C519.859 62.6067 519.859 59.3483 519.859 56.1177V45.1173C519.859 42.5273 519.859 39.9373 519.859 37.3473" fill="#131411"/>
<path d="M682.113 88.8119C681.428 85.3724 679.927 82.1654 677.745 79.4823C675.539 76.8424 672.715 74.8378 669.546 73.6618C665.01 71.9696 660.262 70.966 655.451 70.6819H654.218C647.331 70.2642 640.284 70.3477 633.504 70.4313H631.414C629.94 70.4313 629.645 69.9021 629.538 68.8995C629.538 65.2234 629.538 61.2131 629.538 57.0914C629.538 50.881 629.672 44.4756 629.779 38.8779C629.656 37.2029 630.05 35.5307 630.903 34.1037C631.755 32.6767 633.023 31.5689 634.522 30.9408L636.023 30.2168H615.095L616.327 30.9408C620.856 33.503 620.883 37.4855 620.91 41.7186V41.997C620.91 55.9217 620.91 71.2388 620.91 85.9433V101.455C620.91 103.6 620.91 105.828 620.722 108C620.76 109.578 620.368 111.134 619.59 112.49C618.812 113.845 617.681 114.944 616.327 115.659L614.854 116.383H658.318C659.447 116.355 660.575 116.262 661.694 116.104C667.665 115.374 673.23 112.59 677.504 108.195C679.684 105.607 681.237 102.516 682.034 99.1782C682.831 95.8405 682.849 92.3532 682.087 89.0067M657.219 113.514H631.173C629.699 113.514 629.431 112.846 629.404 111.481V109.309C629.404 106.719 629.404 104.129 629.404 101.539V90.5385C629.404 87.308 629.404 84.0496 629.404 80.8469C629.404 80.1785 629.404 79.538 629.404 78.8696V75.7783C629.404 74.3858 629.726 73.6896 631.2 73.6896H649.957C658.398 73.6896 665.071 75.4163 667.75 78.3405C669.847 80.7125 671.356 83.5803 672.145 86.6953C672.882 89.4151 673.27 92.2245 673.297 95.0501C673.506 98.2953 672.87 101.539 671.455 104.44C670.04 107.341 667.9 109.793 665.258 111.537C662.86 112.924 660.151 113.626 657.407 113.57" fill="#131411"/>
<path d="M514.875 30.8027V30.0508H525.969V30.8027H514.875Z" fill="#131411"/>
<path d="M327.914 32.2498V32.4169C327.927 32.5745 327.927 32.7328 327.914 32.8903C327.914 38.9893 327.914 43.306 327.914 43.306V44.3365L327.298 43.5567C326.001 41.8136 324.477 40.267 322.769 38.9615C315.052 33.3916 310.711 32.9738 299.322 32.8625C297.634 32.8625 297.473 35.4525 297.473 36.5386V38.4881C297.473 48.3467 297.473 58.2333 297.473 68.1476C297.473 80.457 297.473 92.8035 297.473 105.187C297.473 109.114 297.473 113.18 302.082 115.492L303.475 116.216H283.03L284.423 115.575C288.978 113.264 289.005 109.198 289.032 105.271C289.032 92.9057 289.032 80.5591 289.032 68.2312C289.032 58.3168 289.032 48.4303 289.032 38.5716V36.6221C289.032 35.536 288.844 32.946 287.156 32.946C275.768 32.946 271.427 33.5587 263.709 39.045C262.036 40.3334 260.548 41.8617 259.288 43.5845L258.618 44.3642V43.3895C258.618 43.3895 258.618 39.0729 258.618 32.9182C258.591 32.7803 258.591 32.6383 258.618 32.5005V32.3612C258.618 30.1889 260.467 30.2168 261.673 30.2168H325.047C326.279 30.2168 327.726 30.2168 327.941 32.3333" fill="#131411"/>
</g>
<defs>
<clipPath id="clip0_554_5307">
<rect width="766.333" height="116.188" fill="white" transform="translate(0.833008 0.0839844)"/>
</clipPath>
</defs>
</svg>
