<svg width="1664" height="336" viewBox="0 0 1664 336" fill="none" xmlns="http://www.w3.org/2000/svg">
<g opacity="0.05">
<g clip-path="url(#clip0_1325_374)">
<path d="M479.122 174.563C469.536 164.09 456.944 157.117 443.226 154.685L439.599 153.799L444.026 152.36C450.167 150.499 455.932 147.497 461.041 143.501C464.461 140.676 467.146 137.007 468.851 132.829C470.556 128.652 471.226 124.097 470.801 119.581C470.586 114.64 469.192 109.832 466.744 105.589C464.295 101.346 460.869 97.8018 456.774 95.2742C450.051 91.0572 442.47 88.535 434.639 87.9102H423.171H348.499L351.433 89.2944C354.337 90.8172 356.725 93.2229 358.278 96.1907C359.831 99.1584 360.476 102.547 360.127 105.905C360.127 150.2 360.394 198.15 360.394 235.192C360.394 243.387 360.394 252.578 350.846 257.893L348.339 259.277H351.113C351.113 259.277 363.54 259.277 378.741 259.277C395.169 259.277 415.171 259.278 427.598 258.724C438.601 258.3 449.495 256.307 459.974 252.799C467.217 250.312 473.735 245.961 478.921 240.151C484.107 234.342 487.791 227.264 489.629 219.578C491.688 211.764 491.804 203.537 489.966 195.664C488.128 187.792 484.397 180.531 479.122 174.563ZM377.781 146.269C377.781 140.732 377.781 135.472 377.781 130.212V97.7659C377.781 94.8867 378.261 93.5023 381.248 93.5023H423.598C430.514 93.4293 437.211 96.0214 442.393 100.777C447.576 105.533 450.875 112.114 451.653 119.249V119.194C452.667 132.095 448.453 142.172 440.239 146.878C433.988 149.489 427.295 150.77 420.558 150.643H381.195C378.261 150.643 377.781 149.314 377.728 146.657L377.781 146.269ZM471.548 213.044C469.895 229.655 466.214 240.729 451.28 247.927L450.373 248.425C440.671 251.275 430.684 252.947 420.611 253.408H380.715C378.368 253.408 377.728 252.19 377.781 248.813V245.048C377.781 235.801 377.781 226.388 377.781 217.363V196.157C377.781 185.913 377.781 175.338 377.781 165.15V160.887C377.62 159.713 377.907 158.521 378.581 157.564C378.951 157.25 379.377 157.016 379.835 156.873C380.293 156.73 380.773 156.683 381.248 156.734H420.078C430.43 157.183 440.612 159.623 450.106 163.932C463.921 170.078 471.975 185.581 471.975 205.293C471.962 207.919 471.82 210.544 471.548 213.155" fill="#131411"/>
<path d="M210.57 257.617L203.956 259.112H249.772L246.146 257.673C243.281 256.269 240.719 254.281 238.611 251.826C236.503 249.372 234.894 246.502 233.878 243.387C216.81 203.577 176.807 110.501 174.301 104.577C171.794 98.6524 169.34 93.5032 167.207 88.2985V87.8555H141.232V89.3504C144.301 89.8768 147.099 91.4969 149.143 93.9321C151.187 96.3673 152.35 99.4655 152.432 102.694V103.47C152.459 104.004 152.459 104.54 152.432 105.075C152.317 106.683 151.881 108.248 151.152 109.671L138.991 138.131C131.151 156.624 122.99 175.726 114.83 194.496L112.003 200.975C108.909 208.228 105.709 215.426 102.562 222.624C101.549 224.949 100.535 227.441 99.522 229.933L98.6153 232.258C97.8152 234.307 96.9618 236.411 95.9484 238.404C94.2349 243.038 91.4838 247.182 87.9224 250.494C84.361 253.806 80.0917 256.191 75.467 257.451L69.8132 258.946H113.283V257.451C110.89 257.49 108.521 256.95 106.364 255.873C104.207 254.797 102.321 253.214 100.855 251.25C100.066 249.508 99.6835 247.597 99.7391 245.673C99.7947 243.749 100.287 241.866 101.175 240.176L112.91 212.768L113.976 210.277C114.243 209.778 114.403 209.28 114.616 208.837C114.83 208.394 115.31 207.508 115.63 206.788C116.139 206.052 116.792 205.436 117.545 204.978C118.298 204.52 119.136 204.231 120.003 204.131C120.803 204.131 121.71 204.131 122.564 204.131H191.102C192.062 204.131 192.915 204.131 193.715 204.131C194.583 204.231 195.42 204.52 196.174 204.978C196.927 205.436 197.579 206.052 198.089 206.788L198.516 207.73C199.316 209.501 200.062 211.218 200.756 212.99C204.756 222.236 208.97 232.424 214.09 244.993C215.296 247.392 215.762 250.117 215.423 252.8C214.986 253.956 214.304 254.994 213.426 255.838C212.549 256.681 211.5 257.309 210.356 257.673M193.555 197.597C193.428 197.784 193.261 197.936 193.066 198.042C192.871 198.148 192.655 198.204 192.435 198.206H120.964C120.749 198.216 120.536 198.164 120.348 198.057C120.16 197.949 120.004 197.79 119.897 197.597C119.803 197.399 119.754 197.181 119.754 196.96C119.754 196.74 119.803 196.522 119.897 196.324L155.899 112.882C155.996 112.645 156.16 112.444 156.37 112.305C156.579 112.167 156.824 112.098 157.073 112.107C157.316 112.085 157.56 112.143 157.77 112.272C157.981 112.401 158.147 112.595 158.246 112.827L168.167 135.805C176.061 154.409 186.301 178.273 193.822 195.881C193.915 196.069 193.964 196.278 193.964 196.49C193.964 196.702 193.915 196.91 193.822 197.099" fill="#131411"/>
<path d="M1475.72 237.075C1475.72 198.87 1475.72 108.729 1475.72 106.127C1475.94 103.345 1475.53 100.55 1474.52 97.9636C1473.51 95.3773 1471.93 93.0722 1469.91 91.2325C1468.77 90.3503 1467.54 89.607 1466.23 89.0176L1463.08 87.5781H1504.74L1502.02 88.9624C1500.88 89.5581 1499.81 90.2821 1498.82 91.1217C1493.11 95.8834 1493.06 103.081 1493.06 109.394C1493.06 148.152 1493.06 223.842 1493.06 227.053V229.932C1493.06 233.531 1493.06 238.348 1493.06 240.342C1492.57 243.885 1493.24 247.497 1494.98 250.592C1496.71 253.687 1499.4 256.085 1502.61 257.395L1505.81 258.835H1464.1L1466.82 257.451C1467.95 256.848 1469.03 256.124 1470.02 255.291C1475.72 250.529 1475.72 243.331 1475.78 237.019" fill="#131411"/>
<path d="M1594.72 180.099C1594.72 181.851 1594.22 183.564 1593.28 185.021C1592.34 186.478 1591.01 187.614 1589.45 188.284C1587.89 188.955 1586.18 189.13 1584.52 188.788C1582.87 188.446 1581.34 187.603 1580.15 186.364C1578.96 185.125 1578.15 183.546 1577.82 181.828C1577.49 180.109 1577.66 178.328 1578.3 176.709C1578.95 175.09 1580.04 173.707 1581.44 172.733C1582.85 171.76 1584.5 171.24 1586.19 171.24C1588.45 171.24 1590.62 172.174 1592.22 173.835C1593.82 175.496 1594.72 177.75 1594.72 180.099Z" fill="#131411"/>
<path d="M1594.72 250.086C1594.72 251.838 1594.22 253.55 1593.28 255.007C1592.34 256.464 1591.01 257.6 1589.45 258.27C1587.89 258.941 1586.18 259.116 1584.52 258.774C1582.87 258.433 1581.34 257.589 1580.15 256.35C1578.96 255.111 1578.15 253.532 1577.82 251.814C1577.49 250.095 1577.66 248.314 1578.3 246.695C1578.95 245.077 1580.04 243.693 1581.44 242.72C1582.85 241.746 1584.5 241.227 1586.19 241.227C1588.45 241.227 1590.62 242.16 1592.22 243.821C1593.82 245.483 1594.72 247.736 1594.72 250.086Z" fill="#131411"/>
<path d="M186.301 28L166.833 74.1779H160.593L180.008 28H186.301Z" fill="#131411"/>
<path d="M885.497 258.668C881.253 258.434 877.029 257.897 872.856 257.062C862.703 255.006 853.031 250.926 844.374 245.047C835.617 239.268 828.159 231.602 822.506 222.568C815.774 211.39 811.613 198.753 810.345 185.636C810.078 182.812 809.918 180.099 809.705 177.165C809.705 176.556 809.705 175.947 809.705 175.338V169.025C809.705 168.25 809.705 167.475 809.972 166.7C810.15 162.275 810.649 157.87 811.465 153.522C813.623 142.165 817.998 131.387 824.319 121.851C829.71 113.532 836.701 106.462 844.854 101.088C856.113 93.7014 868.919 89.2383 882.19 88.0759C884.11 88.0759 891.204 87.6328 892.858 87.6328C894.511 87.6328 899.311 87.6329 901.605 88.0759C905.719 88.4166 909.802 89.0828 913.819 90.0691C925.835 92.7226 937.064 98.3233 946.568 106.403C955.876 114.235 963.2 124.309 967.903 135.749C971.795 145.655 974.032 156.179 974.517 166.866C974.517 169.192 974.517 171.462 974.517 173.787C974.629 179.35 974.236 184.912 973.343 190.398C971.733 200.476 968.39 210.173 963.476 219.024C959.269 226.594 953.859 233.37 947.475 239.067C939.713 246.017 930.625 251.187 920.806 254.239C916.15 255.849 911.367 257.035 906.512 257.782C899.442 258.763 892.3 259.059 885.177 258.668M955.369 174.562C955.369 170.244 955.049 165.925 954.675 161.606C954.169 156.219 953.313 150.872 952.115 145.604C950.183 136.953 946.98 128.662 942.621 121.02C938.865 114.493 933.854 108.839 927.9 104.41C919.16 97.8466 908.799 94.0052 898.031 93.3358C893.699 93.0036 889.349 93.0036 885.017 93.3358C880.01 93.711 875.076 94.7915 870.349 96.5473C861.556 99.6748 853.692 105.111 847.521 112.328C843.536 117.041 840.214 122.317 837.654 127.997C833.715 136.565 831.088 145.719 829.866 155.128C829.193 159.917 828.784 164.742 828.64 169.579C828.281 177.886 828.836 186.208 830.293 194.384C831.921 203.774 834.925 212.849 839.2 221.294C841.899 226.699 845.35 231.661 849.441 236.022C859.528 246.354 873.037 252.296 887.204 252.633C889.337 252.633 891.524 252.633 893.711 252.633C898.139 252.696 902.559 252.232 906.885 251.249C914.855 249.488 922.356 245.935 928.86 240.839C934.081 236.697 938.544 231.614 942.034 225.834C949.086 214.285 953.434 201.182 954.729 187.574C955.237 183.165 955.451 178.725 955.369 174.286" fill="#131411"/>
<path d="M1198.48 103.912C1189.96 95.1885 1178.89 89.6399 1167.01 88.1318C1164.61 87.855 1162.48 87.6335 1160.4 87.5781H1073.72L1076.71 89.0176C1079.38 90.4645 1081.62 92.6547 1083.16 95.3435C1084.71 98.0322 1085.5 101.114 1085.46 104.244C1085.78 108.563 1085.78 112.993 1085.83 117.311V148.097C1085.83 177.331 1085.83 207.618 1085.83 235.469V236.078C1085.83 244.439 1085.83 252.357 1076.71 257.506L1074.26 258.89H1115.97L1112.93 257.451C1109.95 256.193 1107.44 253.986 1105.75 251.15C1104.07 248.314 1103.29 244.994 1103.54 241.67C1103.54 230.596 1103.17 217.806 1103.11 205.459C1103.11 197.264 1103.11 189.291 1102.85 181.982C1102.85 179.989 1103.65 178.937 1106.31 178.937H1110.63C1124.23 178.937 1138.21 179.214 1151.92 178.439H1153.84H1154.64C1164.19 177.859 1173.62 175.883 1182.64 172.57C1188.97 170.218 1194.6 166.201 1198.98 160.911C1203.37 155.622 1206.36 149.241 1207.65 142.394C1208.34 139.175 1208.68 135.889 1208.67 132.593C1208.92 122.159 1205.29 112.024 1198.53 104.3M1102.79 102.029V97.766C1102.79 94.9422 1103.38 93.6688 1106.31 93.6688H1158.16C1163.61 93.5407 1168.99 94.9571 1173.73 97.766C1179 101.211 1183.26 106.073 1186.08 111.835C1188.9 117.597 1190.16 124.043 1189.73 130.489C1189.73 136.107 1188.97 141.697 1187.49 147.1C1185.92 153.303 1182.89 159.009 1178.69 163.711C1173.36 169.248 1160.13 172.902 1143.33 172.902H1105.99C1103.06 172.902 1102.47 171.518 1102.42 168.749V162.603C1102.42 161.274 1102.42 160.001 1102.42 158.727C1102.42 152.305 1102.42 145.826 1102.42 139.404V117.533C1102.42 112.384 1102.42 107.234 1102.42 102.085" fill="#131411"/>
<path d="M1425.37 204.407C1424.01 197.569 1421.02 191.193 1416.68 185.858C1412.29 180.61 1406.67 176.624 1400.36 174.286C1391.33 170.922 1381.88 168.926 1372.3 168.361H1369.85C1356.14 167.531 1342.12 167.697 1328.62 167.863H1324.46C1321.53 167.863 1320.94 166.811 1320.73 164.818C1320.73 157.509 1320.73 149.536 1320.73 141.341C1320.73 128.994 1320.99 116.259 1321.21 105.13C1320.96 101.8 1321.75 98.4752 1323.44 95.638C1325.14 92.8008 1327.66 90.5983 1330.65 89.3496L1333.64 87.9102H1291.98L1294.43 89.3496C1303.45 94.4436 1303.5 102.362 1303.55 110.778V111.331C1303.55 139.016 1303.55 169.469 1303.55 198.704V229.544C1303.55 233.808 1303.55 238.237 1303.18 242.556C1303.26 245.693 1302.47 248.787 1300.93 251.482C1299.38 254.177 1297.13 256.361 1294.43 257.783L1291.5 259.222H1378.01C1380.26 259.167 1382.5 258.982 1384.73 258.669C1396.62 257.217 1407.69 251.682 1416.2 242.944C1420.54 237.799 1423.63 231.653 1425.22 225.017C1426.8 218.381 1426.84 211.448 1425.32 204.794M1375.82 253.519H1323.98C1321.05 253.519 1320.51 252.19 1320.46 249.477V245.158C1320.46 240.009 1320.46 234.86 1320.46 229.71V207.84C1320.46 201.417 1320.46 194.939 1320.46 188.571C1320.46 187.242 1320.46 185.969 1320.46 184.64V178.494C1320.46 175.725 1321.1 174.341 1324.03 174.341H1361.37C1378.17 174.341 1391.45 177.774 1396.79 183.588C1400.96 188.304 1403.96 194.006 1405.53 200.199C1407 205.606 1407.77 211.192 1407.83 216.809C1408.24 223.261 1406.98 229.71 1404.16 235.478C1401.34 241.246 1397.08 246.12 1391.83 249.588C1387.05 252.346 1381.66 253.741 1376.2 253.63" fill="#131411"/>
<path d="M1092.5 89.073V87.5781H1114.58V89.073H1092.5Z" fill="#131411"/>
<path d="M720.366 91.952V92.2844C720.391 92.5976 720.391 92.9124 720.366 93.2256C720.366 105.351 720.366 113.934 720.366 113.934V115.982L719.139 114.432C716.558 110.967 713.524 107.892 710.125 105.296C694.764 94.2222 686.123 93.3916 663.455 93.1702C660.095 93.1702 659.775 98.3195 659.775 100.479V104.355C659.775 123.955 659.775 143.612 659.775 163.323C659.775 187.796 659.775 212.343 659.775 236.964C659.775 244.771 659.775 252.855 668.949 257.45L671.722 258.89H631.026L633.799 257.617C642.867 253.021 642.92 244.937 642.973 237.13C642.973 212.546 642.973 187.999 642.973 163.489C642.973 143.778 642.973 124.122 642.973 104.521V100.645C642.973 98.4856 642.6 93.3363 639.24 93.3363C616.572 93.3363 607.931 94.5544 592.57 105.462C589.24 108.024 586.277 111.062 583.769 114.487L582.436 116.038V114.1C582.436 114.1 582.436 105.518 582.436 93.281C582.383 93.0069 582.383 92.7246 582.436 92.4505V92.1736C582.436 87.8548 586.116 87.9102 588.516 87.9102H714.658C717.112 87.9102 719.992 87.9101 720.419 92.1181" fill="#131411"/>
</g>
</g>
<defs>
<clipPath id="clip0_1325_374">
<rect width="1525.33" height="231" fill="white" transform="translate(69.3333 28)"/>
</clipPath>
</defs>
</svg>
