<svg width="176" height="155" viewBox="0 0 176 155" fill="none" xmlns="http://www.w3.org/2000/svg">
<path d="M140.095 98.8402C147.762 91.3116 153.284 84.5619 156.663 78.591C160.042 72.62 161.731 66.5842 161.731 60.4835C161.731 53.6039 159.847 48.2171 156.078 44.323C152.31 40.429 146.917 38.4819 139.9 38.4819C126.125 38.4819 117.132 45.8807 112.844 61.8464H110.467L118.048 32.9648C118.048 32.9648 117.766 39.4554 123.137 39.4554C124.566 39.4554 126.645 38.9362 129.374 37.8978C132.623 36.8594 135.352 36.1455 137.561 35.7561C139.77 35.2368 142.369 34.9772 145.358 34.9772C153.674 34.9772 160.301 37.1839 165.239 41.5972C170.307 46.0105 172.841 51.7867 172.841 58.9259C172.841 64.2478 171.217 69.6995 167.968 75.281C164.72 80.7327 158.771 86.9411 152.18 93.7779C140.963 105.413 123.043 120.452 123.043 120.452C135.718 120.452 150.471 120.452 157.363 120.452C168.303 120.452 171.718 117.355 175.032 107.212C175.032 114.23 175.032 128.399 175.032 128.399H105.019C105.019 128.399 133.459 105.244 140.095 98.8402Z" fill="#D8D8D8"/>
<path d="M56.2959 25.8106L67.5142 0.0419922H63.8875L52.6999 25.8106H56.2959Z" fill="#D8D8D8"/>
<path fill-rule="evenodd" clip-rule="evenodd" d="M81.4087 127.586L77.6606 128.399H104.186L102.086 127.6C100.428 126.821 98.944 125.717 97.7237 124.355C96.5035 122.993 95.5716 121.4 94.9837 119.671C90.3865 109.391 82.9155 92.7125 76.0934 77.4828C68.2519 59.9771 61.268 44.3859 60.4919 42.6275C59.826 41.1188 59.1667 39.7008 58.5287 38.3288C57.7762 36.7103 57.0535 35.1559 56.385 33.5925V33.3466H41.3469V34.1763C43.1242 34.4686 44.7437 35.3677 45.9271 36.7193C47.1105 38.0709 47.7838 39.7905 47.8315 41.5826V42.0129C47.8469 42.3098 47.8469 42.6073 47.8315 42.9041C47.7648 43.7963 47.5124 44.6649 47.0904 45.4548L40.05 61.2507C35.5108 71.515 30.7863 82.1173 26.0618 92.5352L24.4253 96.1307C23.1525 98.9916 21.8486 101.837 20.5468 104.678C20.0166 105.835 19.4869 106.991 18.9597 108.147C18.3735 109.436 17.7873 110.818 17.2011 112.2L17.1996 112.203L16.6747 113.494C16.2115 114.631 15.7174 115.799 15.1307 116.905C14.1387 119.477 12.5459 121.777 10.4841 123.615C8.42231 125.454 5.95062 126.777 3.27321 127.477L0 128.306H25.1664V127.477C23.7809 127.498 22.4095 127.198 21.1607 126.601C19.9119 126.004 18.82 125.125 17.9716 124.035C17.5145 123.068 17.2931 122.008 17.3253 120.94C17.3575 119.872 17.6423 118.826 18.1568 117.889L25.5678 101.294C25.6579 101.132 25.727 100.971 25.7935 100.815C25.8409 100.705 25.8869 100.597 25.9383 100.495C25.9811 100.41 26.0423 100.295 26.1118 100.165C26.2431 99.9195 26.4039 99.6188 26.5251 99.3576C26.82 98.9491 27.1977 98.6068 27.6338 98.3527C28.07 98.0986 28.5549 97.9384 29.0571 97.8824H71.7318C72.2341 97.9384 72.7189 98.0986 73.1551 98.3527C73.5912 98.6068 73.969 98.9491 74.2639 99.3576L74.5109 99.88C74.9741 100.863 75.4064 101.816 75.8078 102.799C78.1237 107.932 80.5632 113.586 83.5276 120.562C84.2257 121.893 84.4953 123.406 84.2995 124.895C84.0465 125.537 83.6513 126.113 83.1434 126.581C82.6464 127.039 82.054 127.383 81.4087 127.586ZM71.3559 94.503C71.4687 94.4442 71.5658 94.3596 71.6392 94.2562L71.7935 93.9796C71.8477 93.8751 71.876 93.7591 71.876 93.6415C71.876 93.5239 71.8477 93.408 71.7935 93.3035C70.447 90.2812 68.9499 86.9267 67.3888 83.4291C63.9024 75.6175 60.0975 67.0923 56.9408 59.96L51.1973 47.2065C51.1399 47.0778 51.0437 46.9701 50.9219 46.8985C50.8001 46.8269 50.6589 46.7949 50.518 46.807C50.3743 46.8018 50.2324 46.8402 50.1111 46.917C49.9898 46.9938 49.8948 47.1054 49.8386 47.2372L28.9953 93.5493C28.9409 93.6592 28.9125 93.7802 28.9125 93.9028C28.9125 94.0253 28.9409 94.1462 28.9953 94.2562C29.0574 94.3633 29.1478 94.4516 29.2566 94.5112C29.3655 94.5708 29.4888 94.5994 29.6129 94.5942H70.9907C71.118 94.593 71.2432 94.5618 71.3559 94.503Z" fill="#D8D8D8"/>
<path d="M0.416748 150.406H1.15093C1.21062 150.358 1.2912 150.275 1.39267 150.155C1.50012 150.036 1.68515 149.752 1.94779 149.305C2.21042 148.851 2.44321 148.347 2.64616 147.791C2.8491 147.236 3.03116 146.469 3.19232 145.49C3.35945 144.511 3.44301 143.458 3.44301 142.33V138.48H11.0534V150.406H12.7009V154.068H11.7876V151.319H1.33V154.068H0.416748V150.406ZM4.35627 142.33C4.35627 143.428 4.28165 144.455 4.13243 145.41C3.98917 146.365 3.81607 147.138 3.61313 147.729C3.41615 148.314 3.21321 148.818 3.00429 149.242C2.79538 149.66 2.61631 149.961 2.46709 150.146L2.25221 150.406H10.1312V139.402H4.35627V142.33Z" fill="#565656"/>
<path d="M26.1351 144.443L26.3769 144.541C26.4843 144.583 26.6693 144.694 26.932 144.873C27.1946 145.052 27.4244 145.252 27.6214 145.472C27.8243 145.693 28.0094 146.01 28.1765 146.422C28.3436 146.827 28.4272 147.269 28.4272 147.747C28.4272 148.773 28.0631 149.627 27.3349 150.307C26.6067 150.982 25.6546 151.319 24.4787 151.319H19.5275V138.48H24.2997C25.3383 138.48 26.1769 138.784 26.8156 139.393C27.4602 139.996 27.7826 140.763 27.7826 141.694C27.7826 142.088 27.7229 142.452 27.6035 142.786C27.4901 143.121 27.3528 143.386 27.1916 143.583C27.0364 143.78 26.8783 143.947 26.7171 144.085C26.5559 144.216 26.4216 144.306 26.3142 144.353L26.1351 144.443ZM20.4497 150.406H24.4787C25.4218 150.406 26.162 150.161 26.6992 149.672C27.2364 149.182 27.505 148.541 27.505 147.747C27.505 146.905 27.2394 146.237 26.7081 145.741C26.1769 145.24 25.4338 144.989 24.4787 144.989H20.4497V150.406ZM24.2997 139.402H20.4497V144.076H24.2997C25.1174 144.076 25.7471 143.867 26.1888 143.449C26.6365 143.025 26.8604 142.44 26.8604 141.694C26.8604 140.996 26.6335 140.441 26.1799 140.029C25.7322 139.611 25.1055 139.402 24.2997 139.402Z" fill="#565656"/>
<path d="M36.7222 150.406H44.6012V151.319H35.8V138.48H44.4221V139.402H36.7222V144.165H42.9538V145.087H36.7222V150.406Z" fill="#565656"/>
<path d="M60.063 149.573C58.7916 148.29 58.1559 146.732 58.1559 144.899C58.1559 143.067 58.7916 141.509 60.063 140.226C61.3344 138.942 62.8684 138.301 64.6651 138.301C65.3157 138.301 65.9394 138.396 66.5363 138.587C67.1332 138.772 67.6257 139.002 68.0137 139.277C68.4076 139.545 68.7508 139.814 69.0433 140.083C69.3418 140.351 69.5566 140.575 69.688 140.754L69.8939 141.049L69.2492 141.605C69.2134 141.545 69.1537 141.458 69.0702 141.345C68.9926 141.232 68.8135 141.038 68.533 140.763C68.2524 140.488 67.945 140.25 67.6108 140.047C67.2825 139.838 66.8527 139.647 66.3215 139.474C65.7902 139.301 65.2381 139.214 64.6651 139.214C63.1012 139.214 61.7761 139.763 60.6897 140.861C59.6094 141.954 59.0692 143.3 59.0692 144.899C59.0692 146.499 59.6094 147.848 60.6897 148.946C61.7761 150.039 63.1012 150.585 64.6651 150.585C65.25 150.585 65.8081 150.504 66.3394 150.343C66.8706 150.176 67.3093 149.976 67.6555 149.743C68.0077 149.51 68.3151 149.278 68.5777 149.045C68.8404 148.812 69.0344 148.618 69.1597 148.463L69.3388 148.203L69.9834 148.749C69.9357 148.821 69.8611 148.92 69.7596 149.045C69.6641 149.17 69.4462 149.391 69.106 149.707C68.7717 150.024 68.4136 150.304 68.0316 150.549C67.6555 150.794 67.1601 151.015 66.5453 151.212C65.9365 151.403 65.3097 151.498 64.6651 151.498C62.8684 151.498 61.3344 150.857 60.063 149.573Z" fill="#565656"/>
<path d="M86.614 138.48V151.319H85.7008V139.402H77.9113V151.319H76.9891V138.48H86.614Z" fill="#565656"/>
<path d="M101.884 146.645L99.0365 139.769L96.1983 146.645H101.884ZM102.251 147.559H95.8312L94.2733 151.319H93.2616L98.5799 138.48H99.5021L104.812 151.319H103.809L102.251 147.559Z" fill="#565656"/>
<path d="M120.806 138.48V151.319H119.884V139.402H113.742V142.33C113.742 144.186 113.659 145.744 113.491 147.004C113.33 148.257 113.089 149.2 112.766 149.833C112.45 150.46 112.11 150.895 111.746 151.14C111.381 151.379 110.949 151.498 110.447 151.498C110.286 151.498 110.113 151.48 109.928 151.444C109.749 151.409 109.609 151.373 109.507 151.337L109.346 151.283V150.406C109.71 150.525 110.044 150.585 110.349 150.585C110.701 150.585 111.011 150.48 111.28 150.272C111.555 150.063 111.817 149.681 112.068 149.126C112.319 148.57 112.507 147.723 112.632 146.583C112.763 145.437 112.829 144.019 112.829 142.33V138.48H120.806Z" fill="#565656"/>
<path d="M133.596 151.319H129.012V138.48H129.934V143.431H133.596C134.784 143.431 135.769 143.81 136.551 144.568C137.333 145.326 137.724 146.263 137.724 147.38C137.724 148.49 137.333 149.424 136.551 150.182C135.769 150.94 134.784 151.319 133.596 151.319ZM129.934 150.406H133.596C134.551 150.406 135.324 150.122 135.915 149.555C136.512 148.982 136.81 148.257 136.81 147.38C136.81 146.496 136.512 145.771 135.915 145.204C135.324 144.637 134.551 144.353 133.596 144.353H129.934V150.406Z" fill="#565656"/>
<path d="M144.998 151.319V138.48H145.92V144.353H153.71V138.48H154.623V151.319H153.71V145.267H145.92V151.319H144.998Z" fill="#565656"/>
<path d="M173.008 151.319H172.095V140.226L163.562 151.319H162.828V138.48H163.75V149.573L172.274 138.48H173.008V151.319Z" fill="#565656"/>
</svg>
