<svg width="50" height="50" viewBox="0 0 50 50" fill="none" xmlns="http://www.w3.org/2000/svg">
<path d="M9.84472 33.7488C9.97768 33.9727 10.2086 34.0987 10.4537 34.0987C10.5726 34.0987 10.6916 34.0707 10.8036 34.0077L14.1561 32.076L13.4562 34.6867C13.3512 35.0646 13.5752 35.4495 13.9461 35.5475C14.0092 35.5615 14.0721 35.5685 14.1281 35.5685C14.4361 35.5685 14.723 35.3656 14.807 35.0506L15.8639 31.0822L19.4544 29.0104L19.0974 30.3543C18.9925 30.7252 19.2164 31.1101 19.5944 31.2081C19.6504 31.2221 19.7133 31.2361 19.7693 31.2361C20.0843 31.2291 20.3642 31.0262 20.4482 30.7112L21.1691 28.0236L24.2977 26.2178V29.8363L22.3309 31.7961C22.058 32.076 22.058 32.5169 22.3309 32.7899C22.6039 33.0629 23.0449 33.0629 23.3178 32.7899L24.2977 31.81V35.9535L21.3931 38.8581C21.1202 39.131 21.1202 39.572 21.3931 39.845C21.6661 40.1179 22.107 40.1179 22.38 39.845L24.2977 37.9272V41.7977C24.2977 42.1896 24.6126 42.4976 24.9976 42.4976C25.3826 42.4976 25.6975 42.1896 25.6975 41.7977V37.9272L27.6153 39.845C27.7552 39.9849 27.9302 40.0479 28.1122 40.0479C28.2872 40.0479 28.4691 39.9849 28.6021 39.845C28.8821 39.572 28.8821 39.131 28.6021 38.8581L25.6975 35.9465V31.81L26.6774 32.7899C26.8174 32.9229 26.9994 32.9929 27.1743 32.9929C27.3563 32.9929 27.5312 32.9229 27.6712 32.7899C27.9442 32.5169 27.9442 32.076 27.6712 31.7961L25.6975 29.8294V26.2178L28.8331 28.0236L29.547 30.7112C29.6309 31.0262 29.9179 31.2361 30.2259 31.2361C30.2819 31.2361 30.3449 31.2221 30.4079 31.2081C30.7788 31.1101 31.0028 30.7252 30.9048 30.3543L30.5478 29.0104L34.1314 31.0822L35.1952 35.0506C35.2792 35.3656 35.5591 35.5685 35.8671 35.5685C35.9301 35.5685 35.9931 35.5615 36.0491 35.5475C36.427 35.4495 36.644 35.0646 36.546 34.6867L35.8461 32.069L39.1987 34.0077C39.3036 34.0707 39.4296 34.0987 39.5486 34.0987C39.7865 34.0987 40.0245 33.9727 40.1505 33.7488C40.3465 33.4128 40.2345 32.9858 39.8985 32.7969L36.546 30.8582L39.1637 30.1583C39.5346 30.0603 39.7586 29.6753 39.6536 29.2974C39.5556 28.9264 39.1706 28.7024 38.7997 28.8075L34.8312 29.8713L31.2408 27.7996L32.5845 27.4426C32.9555 27.3377 33.1795 26.9527 33.0815 26.5818C32.9765 26.2108 32.5986 25.9868 32.2206 26.0848L29.526 26.8057L26.3974 25.007L29.533 23.1942L32.2206 23.9152C32.2836 23.9361 32.3396 23.9431 32.4026 23.9431C32.7105 23.9431 32.9975 23.7332 33.0815 23.4252C33.1795 23.0473 32.9555 22.6623 32.5845 22.5643L31.2477 22.2074L34.8312 20.1357L38.7997 21.1995C38.8627 21.2135 38.9187 21.2205 38.9817 21.2205C39.2897 21.2205 39.5696 21.0176 39.6536 20.7026C39.7586 20.3316 39.5346 19.9467 39.1637 19.8487L36.546 19.1488L39.8985 17.2101C40.2345 17.0141 40.3465 16.5871 40.1505 16.2512C39.9615 15.9153 39.5276 15.8033 39.1987 15.9992L35.8461 17.9379L36.546 15.3133C36.644 14.9424 36.427 14.5574 36.0491 14.4594C35.6711 14.3545 35.2932 14.5784 35.1952 14.9494L34.1314 18.9248L30.5478 20.9966L30.9048 19.6527C31.0028 19.2818 30.7788 18.8968 30.4079 18.7989C30.0299 18.6938 29.652 18.9178 29.547 19.2888L28.8331 21.9834L25.6975 23.7892V20.1777L27.6712 18.2039C27.9442 17.931 27.9442 17.49 27.6712 17.2171C27.3983 16.9441 26.9503 16.9441 26.6774 17.2171L25.6975 18.197V14.0605L28.6021 11.1489C28.8821 10.876 28.8821 10.435 28.6021 10.162C28.3291 9.88907 27.8882 9.88907 27.6153 10.162L25.6975 12.0728V8.20231C25.6975 7.81738 25.3826 7.50239 24.9976 7.50239C24.6126 7.50239 24.2977 7.81738 24.2977 8.20231V12.0728L22.38 10.162C22.107 9.88907 21.6661 9.88907 21.3931 10.162C21.1202 10.435 21.1202 10.876 21.3931 11.1489L24.2977 14.0535V18.197L23.3178 17.2171C23.0449 16.9441 22.6039 16.9441 22.3309 17.2171C22.058 17.49 22.058 17.931 22.3309 18.2039L24.2977 20.1706V23.7892L21.1691 21.9834L20.4482 19.2888C20.3502 18.9178 19.9653 18.6938 19.5944 18.7989C19.2164 18.8968 18.9925 19.2818 19.0974 19.6527L19.4614 20.9966L15.8639 18.9248L14.807 14.9494C14.7021 14.5784 14.3241 14.3545 13.9461 14.4594C13.5752 14.5574 13.3512 14.9424 13.4562 15.3133L14.1561 17.931L10.8036 15.9992C10.4676 15.8033 10.0406 15.9153 9.84472 16.2512C9.65572 16.5871 9.76772 17.0141 10.1037 17.2101L13.4562 19.1488L10.8386 19.8487C10.4606 19.9467 10.2437 20.3316 10.3416 20.7026C10.4256 21.0176 10.7056 21.2205 11.0206 21.2205C11.0766 21.2205 11.1395 21.2135 11.1955 21.1995L15.171 20.1357L18.7545 22.2074L17.4177 22.5643C17.0397 22.6623 16.8227 23.0473 16.9207 23.4252C17.0047 23.7332 17.2847 23.9431 17.5926 23.9431C17.6556 23.9431 17.7186 23.9361 17.7746 23.9152L20.4622 23.1942L23.5978 25.007L20.4762 26.8057L17.7746 26.0848C17.4037 25.9868 17.0187 26.2108 16.9207 26.5818C16.8227 26.9527 17.0397 27.3377 17.4177 27.4426L18.7615 27.7996L15.171 29.8713L11.1955 28.8075C10.8245 28.7095 10.4396 28.9264 10.3416 29.2974C10.2437 29.6753 10.4606 30.0603 10.8386 30.1583L13.4562 30.8582L10.1037 32.7969C9.76772 32.9858 9.65572 33.4128 9.84472 33.7488Z" fill="#F6F6F6"/>
</svg>
