<svg width="567" height="320" viewBox="0 0 567 320" fill="none" xmlns="http://www.w3.org/2000/svg">
<path d="M327 306.133C369.667 270.293 402.947 240.213 426.84 215.893C451.16 191.147 469.08 168.747 480.6 148.693C492.12 128.64 497.88 108.8 497.88 89.1733C497.88 67.84 491.907 50.9867 479.96 38.6133C468.44 25.8133 451.8 19.4133 430.04 19.4133C387.8 19.4133 358.573 46.08 342.36 99.4134C342.36 100.267 341.507 100.693 339.8 100.693C338.52 100.693 337.24 100.48 335.96 100.053C334.68 99.2 334.253 98.56 334.68 98.1334L359.64 0.853325C360.067 -9.89437e-06 361.347 -0.213333 363.48 0.213341C366.04 0.640002 367.107 1.28 366.68 2.13334C366.253 4.26667 366.04 6.82667 366.04 9.81333C366.04 17.4933 369.667 21.3333 376.92 21.3333C381.187 21.3333 387.8 19.84 396.76 16.8533C406.573 13.44 415.32 10.88 423 9.17333C431.107 7.46666 440.28 6.61334 450.52 6.61334C477.827 6.61334 499.587 13.8667 515.8 28.3733C532.44 42.88 540.76 61.8667 540.76 85.3333C540.76 103.68 535 121.6 523.48 139.093C511.96 156.587 495.747 174.72 474.84 193.493C454.36 212.267 421.507 240.427 376.28 277.973C374.573 279.253 373.933 280.32 374.36 281.173C375.213 282.027 376.707 282.453 378.84 282.453C435.587 282.453 474.84 281.813 496.6 280.533C518.36 278.827 533.507 275.413 542.04 270.293C550.574 264.747 556.547 254.933 559.96 240.853C560.387 240 561.667 239.787 563.8 240.213C565.933 240.213 567 240.64 567 241.493L558.68 306.773C558.68 308.48 558.04 310.187 556.76 311.893C555.907 313.173 554.627 313.813 552.92 313.813H331.48C329.347 313.813 327.64 312.96 326.36 311.253C325.507 309.547 325.72 307.84 327 306.133Z" fill="white"/>
<path d="M150.821 320C121.671 320 95.6891 313.426 72.8758 300.278C50.0625 286.706 32.1076 268.045 19.0111 244.294C6.33703 220.119 0 192.552 0 161.591C0 131.479 6.33703 104.759 19.0111 81.4325C32.1076 58.1059 50.0625 40.0809 72.8758 27.3573C96.1116 14.2096 122.305 7.63574 151.455 7.63574C180.183 7.63574 205.742 14.2096 228.133 27.3573C250.946 40.505 268.479 58.9542 280.73 82.7048C293.404 106.031 299.742 132.963 299.742 163.5C299.742 194.036 293.404 221.18 280.73 244.93C268.056 268.681 250.313 287.13 227.499 300.278C205.109 313.426 179.549 320 150.821 320ZM158.426 311.093C190.533 311.093 214.403 298.794 230.034 274.195C245.666 249.172 253.481 214.818 253.481 171.134C253.481 136.78 248.623 107.94 238.906 84.6134C229.189 61.2868 216.093 44.11 199.616 33.0829C183.14 21.6317 164.763 15.9061 144.484 15.9061C113.222 15.9061 88.7184 29.0538 70.9747 55.3491C53.2311 81.2204 44.3592 115.15 44.3592 157.138C44.3592 186.826 49.0064 213.334 58.3007 236.66C67.595 259.987 80.9027 278.224 98.224 291.372C115.545 304.519 135.612 311.093 158.426 311.093Z" fill="white"/>
</svg>
