<svg width="501" height="313" viewBox="0 0 501 313" fill="none" xmlns="http://www.w3.org/2000/svg">
<path d="M341.307 304.73C340.039 304.73 339.406 303.457 339.406 300.913C339.406 298.368 340.039 297.096 341.307 297.096C358.628 297.096 371.302 296.035 379.329 293.915C387.778 291.37 393.482 287.129 396.439 281.191C399.819 275.253 401.509 265.923 401.509 253.199V80.7947C401.509 65.1023 400.452 54.0752 398.34 47.7134C396.228 41.3516 391.792 38.1707 385.032 38.1707C377.428 38.1707 362.853 43.0481 341.307 52.8028H340.673C338.561 52.8028 337.082 51.7425 336.237 49.6219C335.392 47.5014 335.815 46.229 337.505 45.8049L433.194 0.636179C433.616 0.212053 434.25 0 435.095 0C435.94 0 436.785 0.636172 437.63 1.90854C438.475 2.75677 438.897 3.81707 438.897 5.08944V253.199C438.897 266.347 440.164 275.89 442.699 281.827C445.657 287.765 451.36 291.794 459.809 293.915C468.259 296.035 481.566 297.096 499.733 297.096C500.577 297.096 501 298.368 501 300.913C501 303.457 500.577 304.73 499.733 304.73C485.791 304.73 475.018 304.518 467.414 304.094L420.52 303.457L374.259 304.094C366.232 304.518 355.248 304.73 341.307 304.73Z" fill="white"/>
<path d="M150.821 313C121.671 313 95.6891 306.426 72.8758 293.278C50.0625 279.706 32.1076 261.045 19.0111 237.294C6.33703 213.119 0 185.552 0 154.591C0 124.479 6.33703 97.759 19.0111 74.4325C32.1076 51.1059 50.0625 33.0809 72.8758 20.3573C96.1116 7.20959 122.305 0.635742 151.455 0.635742C180.183 0.635742 205.742 7.20959 228.133 20.3573C250.946 33.505 268.479 51.9542 280.73 75.7048C293.404 99.0314 299.742 125.963 299.742 156.5C299.742 187.036 293.404 214.18 280.73 237.93C268.056 261.681 250.313 280.13 227.499 293.278C205.109 306.426 179.549 313 150.821 313ZM158.426 304.093C190.533 304.093 214.403 291.794 230.034 267.195C245.666 242.172 253.481 207.818 253.481 164.134C253.481 129.78 248.623 100.94 238.906 77.6134C229.189 54.2868 216.093 37.11 199.616 26.0829C183.14 14.6317 164.763 8.90605 144.484 8.90605C113.222 8.90605 88.7184 22.0538 70.9747 48.3491C53.2311 74.2204 44.3592 108.15 44.3592 150.138C44.3592 179.826 49.0064 206.334 58.3007 229.66C67.595 252.987 80.9027 271.224 98.224 284.372C115.545 297.519 135.612 304.093 158.426 304.093Z" fill="white"/>
</svg>
