<svg width="320" height="278" viewBox="0 0 320 278" fill="none" xmlns="http://www.w3.org/2000/svg">
<path d="M56.9857 266.697L33.6459 277.912C33.1513 278.147 32.5493 277.912 31.8183 277.187C31.0872 276.461 30.8399 275.853 31.0872 275.373L132.101 72.3423C132.832 70.6563 132.219 69.8133 130.273 69.8133C89.4314 69.8133 61.2967 70.3042 45.8587 71.2645C30.4207 72.2356 20.3365 74.2203 15.5954 77.2401C10.8544 80.2599 7.14536 85.99 4.47919 94.4305C4.47919 95.1561 3.98465 95.5189 3.01709 95.5189C2.28604 95.5189 1.55499 95.3375 0.823942 94.9747C0.0928936 94.6119 -0.154373 94.1958 0.0928936 93.7049L12.8647 41.5788C13.1013 41.0986 13.9613 40.9172 15.4127 41.0346C16.8748 41.1626 17.4768 41.4614 17.2403 41.9416C16.993 42.9126 16.8748 44.1184 16.8748 45.5589C16.8748 47.9705 18.0251 49.5391 20.3365 50.2647C22.6479 50.9903 27.3245 51.3531 34.3769 51.3531H143.765C144.98 51.3531 145.894 51.8973 146.496 52.9857C147.098 54.0741 147.163 55.0985 146.679 56.0589L64.6402 258.012C62.6943 262.109 60.1357 265.012 56.9857 266.697Z" fill="white"/>
<path d="M307.683 127.191C315.887 136.129 320 147.118 320 160.157C320 171.744 316.614 182.498 309.852 192.397C303.09 202.296 293.85 210.21 282.131 216.126C270.413 222.042 257.797 225 244.274 225C230.75 225 217.579 221.134 206.234 213.413C194.879 205.692 186.002 194.821 179.603 180.81C173.205 166.81 170 150.995 170 133.364C170 112.123 174.828 92.0146 184.496 73.0594C194.153 54.1042 208.413 38.0536 227.246 24.8865C246.09 11.7086 268.554 3.43237 294.64 0.0578106C295.602 -0.177127 296.211 0.303427 296.456 1.51015C296.691 2.71688 296.456 3.44305 295.73 3.67799C273.746 8.02434 255.266 16.3539 240.3 28.6668C225.323 40.9797 214.086 55.6526 206.608 72.6749C199.12 89.6972 195.381 107.51 195.381 126.102C195.381 142.035 197.859 157.071 202.805 171.199C207.751 185.328 214.759 196.679 223.817 205.244C232.876 213.819 243.205 218.101 254.796 218.101C267.112 218.101 276.769 213.702 283.777 204.881C290.784 196.071 294.288 184.302 294.288 169.565C294.288 154.828 291.147 144.459 284.866 136.236C278.585 128.035 269.526 123.923 257.691 123.923C251.174 123.923 245.128 125.194 239.573 127.725C234.019 130.267 227.983 134.549 221.456 140.583C221.211 140.828 220.847 140.946 220.367 140.946C219.64 140.946 218.914 140.583 218.188 139.856C217.461 139.13 217.215 138.532 217.461 138.041C223.742 130.074 231.466 124.041 240.652 119.929C249.828 115.829 259.859 113.768 270.723 113.768C287.141 113.768 299.469 118.242 307.683 127.17V127.191Z" fill="white"/>
</svg>
