<svg width="488" height="424" viewBox="0 0 488 424" fill="none" xmlns="http://www.w3.org/2000/svg">
<path d="M86.8353 406.736L51.2699 423.866C50.5163 424.225 49.5989 423.866 48.485 422.758C47.371 421.649 46.9942 420.72 47.371 419.987L201.297 109.873C202.411 107.298 201.477 106.01 198.512 106.01C136.276 106.01 93.4045 106.76 69.8799 108.227C46.3553 109.71 30.9889 112.742 23.7645 117.354C16.54 121.967 10.8882 130.719 6.82543 143.611C6.82543 144.719 6.07185 145.274 4.59747 145.274C3.48349 145.274 2.36951 144.997 1.25553 144.442C0.141552 143.888 -0.235235 143.253 0.141552 142.503L19.6034 62.8841C19.9638 62.1506 21.2744 61.8735 23.486 62.0528C25.7139 62.2484 26.6313 62.7048 26.2709 63.4382C25.8941 64.9214 25.7139 66.7631 25.7139 68.9634C25.7139 72.6469 27.4668 75.0428 30.9889 76.1511C34.5111 77.2594 41.6373 77.8136 52.3839 77.8136H219.071C220.922 77.8136 222.315 78.6448 223.232 80.3073C224.15 81.9697 224.248 83.5344 223.511 85.0013L98.4994 393.469C95.5342 399.728 91.6353 404.161 86.8353 406.736Z" fill="#F6F6F6"/>
<path d="M469.197 193.896C481.721 207.522 488 224.273 488 244.151C488 261.814 482.83 278.207 472.507 293.299C462.184 308.39 448.078 320.453 430.187 329.472C412.297 338.491 393.037 343 372.391 343C351.745 343 331.637 337.107 314.317 325.337C296.982 313.567 283.43 296.994 273.661 275.635C263.892 254.293 259 230.183 259 203.305C259 170.925 266.371 140.271 281.13 111.375C295.873 82.4788 317.644 58.0107 346.396 37.938C375.163 17.8491 409.46 5.23246 449.284 0.0881291C450.752 -0.27002 451.682 0.462558 452.057 2.30214C452.416 4.14173 452.057 5.24874 450.948 5.60689C417.385 12.2327 389.172 24.9307 366.324 43.701C343.46 62.4713 326.304 84.8393 314.888 110.789C303.456 136.738 297.748 163.893 297.748 192.235C297.748 216.524 301.532 239.446 309.083 260.984C316.633 282.522 327.331 299.827 341.161 312.883C354.99 325.955 370.76 332.483 388.455 332.483C407.258 332.483 422.001 325.776 432.699 312.329C443.397 298.899 448.746 280.959 448.746 258.493C448.746 236.027 443.952 220.22 434.362 207.685C424.773 195.182 410.944 188.914 392.874 188.914C382.926 188.914 373.696 190.852 365.215 194.71C356.735 198.584 347.521 205.112 337.557 214.31C337.182 214.685 336.627 214.864 335.893 214.864C334.784 214.864 333.675 214.31 332.566 213.203C331.457 212.096 331.082 211.185 331.457 210.436C341.047 198.291 352.837 189.093 366.863 182.826C380.871 176.574 396.185 173.432 412.77 173.432C437.836 173.432 456.656 180.254 469.197 193.863V193.896Z" fill="#F6F6F6"/>
</svg>
