<svg width="425" height="469" viewBox="0 0 425 469" fill="none" xmlns="http://www.w3.org/2000/svg">
<g opacity="0.03">
<path d="M229.646 50.0117L275.408 -55H260.613L214.977 50.0117H229.646Z" fill="black"/>
<path fill-rule="evenodd" clip-rule="evenodd" d="M332.087 464.767L316.798 468.077H425L416.435 464.821C409.67 461.647 403.618 457.149 398.64 451.598C393.663 446.046 389.861 439.554 387.463 432.51C368.71 390.618 338.234 322.649 310.405 260.585C278.417 189.247 249.928 125.71 246.762 118.544C244.046 112.396 241.356 106.617 238.754 101.026C235.684 94.4301 232.736 88.0958 230.009 81.7247V80.7226H168.665V84.1038C175.915 85.2946 182.521 88.9589 187.348 94.4669C192.176 99.9748 194.923 106.983 195.117 114.286V116.039C195.18 117.249 195.18 118.461 195.117 119.671C194.845 123.307 193.815 126.846 192.094 130.066L163.374 194.437C144.858 236.266 125.585 279.472 106.313 321.927L99.637 336.579C94.4452 348.238 89.1262 359.833 83.8156 371.41C81.6531 376.124 79.492 380.835 77.3414 385.547C74.9501 390.802 72.559 396.433 70.1677 402.063L70.1616 402.078L68.0203 407.338C66.1308 411.972 64.1154 416.73 61.7221 421.239C57.6754 431.72 51.1781 441.093 42.7675 448.584C34.3568 456.075 24.2741 461.469 13.3523 464.32L0 467.701H102.66V464.32C97.0086 464.408 91.4141 463.186 86.3199 460.752C81.2257 458.317 76.7717 454.736 73.3107 450.294C71.4462 446.354 70.5429 442.032 70.6742 437.68C70.8055 433.328 71.9677 429.068 74.0664 425.246L104.298 357.619C104.665 356.961 104.947 356.303 105.218 355.67C105.412 355.219 105.6 354.78 105.809 354.363C105.984 354.016 106.233 353.549 106.517 353.02C107.053 352.019 107.708 350.794 108.203 349.729C109.406 348.065 110.946 346.67 112.726 345.634C114.505 344.599 116.483 343.946 118.531 343.718H292.613C294.662 343.946 296.639 344.599 298.418 345.634C300.198 346.67 301.739 348.065 302.942 349.729L303.949 351.858C305.839 355.866 307.602 359.748 309.24 363.756C318.687 384.67 328.638 407.713 340.731 436.142C343.579 441.567 344.678 447.732 343.88 453.8C342.848 456.414 341.235 458.762 339.164 460.67C337.136 462.538 334.72 463.936 332.087 464.767ZM291.079 329.946C291.539 329.706 291.935 329.362 292.235 328.94L292.865 327.813C293.085 327.387 293.201 326.914 293.201 326.435C293.201 325.956 293.085 325.484 292.865 325.058C287.372 312.741 281.264 299.071 274.897 284.818C260.675 252.984 245.153 218.242 232.276 189.177L208.847 137.204C208.613 136.68 208.22 136.241 207.724 135.949C207.227 135.657 206.651 135.527 206.076 135.576C205.49 135.555 204.911 135.711 204.416 136.024C203.921 136.337 203.534 136.792 203.305 137.329L118.279 326.06C118.057 326.508 117.942 327.001 117.942 327.5C117.942 327.999 118.057 328.492 118.279 328.94C118.532 329.377 118.901 329.736 119.345 329.979C119.79 330.222 120.292 330.339 120.799 330.318H289.59C290.109 330.313 290.619 330.186 291.079 329.946Z" fill="black"/>
</g>
</svg>
