<svg width="32" height="32" viewBox="0 0 32 32" fill="none" xmlns="http://www.w3.org/2000/svg">
<path d="M20.7781 18.2417C21.6778 17.3037 22.3436 16.4516 22.7733 15.6847C23.2038 14.9177 23.4187 14.1594 23.4187 13.4091C23.4187 12.5938 23.1996 11.9451 22.7614 11.4639C22.3231 10.9827 21.6982 10.7417 20.8859 10.7417C19.3085 10.7417 18.2172 11.7612 17.6121 13.8008C17.6121 13.834 17.5797 13.8499 17.5162 13.8499C17.4683 13.8499 17.4204 13.8376 17.3725 13.8131C17.3246 13.7886 17.3084 13.7684 17.3246 13.7518L18.2567 10.0324C18.2722 9.99997 18.3243 9.99204 18.4117 10.0079C18.499 10.0245 18.535 10.049 18.5195 10.0815C18.5033 10.163 18.4955 10.2612 18.4955 10.3752C18.4955 10.6688 18.6308 10.816 18.902 10.816C19.0612 10.816 19.3085 10.759 19.6425 10.645C20.0088 10.5144 20.3392 10.417 20.6344 10.3513C20.9289 10.2864 21.2678 10.2532 21.6503 10.2532C22.6698 10.2532 23.4863 10.531 24.0999 11.0851C24.7129 11.6399 25.02 12.3658 25.02 13.2633C25.02 13.9646 24.8051 14.6501 24.3747 15.3189C23.9442 15.9877 23.3433 16.6811 22.5704 17.399C21.7976 18.1169 20.5668 19.1941 18.8788 20.6291C18.8147 20.6782 18.7949 20.7193 18.8189 20.7518C18.8428 20.785 18.8943 20.8009 18.9739 20.8009C21.0924 20.8009 22.5585 20.7727 23.3708 20.715C24.1831 20.658 24.7488 20.5274 25.0672 20.3232C25.3857 20.119 25.6083 19.7482 25.7365 19.21C25.752 19.1775 25.7999 19.1652 25.8802 19.1732C25.9598 19.1818 26 19.202 26 19.2345L25.6893 21.7309C25.6893 21.7965 25.6689 21.8571 25.6294 21.9141C25.5893 21.9711 25.5378 22 25.4744 22H17.2063C17.1267 22 17.0668 21.9675 17.0273 21.9019C16.9872 21.8369 16.9914 21.7713 17.0393 21.7063C18.6322 20.3362 19.8785 19.1818 20.7789 18.2439L20.7781 18.2417Z" fill="#131411"/>
<path d="M15.1789 15.9141C15.7258 16.4703 16 17.154 16 17.9653C16 18.6863 15.7742 19.3554 15.3235 19.9714C14.8727 20.5873 14.2567 21.0797 13.4754 21.4478C12.6942 21.8159 11.8532 22 10.9516 22C10.05 22 9.17191 21.7595 8.41561 21.2791C7.6586 20.7986 7.0668 20.1222 6.64022 19.2504C6.21293 18.378 6 17.3939 6 16.2969C6 14.9752 6.32189 13.724 6.96639 12.5446C7.61017 11.3652 8.56089 10.3665 9.81641 9.54716C11.0726 8.72853 12.5703 8.21357 14.3094 8.0036C14.3735 7.98898 14.414 8.01888 14.4304 8.09397C14.4461 8.16905 14.4304 8.21423 14.382 8.22952C12.9164 8.49996 11.6844 9.01824 10.6867 9.78438C9.68822 10.5505 8.93904 11.4635 8.44054 12.5227C7.94132 13.5818 7.69207 14.6902 7.69207 15.847C7.69207 16.8384 7.85729 17.774 8.18701 18.6531C8.51674 19.5322 8.98391 20.2385 9.58781 20.7714C10.1917 21.305 10.8804 21.5714 11.653 21.5714C12.4741 21.5714 13.1179 21.2977 13.5851 20.7488C14.0523 20.2006 14.2859 19.4684 14.2859 18.5514C14.2859 17.6344 14.0765 16.9892 13.6577 16.4776C13.239 15.9673 12.6351 15.7115 11.846 15.7115C11.4116 15.7115 11.0085 15.7905 10.6382 15.948C10.2679 16.1061 9.86555 16.3726 9.43042 16.748C9.41404 16.7633 9.38983 16.7706 9.35778 16.7706C9.30936 16.7706 9.26093 16.748 9.21251 16.7028C9.16408 16.6577 9.1477 16.6204 9.16408 16.5899C9.58282 16.0942 10.0977 15.7188 10.7102 15.4629C11.3219 15.2078 11.9906 15.0795 12.7149 15.0795C13.8094 15.0795 14.6312 15.358 15.1789 15.9135V15.9141Z" fill="#131411"/>
<rect x="0.25" y="0.25" width="31.5" height="31.5" rx="15.75" stroke="black" stroke-width="0.5"/>
</svg>
