<svg width="32" height="32" viewBox="0 0 32 32" fill="none" xmlns="http://www.w3.org/2000/svg">
<path d="M9.48892 24.2846L8.05995 24.9944C8.02967 25.0093 7.99281 24.9944 7.94806 24.9485C7.9033 24.9026 7.88816 24.8641 7.9033 24.8337L14.0878 11.9837C14.1326 11.877 14.0951 11.8236 13.9759 11.8236C11.4754 11.8236 9.75286 11.8547 8.80768 11.9155C7.86249 11.9769 7.24509 12.1026 6.95482 12.2937C6.66455 12.4848 6.43747 12.8475 6.27424 13.3817C6.27424 13.4276 6.24396 13.4506 6.18472 13.4506C6.13996 13.4506 6.0952 13.4391 6.05045 13.4161C6.00569 13.3932 5.99055 13.3668 6.00569 13.3358L6.78764 10.0366C6.80212 10.0062 6.85477 9.99476 6.94363 10.0022C7.03315 10.0103 7.07001 10.0292 7.05553 10.0596C7.04039 10.1211 7.03315 10.1974 7.03315 10.2885C7.03315 10.4412 7.10358 10.5404 7.24509 10.5864C7.38661 10.6323 7.67293 10.6553 8.10471 10.6553H14.802C14.8763 10.6553 14.9323 10.6897 14.9692 10.7586C15.006 10.8275 15.01 10.8923 14.9803 10.9531L9.95756 23.7349C9.83843 23.9942 9.68177 24.1779 9.48892 24.2846Z" fill="#131411"/>
<path d="M25.1789 14.9141C25.7258 15.4703 26 16.154 26 16.9653C26 17.6863 25.7742 18.3554 25.3235 18.9714C24.8727 19.5873 24.2567 20.0797 23.4754 20.4478C22.6942 20.8159 21.8532 21 20.9516 21C20.05 21 19.1719 20.7595 18.4156 20.2791C17.6586 19.7986 17.0668 19.1222 16.6402 18.2504C16.2136 17.3793 16 16.3952 16 15.2982C16 13.9765 16.3219 12.7254 16.9664 11.5459C17.6102 10.3665 18.5609 9.36778 19.8164 8.54849C21.0726 7.72853 22.5703 7.21357 24.3094 7.0036C24.3735 6.98898 24.414 7.01888 24.4304 7.09397C24.4461 7.16905 24.4304 7.21423 24.382 7.22885C22.9164 7.49929 21.6844 8.01758 20.6867 8.78371C19.6882 9.54985 18.939 10.4628 18.4405 11.522C17.9413 12.5812 17.6921 13.6895 17.6921 14.8463C17.6921 15.8377 17.8573 16.7733 18.187 17.6524C18.5167 18.5315 18.9839 19.2378 19.5878 19.7707C20.1917 20.3043 20.8804 20.5708 21.653 20.5708C22.4742 20.5708 23.1179 20.297 23.5851 19.7481C24.0523 19.2 24.2859 18.4677 24.2859 17.5507C24.2859 16.6338 24.0765 15.9886 23.6577 15.4769C23.239 14.9666 22.6351 14.7108 21.846 14.7108C21.4116 14.7108 21.0085 14.7899 20.6382 14.9473C20.2679 15.1055 19.8655 15.3719 19.4304 15.7474C19.414 15.7626 19.3898 15.77 19.3578 15.77C19.3094 15.77 19.2609 15.7474 19.2125 15.7022C19.1641 15.657 19.1477 15.6198 19.1641 15.5892C19.5828 15.0935 20.0977 14.7181 20.7102 14.4623C21.3219 14.2071 21.9906 14.0789 22.7149 14.0789C23.8094 14.0789 24.6312 14.3573 25.1789 14.9128V14.9141Z" fill="#131411"/>
<rect x="0.25" y="0.25" width="31.5" height="31.5" rx="15.75" stroke="black" stroke-width="0.5"/>
</svg>
