<svg width="140" height="37" viewBox="0 0 140 37" fill="none" xmlns="http://www.w3.org/2000/svg">
<path d="M12.2299 2.24219L10.4986 6.16354H9.94425L11.6713 2.24219H12.2299Z" fill="#131411"/>
<path fill-rule="evenodd" clip-rule="evenodd" d="M38.2376 14.6711C37.4657 13.8284 36.485 13.3075 35.0522 12.9857C34.9754 12.9687 34.8432 12.9391 34.7281 12.9094C34.8432 12.8756 34.9839 12.8332 35.1204 12.7866C35.517 12.6511 36.1737 12.4267 36.6342 12.0329C37.2312 11.5924 37.5553 10.8302 37.4999 10.0002C37.4402 9.1109 36.9753 8.34018 36.2547 7.93788C35.7515 7.65839 35.001 7.31962 34.2889 7.31115C34.1036 7.31115 33.9002 7.30788 33.6828 7.30439C33.5501 7.30226 33.412 7.30005 33.2697 7.29844H29.7218C29.1675 7.29844 28.6515 7.29844 28.2166 7.30691H26.6132L26.8733 7.42972C27.385 7.66263 27.6452 8.13268 27.6452 8.82718C27.6665 12.5791 27.6707 16.6656 27.6707 19.812C27.6707 20.5065 27.6707 21.29 26.8222 21.7388L26.6004 21.8574H26.852C26.852 21.8574 27.9522 21.8659 29.304 21.8659C30.7623 21.8659 32.5405 21.8574 33.645 21.8193C34.6044 21.7854 35.5937 21.6118 36.5191 21.3154C37.8111 20.9004 38.7962 19.8459 39.1544 18.4908C39.5211 17.1145 39.1757 15.6832 38.2376 14.6669V14.6711ZM29.2357 12.27C29.2443 11.8169 29.2443 11.3511 29.2357 10.9064V9.82233C29.2357 9.68679 29.2362 9.54549 29.2366 9.40173V9.39411C29.2376 9.09558 29.2386 8.78669 29.2357 8.49687V8.14962C29.2357 7.90401 29.2826 7.78543 29.547 7.78543H33.3081C34.5959 7.78543 35.6875 8.74672 35.7984 9.97478V10.0002C35.888 11.097 35.517 11.9524 34.7878 12.342C34.3486 12.5791 33.5 12.6638 33.0394 12.6638H29.5427C29.2826 12.6638 29.2357 12.5495 29.2315 12.3251V12.27H29.2357ZM37.5638 17.9445C37.4188 19.342 37.082 20.2694 35.7643 20.9088C35.7545 20.9147 35.7385 20.9232 35.7235 20.9311C35.7059 20.9404 35.6898 20.9489 35.6875 20.9512C35.1076 21.1798 33.4787 21.3704 33.0437 21.3704H29.5001C29.2912 21.3577 29.2315 21.2688 29.2357 20.9808V20.6632C29.2443 19.8756 29.2443 19.0752 29.2357 18.3002V16.4963C29.2357 16.208 29.2362 15.9164 29.2367 15.6238V15.6226C29.2376 15.0343 29.2386 14.4417 29.2357 13.8623V13.5023C29.2357 13.3541 29.257 13.2694 29.3082 13.2186C29.3551 13.172 29.4319 13.1508 29.547 13.1508H32.9968C33.7473 13.1508 34.792 13.388 35.662 13.7606C36.8901 14.2815 37.6022 15.5985 37.6022 17.2754C37.6022 17.4914 37.5894 17.7159 37.5638 17.9445Z" fill="#131411"/>
<path fill-rule="evenodd" clip-rule="evenodd" d="M14.3876 21.7346L13.7991 21.8616H17.8587L17.5346 21.7388C16.9376 21.5101 16.6604 20.9935 16.4472 20.5235C15.7355 18.939 14.5766 16.3548 13.5234 14.0065L13.5176 13.9934C12.3269 11.3384 11.2729 8.988 11.1553 8.72976C10.9336 8.25124 10.7161 7.78119 10.5242 7.34925L10.5071 7.31113H8.20017L8.19164 7.43817C8.75025 7.52287 9.18947 8.02257 9.18947 8.56884V8.6366C9.18947 8.65042 9.18993 8.66513 9.19039 8.68016C9.19135 8.71119 9.19234 8.7436 9.18947 8.77211C9.17241 8.93726 9.14256 9.02196 9.07434 9.16594C8.89537 9.56793 8.71535 9.97098 8.53532 10.374L8.53425 10.3764C8.35431 10.7793 8.17436 11.1822 7.99548 11.584C7.29614 13.155 6.57122 14.7769 5.85056 16.3692L5.59897 16.9239C5.32179 17.538 5.04035 18.152 4.75891 18.7618C4.69175 18.9111 4.62458 19.0675 4.55742 19.2239C4.53504 19.2761 4.51265 19.3282 4.49026 19.3801L4.40924 19.5791C4.33675 19.7527 4.25999 19.9306 4.17045 20.1L4.16192 20.1169C3.84636 20.7733 3.38156 21.4763 2.34108 21.7346L1.84216 21.8616H5.70131L5.70984 21.7346C5.1427 21.6711 4.77171 21.4932 4.6054 21.2095C4.46468 20.9681 4.47321 20.6505 4.63525 20.2651L5.67999 17.9403C5.70984 17.8683 5.73969 17.8005 5.77381 17.7285C5.78871 17.6989 5.80154 17.6693 5.81374 17.6412C5.81898 17.629 5.82411 17.6172 5.82924 17.6057C5.85475 17.5614 5.87549 17.5194 5.89681 17.4763L5.90865 17.4524L5.91879 17.4321L5.92732 17.4109C5.97422 17.3051 6.17891 17.1992 6.31536 17.1865C6.38441 17.1784 6.46118 17.1742 6.53464 17.1702L6.54563 17.1696H12.6776C12.7587 17.1696 12.8354 17.178 12.9079 17.1865C13.0444 17.1992 13.249 17.3051 13.2959 17.4109L13.3343 17.4914C13.4026 17.6396 13.4708 17.7878 13.5305 17.9403C13.8887 18.7237 14.2639 19.5876 14.7159 20.659C14.8012 20.8707 14.895 21.1417 14.8353 21.3196C14.7799 21.4847 14.5838 21.6922 14.3876 21.7346ZM12.8908 16.6317C12.8695 16.6614 12.8311 16.6826 12.7928 16.6826H6.42624C6.38786 16.6826 6.35374 16.6656 6.33242 16.6317C6.3111 16.5979 6.30684 16.5598 6.32389 16.5216L9.51782 9.43273C9.53914 9.39038 9.57752 9.36497 9.62443 9.36497C9.67133 9.36497 9.70971 9.38614 9.72677 9.42849L10.618 11.423C11.3216 13.0026 12.2299 15.031 12.8994 16.5259C12.9122 16.5598 12.9122 16.5979 12.8908 16.6317Z" fill="#131411"/>
<path d="M126.746 8.88224C126.759 9.10244 126.772 16.763 126.759 20.0068L126.759 20.022C126.755 20.5561 126.75 21.1583 126.247 21.561C126.166 21.6245 126.073 21.688 125.962 21.7431L125.723 21.8616H129.424L129.143 21.7388C129.019 21.688 128.908 21.6245 128.815 21.5567C128.375 21.2222 128.316 20.7479 128.294 20.2906C128.29 20.1212 128.282 19.7104 128.277 19.4055L128.277 18.9302C128.277 17.7131 128.274 12.1376 128.286 9.16596C128.286 8.62815 128.29 8.01412 128.798 7.61182C128.879 7.54406 128.977 7.48054 129.079 7.42973L129.322 7.30692H125.621L125.902 7.42973C126.026 7.48478 126.137 7.54406 126.226 7.61605C126.67 7.9506 126.729 8.44182 126.746 8.88224Z" fill="#131411"/>
<path d="M137.326 15.1835C137.326 15.5985 136.989 15.9373 136.571 15.9373C136.153 15.9373 135.816 15.5985 135.816 15.1835C135.816 14.7685 136.153 14.4339 136.571 14.4339C136.989 14.4339 137.326 14.7727 137.326 15.1835Z" fill="#131411"/>
<path d="M137.326 21.1121C137.326 21.526 136.988 21.8616 136.571 21.8616C136.154 21.8616 135.816 21.526 135.816 21.1121C135.816 20.6981 136.154 20.3625 136.571 20.3625C136.988 20.3625 137.326 20.6981 137.326 21.1121Z" fill="#131411"/>
<path fill-rule="evenodd" clip-rule="evenodd" d="M74.3345 21.8405C73.955 21.8235 73.584 21.7769 73.213 21.705C72.3047 21.5271 71.4604 21.1883 70.68 20.6844C69.8997 20.1805 69.243 19.5537 68.7398 18.7745C68.1129 17.809 67.7888 16.7419 67.6609 15.6112C67.6458 15.4685 67.6351 15.3258 67.6246 15.184C67.6172 15.0859 67.6099 14.9882 67.6012 14.8913C67.6012 14.8532 67.594 14.8151 67.5868 14.7769C67.5844 14.7642 67.582 14.7515 67.5799 14.7388V14.2222C67.5822 14.2041 67.5848 14.1864 67.5873 14.1687C67.5943 14.1203 67.6012 14.0729 67.6012 14.0232C67.6183 13.6463 67.6652 13.2736 67.7377 12.901C67.9296 11.927 68.3133 11.0292 68.8762 10.2119C69.3666 9.5005 69.9679 8.90764 70.6971 8.44605C71.6992 7.81085 72.8121 7.45513 73.9891 7.34503C74.1639 7.32809 74.7907 7.30268 74.9315 7.30268C75.1082 7.30268 75.4208 7.32243 75.6326 7.33581L75.7118 7.34079C76.151 7.38314 76.3813 7.41702 76.7992 7.51018C77.8781 7.74733 78.8503 8.20468 79.7074 8.89917C80.5432 9.58096 81.1829 10.4067 81.6093 11.3934C81.9717 12.2361 82.1381 13.1254 82.1978 14.0359C82.2073 14.1815 82.2097 14.3295 82.2121 14.4762L82.2122 14.4789C82.213 14.5276 82.2138 14.5762 82.2148 14.6245C82.2233 15.0988 82.1892 15.5731 82.1125 16.0389C81.9675 16.9028 81.6775 17.7116 81.234 18.4696C80.8588 19.1133 80.3982 19.6892 79.8354 20.1762C79.1445 20.7733 78.3557 21.1926 77.4815 21.4636C77.0593 21.5949 76.65 21.7134 76.2107 21.7685L76.1607 21.7751C75.8966 21.8103 75.4623 21.8683 74.3259 21.8405H74.3345ZM80.539 14.705C80.5304 14.3365 80.5134 13.9681 80.4793 13.5997C80.4324 13.1424 80.3641 12.6892 80.2533 12.2446C80.0742 11.5078 79.8012 10.809 79.4047 10.1569C79.0635 9.59366 78.6371 9.10667 78.0998 8.72555C77.3067 8.16233 76.4154 7.86166 75.4474 7.79814C75.0637 7.77273 74.6756 7.77697 74.2876 7.80661C73.8441 7.84049 73.4091 7.93365 72.987 8.08187C72.1981 8.35713 71.5115 8.79754 70.9572 9.42427C70.599 9.82657 70.3176 10.2755 70.0788 10.7582C69.7206 11.4866 69.5073 12.2615 69.3879 13.0661C69.3282 13.4727 69.2941 13.8834 69.2771 14.2942C69.2515 15.0014 69.2941 15.7001 69.4221 16.3989C69.5713 17.1992 69.8314 17.9657 70.2152 18.6856C70.4583 19.1472 70.7525 19.5707 71.1235 19.9391C72.0488 20.8538 73.1831 21.2984 74.4752 21.3662C74.5849 21.371 74.6959 21.3703 74.8068 21.3696C74.8899 21.3691 74.9729 21.3686 75.0551 21.3704C75.4474 21.3704 75.8397 21.3323 76.2235 21.2518C76.9399 21.0952 77.5924 20.8072 78.1766 20.3668C78.6456 20.0153 79.0251 19.5791 79.345 19.0921C79.9889 18.1012 80.3385 17.0087 80.475 15.8441C80.5176 15.4672 80.5347 15.0946 80.5262 14.7134L80.539 14.705Z" fill="#131411"/>
<path fill-rule="evenodd" clip-rule="evenodd" d="M99.3401 7.3535C100.432 7.49748 101.4 7.9633 102.133 8.69167H102.137C102.713 9.26336 103.037 10.1654 103.037 11.097C103.037 11.3765 103.007 11.656 102.948 11.9312C102.683 13.1508 101.894 14.0571 100.726 14.4932C100.01 14.76 99.1482 14.9336 98.2399 14.9929H98.2058C98.193 14.9972 98.1802 14.9972 98.1674 14.9972C98.1162 15.0056 98.0523 15.0056 97.9968 15.0056C96.8387 15.0702 95.6534 15.0617 94.5001 15.0534L94.3296 15.0522H93.9458C93.7113 15.0522 93.6558 15.1454 93.6388 15.3148V15.3275C93.6433 15.6607 93.6467 16.0097 93.6501 16.3686L93.6501 16.3723L93.6501 16.3739L93.6502 16.3753C93.6531 16.6848 93.6561 17.0016 93.6601 17.322C93.6686 18.3722 93.6814 19.4563 93.6985 20.4007C93.7112 20.8792 93.8179 21.4128 94.5342 21.7388L94.8029 21.8616H91.0973L91.319 21.7431C92.1207 21.3069 92.1292 20.6336 92.1292 19.9221V9.83081C92.1287 9.78423 92.1282 9.73744 92.1277 9.69049C92.1245 9.37035 92.1211 9.04261 92.0951 8.72131C92.0397 8.07763 91.7795 7.64146 91.319 7.42972L91.0546 7.30692H92.8541C93.4042 7.30268 94.0183 7.30268 94.6963 7.30268H98.2186C98.5469 7.30268 98.7047 7.30268 98.7516 7.30692C98.935 7.31115 99.1269 7.32809 99.3401 7.3535ZM93.6302 8.13692V8.50111C93.6345 8.93728 93.6345 9.37769 93.6345 9.81387V11.6729C93.6345 11.8093 93.6348 11.9459 93.635 12.0826C93.6358 12.4933 93.6366 12.9052 93.6302 13.3117C93.6331 13.385 93.6321 13.4583 93.6312 13.5316C93.6307 13.5683 93.6302 13.6054 93.6302 13.6421V14.1672C93.6345 14.4001 93.6857 14.5186 93.9458 14.5186H97.2506C98.7431 14.5186 99.9157 14.2264 100.389 13.7352C100.747 13.3668 101.012 12.8925 101.174 12.3251C101.297 11.8804 101.37 11.4019 101.37 10.9191C101.37 9.83504 100.995 8.75519 99.9328 8.13692C99.549 7.90825 99.0672 7.78967 98.5469 7.78967H93.9415C93.6814 7.78967 93.6345 7.89978 93.6302 8.13692Z" fill="#131411"/>
<path fill-rule="evenodd" clip-rule="evenodd" d="M122.286 17.2331C122.154 16.6233 121.889 16.0897 121.514 15.6578C121.139 15.2216 120.649 14.8871 120.064 14.6711C119.348 14.4043 118.487 14.2307 117.574 14.1714C117.565 14.1714 117.557 14.1714 117.548 14.1672H117.51C117.482 14.1672 117.454 14.165 117.425 14.1629C117.396 14.1608 117.367 14.1587 117.339 14.1587C116.124 14.0909 114.879 14.1036 113.676 14.1163H113.31C113.05 14.1163 112.994 14.0232 112.977 13.8538V13.8369C112.986 13.2143 112.994 12.5368 112.998 11.8423C113.003 11.5105 113.006 11.1752 113.01 10.8421C113.018 10.1209 113.025 9.40961 113.037 8.76366C113.05 8.28514 113.156 7.75156 113.877 7.42549L114.141 7.30268H110.44L110.657 7.42125C111.459 7.85743 111.463 8.53075 111.468 9.24218V9.293C111.476 11.6602 111.476 14.2307 111.472 16.7165V19.3335C111.472 19.6977 111.468 20.0746 111.438 20.443C111.387 21.0867 111.122 21.5229 110.662 21.7346L110.402 21.8574H112.141C112.696 21.8616 113.361 21.8616 114.039 21.8616H117.561C117.89 21.8616 118.052 21.8616 118.086 21.8574C118.278 21.8574 118.469 21.8362 118.683 21.8108C119.779 21.6668 120.742 21.201 121.476 20.4727C122.209 19.7443 122.546 18.4315 122.286 17.2331ZM117.89 21.3747H113.284C113.024 21.3747 112.977 21.2603 112.973 21.0274V17.4914C112.977 16.9451 112.977 16.3946 112.973 15.8526V14.9972C112.973 14.7643 113.028 14.6457 113.288 14.6457H116.593C118.086 14.6457 119.263 14.9379 119.736 15.4291C120.09 15.7975 120.354 16.2718 120.516 16.8393C120.64 17.2839 120.717 17.7667 120.717 18.2452C120.717 19.3293 120.337 20.4091 119.28 21.0274C118.892 21.2561 118.41 21.3747 117.89 21.3747Z" fill="#131411"/>
<path d="M59.6654 7.70497V7.67533C59.6441 7.33232 59.3712 7.31961 59.1537 7.31961H59.0898C58.4784 7.32244 57.8651 7.32149 57.2525 7.32055C56.9464 7.32008 56.6405 7.31961 56.3351 7.31961H50.7404C50.4349 7.31961 50.129 7.32008 49.8229 7.32055C49.2103 7.32149 48.597 7.32244 47.9857 7.31961L47.9443 7.31961C47.7315 7.31956 47.4353 7.3195 47.41 7.67956V7.70497C47.4057 7.73038 47.4057 7.75579 47.41 7.77696C47.4228 8.81447 47.4228 9.54708 47.4228 9.54708L47.4313 9.70799L47.5464 9.57672L47.5542 9.5676C47.8064 9.27125 48.006 9.03659 48.3311 8.81023C49.6956 7.88283 50.4632 7.79814 52.4759 7.7812C52.7744 7.7812 52.8043 8.21737 52.8043 8.4037V8.72977C52.8 10.3983 52.8 12.0667 52.8 13.7394C52.8 15.8229 52.8 17.9106 52.7915 19.9984C52.7872 20.6631 52.7828 21.3493 51.977 21.7388L51.7297 21.8616H55.3458L55.0984 21.7388C54.2926 21.3493 54.2882 20.6634 54.284 19.9987C54.2754 17.911 54.2754 15.8229 54.2754 13.7394C54.2754 12.0667 54.2754 10.3983 54.2712 8.72977V8.4037C54.2712 8.21737 54.301 7.7812 54.5995 7.7812C56.6122 7.79814 57.3798 7.88283 58.7444 8.81023C59.0658 9.03412 59.2647 9.26612 59.525 9.56983L59.5418 9.58942L59.6527 9.7207V9.54708C59.6527 9.54708 59.6569 8.81447 59.6654 7.78543C59.6683 7.76549 59.6673 7.74747 59.6664 7.73007C59.6659 7.72161 59.6654 7.71329 59.6654 7.70497Z" fill="#131411"/>
<path d="M83.8158 35.1315V29.786H84.3916V32.1531H87.3751V29.786H87.9509V35.1315H87.3751V32.6899H84.3916V35.1315H83.8158Z" fill="#131411"/>
<path d="M92.4673 33.1074L91.4354 30.5875L90.3998 33.1074H92.4673ZM92.6991 33.6441H90.1717L89.5586 35.1315H88.9454L91.1662 29.786H91.7009L93.9217 35.1315H93.3123L92.6991 33.6441Z" fill="#131411"/>
<path d="M96.9539 30.3228V31.9257H98.4456C98.9192 31.9257 99.318 32.0822 99.6421 32.3954C99.9686 32.7085 100.132 33.0862 100.132 33.5286C100.132 33.9709 99.9686 34.3487 99.6421 34.6618C99.318 34.9749 98.9192 35.1315 98.4456 35.1315H96.3781V29.786H99.7093V30.3228H96.9539ZM96.9539 34.5984H98.4456C98.7672 34.5984 99.0326 34.4965 99.242 34.2928C99.4514 34.089 99.5561 33.8342 99.5561 33.5286C99.5561 33.2229 99.4514 32.9682 99.242 32.7644C99.0326 32.5606 98.7672 32.4587 98.4456 32.4587H96.9539V34.5984Z" fill="#131411"/>
<path d="M102.255 30.8819C101.834 31.3069 101.624 31.8325 101.624 32.4587C101.624 33.085 101.834 33.6106 102.255 34.0355C102.677 34.4605 103.194 34.673 103.807 34.673C104.42 34.673 104.937 34.4605 105.359 34.0355C105.78 33.6106 105.991 33.085 105.991 32.4587C105.991 31.8325 105.78 31.3069 105.359 30.8819C104.937 30.457 104.42 30.2445 103.807 30.2445C103.194 30.2445 102.677 30.457 102.255 30.8819ZM105.759 30.5129C106.295 31.0472 106.563 31.6958 106.563 32.4587C106.563 33.2217 106.295 33.8703 105.759 34.4046C105.223 34.9389 104.572 35.206 103.807 35.206C103.042 35.206 102.391 34.9389 101.855 34.4046C101.32 33.8703 101.052 33.2217 101.052 32.4587C101.052 31.6958 101.32 31.0472 101.855 30.5129C102.391 29.9786 103.042 29.7115 103.807 29.7115C104.572 29.7115 105.223 29.9786 105.759 30.5129Z" fill="#131411"/>
<path d="M111.688 29.786V35.1315H111.116V30.3228H108.817V31.3889C108.817 32.1767 108.783 32.8303 108.716 33.3497C108.651 33.8666 108.549 34.258 108.409 34.5239C108.272 34.7873 108.119 34.9675 107.95 35.0644C107.783 35.1588 107.574 35.206 107.325 35.206C107.243 35.206 107.161 35.1998 107.078 35.1874C106.999 35.175 106.938 35.1613 106.895 35.1464L106.828 35.1315V34.5574C106.98 34.6071 107.12 34.6332 107.247 34.6357C107.404 34.6357 107.537 34.5972 107.647 34.5201C107.759 34.4431 107.864 34.2952 107.961 34.0765C108.058 33.8579 108.129 33.5261 108.174 33.0813C108.221 32.6364 108.245 32.0723 108.245 31.3889V29.786H111.688Z" fill="#131411"/>
<path d="M115.33 35.1315H113.3V29.786H113.876V31.7729H115.33C115.826 31.7729 116.237 31.9331 116.564 32.2537C116.89 32.5743 117.054 32.9744 117.054 33.454C117.054 33.9312 116.89 34.33 116.564 34.6506C116.237 34.9712 115.826 35.1315 115.33 35.1315ZM113.876 34.5984H115.33C115.676 34.5984 115.954 34.494 116.164 34.2853C116.373 34.0766 116.478 33.7995 116.478 33.454C116.478 33.1061 116.373 32.8278 116.164 32.619C115.954 32.4103 115.676 32.3059 115.33 32.3059H113.876V34.5984Z" fill="#131411"/>
<path d="M118.317 35.1315V29.786H118.893V34.5984H121.114V29.786H121.686V34.5984H123.907V29.786H124.483V35.1315H118.317Z" fill="#131411"/>
<path d="M126.946 30.8819C126.525 31.3069 126.315 31.8325 126.315 32.4587C126.315 33.085 126.525 33.6106 126.946 34.0355C127.368 34.4605 127.885 34.673 128.498 34.673C129.111 34.673 129.628 34.4605 130.05 34.0355C130.471 33.6106 130.681 33.085 130.681 32.4587C130.681 31.8325 130.471 31.3069 130.05 30.8819C129.628 30.457 129.111 30.2445 128.498 30.2445C127.885 30.2445 127.368 30.457 126.946 30.8819ZM130.45 30.5129C130.985 31.0472 131.253 31.6958 131.253 32.4587C131.253 33.2217 130.985 33.8703 130.45 34.4046C129.914 34.9389 129.263 35.206 128.498 35.206C127.733 35.206 127.082 34.9389 126.546 34.4046C126.01 33.8703 125.742 33.2217 125.742 32.4587C125.742 31.6958 126.01 31.0472 126.546 30.5129C127.082 29.9786 127.733 29.7115 128.498 29.7115C129.263 29.7115 129.914 29.9786 130.45 30.5129Z" fill="#131411"/>
<path d="M135.445 28.7758C135.255 28.9672 135.007 29.0628 134.701 29.0628C134.394 29.0628 134.145 28.9672 133.953 28.7758C133.761 28.5845 133.665 28.3359 133.665 28.0303H134.087C134.087 28.2042 134.146 28.3496 134.263 28.4664C134.38 28.5832 134.525 28.6416 134.697 28.6416C134.871 28.6416 135.017 28.5832 135.134 28.4664C135.254 28.3496 135.314 28.2042 135.314 28.0303H135.733C135.733 28.3359 135.637 28.5845 135.445 28.7758ZM136.88 35.1315H136.308V30.8186L133.014 35.1315H132.517V29.786H133.093V34.1026L136.383 29.786H136.88V35.1315Z" fill="#131411"/>
</svg>
