<svg width="1400" height="700" viewBox="0 0 1400 700" fill="none" xmlns="http://www.w3.org/2000/svg">
<path d="M1038 421H1037.18L1037.99 416.164L1038.14 415.254L1037.24 415.03L1034.14 414.254L1034.99 409.164L1035.14 408.26L1034.25 408.032L1001.25 399.532L1000.53 399.348L1000.15 399.976L996.541 405.838L976 400.236V394.5V393.713L975.235 393.528L944.235 386.028L943.624 385.88L943.226 386.367L939.083 391.43L918.641 388.51L917.908 388.405L917.594 389.076L906.647 412.463L888.726 434.367L888.529 434.607L888.503 434.917L883.003 500.917L882.942 501.654L883.629 501.928L885.253 502.578L884.551 504.684L884.233 505.639L885.19 505.951L906.69 512.951L907.509 513.217L907.894 512.447L909.032 510.173L929.247 515.467L929.926 515.645L930.324 515.067L935.422 507.652L967.737 516.465L968.371 516.638L968.781 516.125L970.36 514.151L993.215 520.958L993.846 521.147L994.268 520.64L996.347 518.146L1009.22 521.959L1009.99 522.188L1010.38 521.481L1027.38 490.481L1027.46 490.333L1027.49 490.167L1038.99 422.167L1039.18 421H1038Z" fill="white" fill-opacity="0.4" stroke="white" stroke-width="2"/>
</svg>
