<svg width="553" height="681" viewBox="0 0 553 681" fill="none" xmlns="http://www.w3.org/2000/svg">
<g opacity="0.03">
<path d="M298.573 136.531L358.071 0H338.836L279.501 136.531H298.573Z" fill="black"/>
<path fill-rule="evenodd" clip-rule="evenodd" d="M431.762 675.774L411.884 680.077H552.562L541.426 675.844C532.631 671.716 524.763 665.869 518.291 658.651C511.82 651.434 506.877 642.994 503.759 633.835C479.377 579.369 439.753 491 403.572 410.307C361.983 317.557 324.943 234.949 320.827 225.632C317.296 217.639 313.799 210.126 310.415 202.856C306.424 194.281 302.591 186.046 299.045 177.762V176.459H219.289V180.855C228.715 182.404 237.304 187.168 243.58 194.329C249.857 201.49 253.428 210.601 253.681 220.096V222.376C253.763 223.949 253.763 225.525 253.681 227.098C253.327 231.825 251.989 236.427 249.75 240.612L212.411 324.305C188.336 378.688 163.279 434.863 138.223 490.06L129.543 509.111C122.793 524.268 115.877 539.344 108.973 554.396C106.161 560.525 103.351 566.65 100.555 572.775C97.4462 579.608 94.3373 586.929 91.2284 594.25L91.2204 594.268L88.4363 601.107C85.9798 607.132 83.3594 613.319 80.2478 619.181C74.9864 632.808 66.5391 644.994 55.604 654.733C44.6689 664.473 31.5599 671.486 17.3599 675.192L0 679.589H133.473V675.192C126.126 675.307 118.852 673.718 112.229 670.553C105.605 667.388 99.8145 662.732 95.3147 656.956C92.8905 651.834 91.7161 646.215 91.8869 640.557C92.0576 634.898 93.5686 629.36 96.2973 624.391L135.602 536.466C136.08 535.61 136.447 534.755 136.799 533.931C137.051 533.344 137.295 532.774 137.568 532.232C137.794 531.781 138.119 531.174 138.488 530.486C139.184 529.185 140.037 527.592 140.679 526.208C142.243 524.043 144.247 522.23 146.56 520.883C148.873 519.537 151.445 518.688 154.108 518.392H380.44C383.103 518.688 385.675 519.537 387.988 520.883C390.301 522.23 392.305 524.043 393.869 526.208L395.179 528.975C397.635 534.186 399.928 539.234 402.057 544.444C414.34 571.636 427.278 601.595 443 638.557C446.703 645.61 448.132 653.626 447.094 661.515C445.752 664.913 443.656 667.967 440.962 670.447C438.327 672.875 435.185 674.694 431.762 675.774ZM378.446 500.486C379.044 500.175 379.559 499.727 379.948 499.179L380.767 497.713C381.054 497.159 381.204 496.545 381.204 495.922C381.204 495.299 381.054 494.685 380.767 494.131C373.625 478.118 365.685 460.344 357.406 441.813C338.915 400.425 318.735 355.255 301.993 317.466L271.532 249.894C271.228 249.212 270.717 248.641 270.071 248.262C269.425 247.882 268.676 247.713 267.929 247.777C267.167 247.749 266.414 247.953 265.771 248.36C265.128 248.767 264.624 249.358 264.326 250.056L153.781 495.433C153.492 496.016 153.342 496.657 153.342 497.306C153.342 497.956 153.492 498.596 153.781 499.179C154.11 499.746 154.589 500.214 155.167 500.53C155.744 500.845 156.398 500.997 157.056 500.969H376.509C377.184 500.963 377.848 500.798 378.446 500.486Z" fill="black"/>
</g>
</svg>
