<svg width="1400" height="700" viewBox="0 0 1400 700" fill="none" xmlns="http://www.w3.org/2000/svg">
<path d="M427.007 363.117L427.081 363.744L427.678 363.947L452.678 372.447L453.145 372.605L453.555 372.332L456.139 370.609L472.667 376.443L473.139 376.609L473.555 376.332L474.637 375.611L481.164 377.942L481.637 378.111L482.055 377.832L483.151 377.101L510.189 385.95L510.633 386.096L511.029 385.849L545.529 364.349L546.015 364.046L546 363.473L544.5 306.973L544.481 306.273L543.816 306.051L541.481 305.273L541 286.974L540.98 286.219L540.248 286.031L501.248 276.031L500.896 275.941L500.567 276.098L488.408 281.935L465.772 275.538L465.405 275.434L465.063 275.601L446.866 284.453L442.196 283.519L441.87 283.454L441.569 283.598L419.569 294.098L418.923 294.406L419.007 295.117L427.007 363.117Z" fill="white" fill-opacity="0.4" stroke="white" stroke-width="2"/>
</svg>
