<svg width="753" height="700" viewBox="0 0 753 700" fill="none" xmlns="http://www.w3.org/2000/svg">
<path d="M95.0068 363.117L95.0806 363.744L95.6781 363.947L120.678 372.447L121.145 372.605L121.555 372.332L124.139 370.609L140.667 376.443L141.139 376.609L141.555 376.332L142.637 375.611L149.164 377.942L149.637 378.111L150.055 377.832L151.151 377.101L178.189 385.95L178.633 386.096L179.029 385.849L213.529 364.349L214.015 364.046L214 363.473L212.5 306.973L212.481 306.273L211.816 306.051L209.481 305.273L209 286.974L208.98 286.219L208.248 286.031L169.248 276.031L168.896 275.941L168.567 276.098L156.408 281.935L133.772 275.538L133.405 275.434L133.063 275.601L114.866 284.453L110.196 283.519L109.87 283.454L109.569 283.598L87.5693 294.098L86.9232 294.406L87.0068 295.117L95.0068 363.117Z" fill="white" fill-opacity="0.4" stroke="white" stroke-width="2"/>
</svg>
