<svg width="753" height="700" viewBox="0 0 753 700" fill="none" xmlns="http://www.w3.org/2000/svg">
<path d="M707 421H706.18L706.986 416.164L707.138 415.254L706.243 415.03L703.138 414.254L703.986 409.164L704.137 408.26L703.249 408.032L670.249 399.532L669.535 399.348L669.148 399.976L665.541 405.838L645 400.236V394.5V393.713L644.235 393.528L613.235 386.028L612.624 385.88L612.226 386.367L608.083 391.43L587.641 388.51L586.908 388.405L586.594 389.076L575.647 412.463L557.726 434.367L557.529 434.607L557.503 434.917L552.003 500.917L551.942 501.654L552.629 501.928L554.253 502.578L553.551 504.684L553.233 505.639L554.19 505.951L575.69 512.951L576.509 513.217L576.894 512.447L578.032 510.173L598.247 515.467L598.926 515.645L599.324 515.067L604.422 507.652L636.737 516.465L637.371 516.638L637.781 516.125L639.36 514.151L662.215 520.958L662.846 521.147L663.268 520.64L665.347 518.146L678.216 521.959L678.989 522.188L679.377 521.481L696.377 490.481L696.458 490.333L696.486 490.167L707.986 422.167L708.183 421H707Z" fill="white" fill-opacity="0.4" stroke="white" stroke-width="2"/>
</svg>
