<svg width="306" height="228" viewBox="0 0 306 228" fill="none" xmlns="http://www.w3.org/2000/svg">
<path d="M225.351 164.252C239.246 150.339 249.529 137.699 256.166 126.323C262.814 114.946 266.133 103.698 266.133 92.5679C266.133 80.4743 262.749 70.853 255.981 63.7145C249.213 56.5761 239.562 53.0016 227.016 53.0016C202.654 53.0016 185.8 68.1239 176.453 98.3792C176.453 98.8715 175.952 99.107 174.973 99.107C174.233 99.107 173.493 98.9251 172.753 98.5612C172.014 98.1973 171.763 97.8976 172.014 97.6515L186.409 42.4812C186.648 41.9996 187.453 41.8819 188.803 42.1173C190.152 42.3635 190.707 42.7274 190.467 43.209C190.217 44.4183 190.097 45.8738 190.097 47.5648C190.097 51.9206 192.187 54.1039 196.376 54.1039C198.835 54.1039 202.654 53.2584 207.811 51.5674C213.47 49.6303 218.573 48.1855 223.132 47.2116C227.68 46.2484 232.914 45.7561 238.822 45.7561C254.566 45.7561 267.177 49.8765 276.654 58.0958C286.121 66.3259 290.865 77.0924 290.865 90.406C290.865 100.809 287.546 110.976 280.898 120.897C274.25 130.818 264.968 141.103 253.032 151.752C241.096 162.4 222.087 178.379 196.017 199.666C195.027 200.393 194.722 201.003 195.092 201.485C195.462 201.977 196.256 202.213 197.486 202.213C230.204 202.213 252.847 201.795 265.393 200.939C277.938 200.094 286.676 198.157 291.594 195.128C296.512 192.099 299.95 186.598 301.931 178.614C302.17 178.133 302.91 177.951 304.15 178.068C305.38 178.197 306 178.497 306 178.978L301.202 216.008C301.202 216.982 300.886 217.881 300.277 218.726C299.656 219.572 298.862 220 297.883 220H170.186C168.956 220 168.031 219.518 167.422 218.544C166.802 217.581 166.867 216.607 167.607 215.644C192.208 195.321 211.457 178.197 225.362 164.284L225.351 164.252Z" fill="white"/>
<path d="M139.519 128.887C147.832 137.945 152 149.08 152 162.293C152 174.034 148.569 184.931 141.717 194.962C134.865 204.994 125.501 213.012 113.627 219.007C101.752 225.002 88.9679 228 75.2639 228C61.5599 228 48.2131 224.083 36.7173 216.259C25.2107 208.435 16.2154 197.419 9.73138 183.221C3.23658 169.013 0 152.986 0 135.12C0 113.596 4.89275 93.2198 14.6891 74.0118C24.4746 54.8039 38.9255 38.5394 58.0094 25.1966C77.1041 11.8647 99.8684 3.47814 126.302 0.0585814C127.276 -0.179489 127.893 0.307473 128.142 1.53029C128.381 2.7531 128.142 3.48896 127.406 3.73785C105.129 8.14215 86.4025 16.5828 71.2371 29.0599C56.061 41.5369 44.6734 56.4055 37.0961 73.6547C29.508 90.904 25.7194 108.954 25.7194 127.794C25.7194 143.94 28.2307 159.176 33.2426 173.493C38.2544 187.809 45.3554 199.313 54.5347 207.991C63.714 216.681 74.1814 221.02 85.9262 221.02C98.4071 221.02 108.193 216.562 115.294 207.623C122.395 198.696 125.945 186.771 125.945 171.837C125.945 156.904 122.763 146.396 116.398 138.064C110.033 129.753 100.853 125.587 88.8597 125.587C82.2567 125.587 76.1299 126.874 70.5011 129.439C64.8722 132.014 58.7563 136.354 52.1424 142.468C51.8935 142.717 51.5254 142.836 51.0383 142.836C50.3022 142.836 49.5662 142.468 48.8301 141.732C48.094 140.996 47.845 140.39 48.094 139.892C54.4589 131.82 62.2851 125.706 71.5944 121.539C80.8927 117.384 91.0571 115.295 102.066 115.295C118.703 115.295 131.195 119.83 139.519 128.876V128.887Z" fill="white"/>
</svg>
