<svg width="230" height="44" viewBox="0 0 230 44" fill="none" xmlns="http://www.w3.org/2000/svg">
<g clip-path="url(#clip0_1257_10036)">
<path d="M41.9785 26.418H0V28.876H41.9785V26.418Z" fill="#131411"/>
<path d="M0 43.7276H2.57237V40.9447H17.2748V31.3414H0V43.7349V43.7276ZM2.57237 33.7921H14.7098V38.4867H2.57237V33.7921Z" fill="#131411"/>
<path d="M19.7882 40.9374H29.5159V43.7202H32.1917V40.9374H41.9712V31.3341H19.7808V40.9374H19.7882ZM32.1991 33.7921H39.4136V38.4868H32.1991V33.7921ZM22.3605 33.7921H29.5233V38.4868H22.3605V33.7921Z" fill="#131411"/>
<path d="M22.2791 1.74902H12.4036V23.9968H22.2791V1.74902ZM19.6994 21.5314H14.9833V4.21444H19.6994V21.5314Z" fill="#131411"/>
<path d="M27.3796 9.15265L32.103 4.21444V23.9968H34.6827V9.15265L39.3988 4.21444V23.9968H41.9785V1.74902H38.3565L34.6827 5.58001V1.74902H31.0607L24.7998 8.2152V23.9968H27.3796V9.15265Z" fill="#131411"/>
<path d="M7.29579 23.9968H9.87555V1.74902H6.25353L0 8.2152V23.9968H7.29579ZM2.57977 9.15265L7.29579 4.21444V21.524H2.57977V9.15265Z" fill="#131411"/>
</g>
<rect x="57.4695" y="1.74902" width="1.7491" height="41.9785" fill="#131411"/>
<path d="M201.441 18.7834H204.432L208.116 29H205.629L204.715 26.3081H200.985L200.087 29H197.663L201.441 18.7834ZM204.18 24.6709L202.889 20.8299H202.826L201.536 24.6709H204.18Z" fill="#131411"/>
<path d="M188.426 18.7834H192.566C193.542 18.7834 194.293 18.8569 194.817 19.0038C195.353 19.1403 195.731 19.3659 195.951 19.6807C196.171 19.9851 196.281 20.4154 196.281 20.9716V22.2309C196.281 22.5143 196.166 22.7819 195.935 23.0338C195.715 23.2856 195.452 23.4588 195.148 23.5533V23.632C195.547 23.6739 195.909 23.8471 196.234 24.1514C196.57 24.4453 196.738 24.7759 196.738 25.1432V26.7174C196.738 27.5465 196.407 28.1342 195.746 28.4805C195.085 28.8268 194.062 29 192.677 29H188.426V18.7834ZM192.566 22.9393C192.955 22.9393 193.243 22.9078 193.432 22.8449C193.621 22.7819 193.747 22.6822 193.81 22.5458C193.883 22.3988 193.92 22.189 193.92 21.9161V21.4124C193.92 21.171 193.889 20.9926 193.826 20.8771C193.763 20.7512 193.632 20.662 193.432 20.6095C193.243 20.557 192.939 20.5308 192.519 20.5308H190.882V22.9393H192.566ZM192.629 27.2526C193.228 27.2526 193.653 27.1844 193.904 27.048C194.156 26.9115 194.282 26.6911 194.282 26.3868V25.5682C194.282 25.1904 194.183 24.9228 193.983 24.7654C193.794 24.608 193.453 24.5293 192.96 24.5293H190.882V27.2526H192.629Z" fill="#131411"/>
<path d="M181.111 20.5308H177.962V18.7834H186.699V20.5308H183.566V29H181.111V20.5308Z" fill="#131411"/>
<path d="M173.559 29.1575C173.098 29.1575 172.683 29.1365 172.316 29.0945C171.959 29.0525 171.565 28.9738 171.135 28.8584C170.652 28.7324 170.254 28.5698 169.939 28.3704C169.624 28.1605 169.362 27.8719 169.152 27.5046C168.931 27.1372 168.821 26.7017 168.821 26.198V21.7115C168.821 19.6546 170.4 18.6261 173.559 18.6261C174.367 18.6261 175.448 18.7415 176.802 18.9724V20.8142C175.585 20.5204 174.514 20.3735 173.591 20.3735C173.203 20.3735 172.898 20.3839 172.678 20.4049C172.468 20.4259 172.248 20.4784 172.017 20.5624C171.523 20.7303 171.277 21.1028 171.277 21.68V26.0248C171.277 26.9483 172.122 27.4101 173.811 27.4101C174.535 27.4101 175.553 27.2579 176.865 26.9536V28.8111C175.742 29.042 174.64 29.1575 173.559 29.1575Z" fill="#131411"/>
<path d="M158.996 18.7834H161.451V22.53H162.679C163.687 22.53 164.484 22.5773 165.072 22.6717C165.67 22.7557 166.137 22.9551 166.473 23.2699C166.819 23.5742 166.993 24.036 166.993 24.6552V26.5757C166.993 28.1919 165.618 29 162.868 29H158.996V18.7834ZM162.758 27.2526C163.377 27.2526 163.828 27.1687 164.112 27.0007C164.395 26.8223 164.537 26.5547 164.537 26.1979V25.1117C164.537 24.7864 164.4 24.566 164.127 24.4505C163.855 24.3351 163.409 24.2774 162.789 24.2774H161.436V27.2526H162.758Z" fill="#131411"/>
<path d="M147.379 29.1259C147.211 29.1259 147.033 29.1049 146.844 29.0629C146.655 29.0314 146.518 29.0105 146.434 29V27.0794C146.665 27.1109 146.859 27.1267 147.017 27.1267C147.542 27.1267 147.946 26.9797 148.229 26.6859C148.512 26.3816 148.717 25.7834 148.843 24.8913C148.979 23.9993 149.047 22.6455 149.047 20.8299V18.7834H156.478V29H154.022V20.5151H151.267V21.9318C151.267 23.8733 151.089 25.3741 150.732 26.434C150.386 27.494 149.929 28.2076 149.362 28.5749C148.806 28.9422 148.145 29.1259 147.379 29.1259Z" fill="#131411"/>
<path d="M136.921 18.7834H144.713V20.5308H139.376V22.8764H144.193V24.6237H139.376V27.2526H144.87V29H136.921V18.7834Z" fill="#131411"/>
<path d="M129.605 20.5308H126.457V18.7834H135.193V20.5308H132.061V29H129.605V20.5308Z" fill="#131411"/>
<path d="M115.399 18.7834H117.855V25.7729L122.262 18.7834H124.718V29H122.262V21.9004L117.855 29H115.399V18.7834Z" fill="#131411"/>
<path d="M108.244 29.1575C107.677 29.1575 107.152 29.1207 106.669 29.0473C106.197 28.9738 105.704 28.8479 105.19 28.6695C104.634 28.4806 104.198 28.1762 103.883 27.7564C103.568 27.3261 103.411 26.8067 103.411 26.198V21.7273C103.411 21.2235 103.521 20.7722 103.741 20.3735C103.972 19.9747 104.266 19.6598 104.623 19.4289C104.938 19.2295 105.326 19.0616 105.788 18.9252C106.25 18.7888 106.68 18.7048 107.079 18.6733C107.446 18.6418 107.834 18.6261 108.244 18.6261C108.726 18.6261 109.146 18.6471 109.503 18.6891C109.86 18.7206 110.259 18.794 110.699 18.9095C111.203 19.0564 111.618 19.2348 111.943 19.4447C112.268 19.6546 112.541 19.9484 112.762 20.3262C112.992 20.7145 113.108 21.1815 113.108 21.7273V26.198C113.108 26.7647 112.956 27.2527 112.651 27.662C112.358 28.0713 111.948 28.3809 111.424 28.5907C110.479 28.9686 109.419 29.1575 108.244 29.1575ZM108.275 27.4101C108.621 27.4101 108.91 27.3996 109.141 27.3786C109.382 27.3471 109.629 27.2947 109.881 27.2212C110.133 27.1477 110.322 27.027 110.448 26.8591C110.584 26.6807 110.652 26.4603 110.652 26.198V21.7115C110.652 21.2288 110.458 20.8877 110.07 20.6883C109.681 20.4784 109.078 20.3735 108.259 20.3735C107.441 20.3735 106.837 20.4732 106.449 20.6726C106.061 20.8719 105.867 21.2183 105.867 21.7115V26.198C105.867 26.4603 105.935 26.6807 106.071 26.8591C106.208 27.027 106.407 27.1477 106.669 27.2212C106.921 27.2947 107.163 27.3471 107.394 27.3786C107.635 27.3996 107.929 27.4101 108.275 27.4101Z" fill="#131411"/>
<path d="M93.447 18.7834H97.5399C98.5369 18.7834 99.324 18.8517 99.9012 18.9881C100.489 19.1245 100.914 19.3659 101.176 19.7122C101.449 20.048 101.586 20.5203 101.586 21.129V23.0653C101.586 23.7369 101.439 24.2616 101.145 24.6394C100.861 25.0173 100.405 25.2849 99.7753 25.4423C99.1561 25.5997 98.3165 25.6784 97.2566 25.6784H95.9028V29H93.447V18.7834ZM97.4612 23.994C98.1014 23.994 98.5527 23.9206 98.815 23.7736C99.0774 23.6162 99.2086 23.3539 99.2086 22.9865V21.3494C99.2086 21.0136 99.0826 20.7932 98.8308 20.6882C98.5894 20.5833 98.1224 20.5308 97.4297 20.5308H95.9028V23.994H97.4612Z" fill="#131411"/>
<path d="M86.1313 20.5308H82.9829V18.7834H91.7197V20.5308H88.587V29H86.1313V20.5308Z" fill="#131411"/>
<path d="M78.5801 29.1575C78.1184 29.1575 77.7038 29.1365 77.3365 29.0945C76.9797 29.0525 76.5861 28.9738 76.1559 28.8584C75.6731 28.7324 75.2743 28.5698 74.9595 28.3704C74.6446 28.1605 74.3823 27.8719 74.1724 27.5046C73.952 27.1372 73.8418 26.7017 73.8418 26.198V21.7115C73.8418 19.6546 75.4212 18.6261 78.5801 18.6261C79.3882 18.6261 80.4692 18.7415 81.823 18.9724V20.8142C80.6056 20.5204 79.5351 20.3735 78.6116 20.3735C78.2233 20.3735 77.919 20.3839 77.6986 20.4049C77.4887 20.4259 77.2683 20.4784 77.0374 20.5624C76.5442 20.7303 76.2975 21.1028 76.2975 21.68V26.0248C76.2975 26.9483 77.1424 27.4101 78.832 27.4101C79.5561 27.4101 80.5741 27.2579 81.8859 26.9536V28.8111C80.763 29.042 79.6611 29.1575 78.5801 29.1575Z" fill="#131411"/>
<path d="M221.032 2.78345H228.824V4.5308H223.487V6.87635H228.305V8.62371H223.487V11.2526H228.981V13H221.032V2.78345Z" fill="#131411"/>
<path d="M209.187 2.78345H211.643V9.77287L216.051 2.78345H218.506V13H216.051V5.90035L211.643 13H209.187V2.78345Z" fill="#131411"/>
<path d="M197.419 2.78345H199.875V6.87635H204.22V2.78345H206.676V13H204.22V8.62371H199.875V13H197.419V2.78345Z" fill="#131411"/>
<path d="M189.297 2.78345H192.288L195.972 13H193.484L192.571 10.3081H188.841L187.943 13H185.519L189.297 2.78345ZM192.036 8.67093L190.745 4.8299H190.682L189.392 8.67093H192.036Z" fill="#131411"/>
<path d="M176.282 2.78345H180.422C181.398 2.78345 182.149 2.85691 182.673 3.00383C183.209 3.14026 183.586 3.3659 183.807 3.68074C184.027 3.98508 184.137 4.41536 184.137 4.97158V6.23093C184.137 6.51429 184.022 6.7819 183.791 7.03377C183.571 7.28564 183.308 7.4588 183.004 7.55325V7.63196C183.403 7.67394 183.765 7.8471 184.09 8.15145C184.426 8.4453 184.594 8.77588 184.594 9.14319V10.7174C184.594 11.5465 184.263 12.1342 183.602 12.4805C182.941 12.8268 181.918 13 180.533 13H176.282V2.78345ZM180.422 6.93932C180.811 6.93932 181.099 6.90783 181.288 6.84487C181.477 6.7819 181.603 6.6822 181.666 6.54577C181.739 6.39885 181.776 6.18895 181.776 5.91609V5.41235C181.776 5.17097 181.745 4.99257 181.682 4.87712C181.619 4.75119 181.488 4.66199 181.288 4.60951C181.099 4.55704 180.795 4.5308 180.375 4.5308H178.738V6.93932H180.422ZM180.485 11.2526C181.084 11.2526 181.509 11.1844 181.76 11.048C182.012 10.9115 182.138 10.6911 182.138 10.3868V9.56822C182.138 9.19042 182.039 8.9228 181.839 8.76538C181.65 8.60796 181.309 8.52925 180.816 8.52925H178.738V11.2526H180.485Z" fill="#131411"/>
<path d="M169.127 13.1575C168.56 13.1575 168.035 13.1207 167.553 13.0473C167.08 12.9738 166.587 12.8479 166.073 12.6695C165.517 12.4806 165.081 12.1762 164.766 11.7564C164.451 11.3261 164.294 10.8067 164.294 10.198V5.72726C164.294 5.22352 164.404 4.77225 164.625 4.37345C164.855 3.97466 165.149 3.65982 165.506 3.42894C165.821 3.22954 166.209 3.06163 166.671 2.9252C167.133 2.78877 167.563 2.70481 167.962 2.67332C168.329 2.64184 168.717 2.6261 169.127 2.6261C169.609 2.6261 170.029 2.64709 170.386 2.68907C170.743 2.72055 171.142 2.79401 171.582 2.90945C172.086 3.05638 172.501 3.23479 172.826 3.44468C173.151 3.65457 173.424 3.94842 173.645 4.32623C173.876 4.71453 173.991 5.18154 173.991 5.72726V10.198C173.991 10.7647 173.839 11.2527 173.534 11.662C173.241 12.0713 172.831 12.3809 172.307 12.5907C171.362 12.9686 170.302 13.1575 169.127 13.1575ZM169.158 11.4101C169.505 11.4101 169.793 11.3996 170.024 11.3786C170.265 11.3471 170.512 11.2947 170.764 11.2212C171.016 11.1477 171.205 11.027 171.331 10.8591C171.467 10.6807 171.535 10.4603 171.535 10.198V5.71152C171.535 5.22877 171.341 4.88769 170.953 4.68829C170.564 4.4784 169.961 4.37345 169.142 4.37345C168.324 4.37345 167.72 4.47315 167.332 4.67255C166.944 4.87195 166.75 5.21827 166.75 5.71152V10.198C166.75 10.4603 166.818 10.6807 166.954 10.8591C167.091 11.027 167.29 11.1477 167.553 11.2212C167.804 11.2947 168.046 11.3471 168.277 11.3786C168.518 11.3996 168.812 11.4101 169.158 11.4101Z" fill="#131411"/>
<path d="M154.33 2.78345H158.423C159.42 2.78345 160.207 2.85166 160.784 2.98809C161.372 3.12452 161.797 3.3659 162.059 3.71222C162.332 4.04805 162.469 4.52031 162.469 5.129V7.06525C162.469 7.73691 162.322 8.26164 162.028 8.63945C161.745 9.01725 161.288 9.28487 160.658 9.44229C160.039 9.59971 159.2 9.67842 158.14 9.67842H156.786V13H154.33V2.78345ZM158.344 7.99403C158.984 7.99403 159.436 7.92057 159.698 7.77364C159.96 7.61622 160.092 7.35386 160.092 6.98654V5.34938C160.092 5.01356 159.966 4.79317 159.714 4.68822C159.472 4.58328 159.005 4.5308 158.313 4.5308H156.786V7.99403H158.344Z" fill="#131411"/>
<path d="M142.486 2.78345H144.941V9.77287L149.349 2.78345H151.805V13H149.349V5.90035L144.941 13H142.486V2.78345Z" fill="#131411"/>
<path d="M137.296 13.1575C136.834 13.1575 136.419 13.1365 136.052 13.0945C135.695 13.0525 135.302 12.9738 134.871 12.8584C134.389 12.7324 133.99 12.5698 133.675 12.3704C133.36 12.1605 133.098 11.8719 132.888 11.5045C132.668 11.1372 132.557 10.7017 132.557 10.198V5.71152C132.557 3.65457 134.137 2.6261 137.296 2.6261C138.104 2.6261 139.185 2.74154 140.539 2.97242V4.81423C139.321 4.52038 138.251 4.37345 137.327 4.37345C136.939 4.37345 136.635 4.38395 136.414 4.40494C136.204 4.42593 135.984 4.4784 135.753 4.56236C135.26 4.73027 135.013 5.10283 135.013 5.68003V10.0248C135.013 10.9483 135.858 11.4101 137.548 11.4101C138.272 11.4101 139.29 11.2579 140.602 10.9536V12.8111C139.479 13.042 138.377 13.1575 137.296 13.1575Z" fill="#131411"/>
<path d="M121.01 2.78345H123.466V6.87635H127.811V2.78345H130.267V13H127.811V8.62371H123.466V13H121.01V2.78345Z" fill="#131411"/>
<path d="M112.888 2.78345H115.879L119.563 13H117.075L116.162 10.3081H112.431L111.534 13H109.11L112.888 2.78345ZM115.627 8.67093L114.336 4.8299H114.273L112.982 8.67093H115.627Z" fill="#131411"/>
<path d="M98.4126 2.78345H100.868V6.87635H105.213V2.78345H107.669V13H105.213V8.62371H100.868V13H98.4126V2.78345Z" fill="#131411"/>
<path d="M86.5679 2.78345H89.0236V9.77287L93.4314 2.78345H95.8871V13H93.4314V5.90035L89.0236 13H86.5679V2.78345Z" fill="#131411"/>
<path d="M77.8404 11.8193C76.6964 11.8193 75.7362 11.5832 74.9596 11.1109C74.183 10.6282 73.7947 9.89357 73.7947 8.90707V6.41985C73.7947 5.37038 74.1882 4.60428 74.9753 4.12152C75.7624 3.62828 76.7174 3.38165 77.8404 3.38165V2.07507H80.2646V3.38165C81.377 3.38165 82.3268 3.62828 83.1139 4.12152C83.9115 4.61477 84.3103 5.38088 84.3103 6.41985V8.90707C84.3103 9.53675 84.1214 10.072 83.7436 10.5128C83.3658 10.9535 82.8673 11.2841 82.2481 11.5045C81.6394 11.7144 80.9782 11.8193 80.2646 11.8193V13.1574H77.8404V11.8193ZM77.8718 5.00307C77.3996 5.00307 77.0113 5.11851 76.7069 5.3494C76.4026 5.58028 76.2504 5.88462 76.2504 6.26243V9.03301C76.2504 9.38983 76.4026 9.67318 76.7069 9.88307C77.0218 10.0825 77.4101 10.1822 77.8718 10.1822V5.00307ZM80.2331 10.1979C80.6949 10.1979 81.0779 10.093 81.3823 9.88307C81.6971 9.67318 81.8545 9.38983 81.8545 9.03301V6.26243C81.8545 5.88462 81.7024 5.58028 81.398 5.3494C81.0937 5.11851 80.7054 5.00307 80.2331 5.00307V10.1979Z" fill="#131411"/>
<path d="M144.181 42.2134H143.202L144.16 40.8491L143.202 39.4778H144.181L145.168 40.8491L144.181 42.2134ZM145.763 42.2134H144.783L145.742 40.8491L144.783 39.4778H145.763L146.749 40.8491L145.763 42.2134Z" fill="#131411"/>
<path d="M139.576 42.4233C138.942 42.4233 138.403 42.3394 137.96 42.1714C137.522 42.0035 137.188 41.761 136.96 41.4438C136.731 41.122 136.617 40.7302 136.617 40.2684C136.617 39.8067 136.731 39.4172 136.96 39.1C137.188 38.7782 137.522 38.5333 137.96 38.3654C138.403 38.1975 138.942 38.1135 139.576 38.1135C139.586 38.1135 139.611 38.1135 139.653 38.1135C139.7 38.1135 139.744 38.1135 139.786 38.1135C139.833 38.1135 139.859 38.1135 139.863 38.1135C140.493 38.1135 141.025 38.1975 141.458 38.3654C141.897 38.5333 142.228 38.7782 142.452 39.1C142.676 39.4219 142.788 39.8113 142.788 40.2684C142.788 40.7209 142.676 41.1103 142.452 41.4368C142.233 41.7587 141.909 42.0035 141.479 42.1714C141.055 42.3394 140.535 42.4233 139.919 42.4233C139.905 42.4233 139.873 42.4233 139.821 42.4233C139.77 42.4233 139.719 42.4233 139.667 42.4233C139.621 42.4233 139.59 42.4233 139.576 42.4233ZM139.681 41.5488C139.695 41.5488 139.714 41.5488 139.737 41.5488C139.761 41.5488 139.777 41.5488 139.786 41.5488C140.215 41.5488 140.57 41.5021 140.85 41.4088C141.134 41.3109 141.347 41.1686 141.486 40.9821C141.626 40.7908 141.696 40.5506 141.696 40.2614C141.696 39.9722 141.624 39.7344 141.479 39.5478C141.335 39.3612 141.123 39.2236 140.843 39.135C140.568 39.0417 140.22 38.9951 139.8 38.9951C139.791 38.9951 139.772 38.9951 139.744 38.9951C139.721 38.9951 139.7 38.9951 139.681 38.9951C139.238 38.9951 138.872 39.0394 138.583 39.128C138.294 39.2166 138.077 39.3566 137.932 39.5478C137.788 39.7344 137.715 39.9746 137.715 40.2684C137.715 40.5623 137.792 40.8048 137.946 40.9961C138.1 41.1826 138.322 41.3226 138.611 41.4158C138.905 41.5045 139.262 41.5488 139.681 41.5488ZM139.185 42.9481V37.6238H140.227V42.9481H139.185Z" fill="#131411"/>
<path d="M131.925 42.7311V37.8336H134.045C134.483 37.8336 134.861 37.9059 135.178 38.0505C135.495 38.1904 135.74 38.3933 135.913 38.6592C136.085 38.9251 136.172 39.2422 136.172 39.6107C136.172 39.9745 136.085 40.2894 135.913 40.5552C135.74 40.8211 135.495 41.0263 135.178 41.1709C134.861 41.3108 134.483 41.3808 134.045 41.3808H132.554L133.058 40.8701V42.7311H131.925ZM133.058 40.996L132.554 40.4573H133.982C134.332 40.4573 134.593 40.3826 134.765 40.2334C134.938 40.0841 135.024 39.8766 135.024 39.6107C135.024 39.3402 134.938 39.1303 134.765 38.981C134.593 38.8318 134.332 38.7571 133.982 38.7571H132.554L133.058 38.2184V40.996Z" fill="#131411"/>
<path d="M130.402 42.7871C130.215 42.7871 130.054 42.7241 129.919 42.5982C129.788 42.4676 129.723 42.302 129.723 42.1015C129.723 41.9009 129.788 41.74 129.919 41.6187C130.054 41.4928 130.215 41.4298 130.402 41.4298C130.593 41.4298 130.754 41.4928 130.885 41.6187C131.015 41.74 131.08 41.9009 131.08 42.1015C131.08 42.302 131.015 42.4676 130.885 42.5982C130.754 42.7241 130.593 42.7871 130.402 42.7871Z" fill="#131411"/>
<path d="M123.357 42.7311V37.8336H124.294L126.379 41.2898H125.883L127.933 37.8336H128.87L128.877 42.7311H127.814L127.807 39.4638H128.01L126.365 42.2134H125.862L124.183 39.4638H124.42V42.7311H123.357Z" fill="#131411"/>
<path d="M119.811 42.8152C119.424 42.8152 119.065 42.7522 118.734 42.6263C118.407 42.5003 118.123 42.3231 117.88 42.0945C117.642 41.866 117.456 41.5978 117.321 41.2899C117.19 40.9821 117.125 40.6463 117.125 40.2825C117.125 39.9186 117.19 39.5828 117.321 39.275C117.456 38.9671 117.645 38.6989 117.887 38.4704C118.13 38.2418 118.414 38.0646 118.741 37.9387C119.067 37.8127 119.422 37.7498 119.804 37.7498C120.192 37.7498 120.546 37.8127 120.868 37.9387C121.194 38.0646 121.477 38.2418 121.714 38.4704C121.957 38.6989 122.146 38.9671 122.281 39.275C122.416 39.5782 122.484 39.914 122.484 40.2825C122.484 40.6463 122.416 40.9844 122.281 41.2969C122.146 41.6048 121.957 41.873 121.714 42.1015C121.477 42.3254 121.194 42.5003 120.868 42.6263C120.546 42.7522 120.194 42.8152 119.811 42.8152ZM119.804 41.8497C120.024 41.8497 120.224 41.8123 120.406 41.7377C120.593 41.6631 120.756 41.5558 120.896 41.4159C121.036 41.2759 121.143 41.1104 121.218 40.9191C121.297 40.7279 121.337 40.5157 121.337 40.2825C121.337 40.0492 121.297 39.837 121.218 39.6458C121.143 39.4545 121.036 39.289 120.896 39.149C120.761 39.0091 120.6 38.9018 120.413 38.8272C120.226 38.7526 120.024 38.7153 119.804 38.7153C119.585 38.7153 119.382 38.7526 119.196 38.8272C119.014 38.9018 118.853 39.0091 118.713 39.149C118.573 39.289 118.463 39.4545 118.384 39.6458C118.309 39.837 118.272 40.0492 118.272 40.2825C118.272 40.511 118.309 40.7232 118.384 40.9191C118.463 41.1104 118.571 41.2759 118.706 41.4159C118.846 41.5558 119.009 41.6631 119.196 41.7377C119.382 41.8123 119.585 41.8497 119.804 41.8497Z" fill="#131411"/>
<path d="M114.899 42.2274V38.7571H113.22L113.199 39.4708C113.185 39.774 113.164 40.0608 113.136 40.3313C113.113 40.6019 113.076 40.8491 113.024 41.073C112.973 41.2922 112.906 41.4788 112.822 41.6327C112.742 41.7866 112.642 41.8962 112.521 41.9615L111.31 41.8076C111.478 41.8122 111.616 41.7539 111.723 41.6327C111.835 41.5114 111.924 41.3412 111.989 41.1219C112.054 40.898 112.101 40.6368 112.129 40.3383C112.162 40.0398 112.185 39.7157 112.199 39.3658L112.255 37.8336H116.019V42.2274H114.899ZM111.149 43.7456L111.156 41.8076H116.705V43.7456H115.655V42.7311H112.199V43.7456H111.149Z" fill="#131411"/>
<path d="M107.765 42.7311L106.505 40.947L107.394 40.4223L109.052 42.7311H107.765ZM105.099 42.7311V38.967H106.19V42.7311H105.099ZM105.868 41.3038V40.4293H107.184V41.3038H105.868ZM107.499 40.975L106.477 40.8631L107.799 38.967H108.961L107.499 40.975Z" fill="#131411"/>
<path d="M100.241 42.7311V38.967H101.325V40.4363H102.963V38.967H104.054V42.7311H102.963V41.3248H101.325V42.7311H100.241Z" fill="#131411"/>
<path d="M98.2715 42.7312V41.9966L98.2015 41.8356V40.5203C98.2015 40.2871 98.1292 40.1052 97.9846 39.9746C97.8447 39.844 97.6278 39.7787 97.3339 39.7787C97.1334 39.7787 96.9351 39.8113 96.7393 39.8766C96.548 39.9373 96.3848 40.0212 96.2495 40.1285L95.8577 39.3659C96.0629 39.2213 96.3101 39.1094 96.5993 39.0301C96.8885 38.9508 97.1824 38.9111 97.4809 38.9111C98.0546 38.9111 98.5 39.0464 98.8172 39.3169C99.1344 39.5875 99.2929 40.0096 99.2929 40.5833V42.7312H98.2715ZM97.1241 42.7871C96.8302 42.7871 96.5783 42.7382 96.3684 42.6402C96.1585 42.5376 95.9976 42.4 95.8857 42.2274C95.7737 42.0549 95.7178 41.8613 95.7178 41.6467C95.7178 41.4228 95.7714 41.2269 95.8787 41.059C95.9906 40.8911 96.1655 40.7605 96.4034 40.6672C96.6413 40.5693 96.9515 40.5203 97.3339 40.5203H98.3344V41.157H97.4529C97.1963 41.157 97.0191 41.199 96.9212 41.2829C96.8279 41.3669 96.7812 41.4718 96.7812 41.5978C96.7812 41.7377 96.8349 41.8496 96.9421 41.9336C97.0541 42.0129 97.2057 42.0525 97.3969 42.0525C97.5788 42.0525 97.7421 42.0105 97.8867 41.9266C98.0313 41.838 98.1362 41.7097 98.2015 41.5418L98.3694 42.0455C98.2901 42.2881 98.1455 42.4723 97.9356 42.5982C97.7257 42.7242 97.4552 42.7871 97.1241 42.7871Z" fill="#131411"/>
<path d="M90.937 42.7311V37.8336H94.89V38.7362H92.0634V39.7436H93.4207C94.0131 39.7436 94.4632 39.8672 94.771 40.1144C95.0836 40.3617 95.2398 40.7208 95.2398 41.1919C95.2398 41.677 95.0672 42.0548 94.7221 42.3253C94.3769 42.5958 93.8895 42.7311 93.2598 42.7311H90.937ZM92.0634 41.8915H93.1969C93.486 41.8915 93.7076 41.8356 93.8615 41.7236C94.0154 41.607 94.0924 41.4391 94.0924 41.2199C94.0924 40.7908 93.7939 40.5762 93.1969 40.5762H92.0634V41.8915Z" fill="#131411"/>
<path d="M87.5903 42.2134L86.6038 40.8491L87.5903 39.4778H88.5698L87.6112 40.8491L88.5698 42.2134H87.5903ZM89.1714 42.2134L88.1849 40.8491L89.1714 39.4778H90.1509L89.1924 40.8491L90.1509 42.2134H89.1714Z" fill="#131411"/>
<path d="M81.4334 42.8152C81.0463 42.8152 80.6872 42.7522 80.356 42.6263C80.0295 42.5003 79.745 42.3231 79.5024 42.0945C79.2646 41.866 79.078 41.5978 78.9427 41.2899C78.8121 40.9821 78.7468 40.6463 78.7468 40.2825C78.7468 39.9186 78.8121 39.5828 78.9427 39.275C79.078 38.9671 79.2669 38.6989 79.5094 38.4704C79.752 38.2418 80.0365 38.0646 80.363 37.9387C80.6895 37.8127 81.044 37.7498 81.4265 37.7498C81.8136 37.7498 82.1681 37.8127 82.4899 37.9387C82.8164 38.0646 83.0986 38.2418 83.3365 38.4704C83.579 38.6989 83.7679 38.9671 83.9032 39.275C84.0384 39.5782 84.1061 39.914 84.1061 40.2825C84.1061 40.6463 84.0384 40.9844 83.9032 41.2969C83.7679 41.6048 83.579 41.873 83.3365 42.1015C83.0986 42.3254 82.8164 42.5003 82.4899 42.6263C82.1681 42.7522 81.8159 42.8152 81.4334 42.8152ZM81.4265 41.8497C81.6457 41.8497 81.8462 41.8123 82.0281 41.7377C82.2147 41.6631 82.378 41.5558 82.5179 41.4159C82.6578 41.2759 82.7651 41.1104 82.8397 40.9191C82.919 40.7279 82.9587 40.5157 82.9587 40.2825C82.9587 40.0492 82.919 39.837 82.8397 39.6458C82.7651 39.4545 82.6578 39.289 82.5179 39.149C82.3826 39.0091 82.2217 38.9018 82.0351 38.8272C81.8486 38.7526 81.6457 38.7153 81.4265 38.7153C81.2072 38.7153 81.0043 38.7526 80.8178 38.8272C80.6359 38.9018 80.4749 39.0091 80.335 39.149C80.1951 39.289 80.0855 39.4545 80.0062 39.6458C79.9316 39.837 79.8942 40.0492 79.8942 40.2825C79.8942 40.511 79.9316 40.7232 80.0062 40.9191C80.0855 41.1104 80.1928 41.2759 80.328 41.4159C80.4679 41.5558 80.6312 41.6631 80.8178 41.7377C81.0043 41.8123 81.2072 41.8497 81.4265 41.8497Z" fill="#131411"/>
<path d="M73.0164 42.7311L75.1992 37.8336H76.3187L78.5085 42.7311H77.3192L75.5281 38.4073H75.9758L74.1778 42.7311H73.0164ZM74.1078 41.6816L74.4086 40.8211H76.9274L77.2352 41.6816H74.1078Z" fill="#131411"/>
<defs>
<clipPath id="clip0_1257_10036">
<rect width="41.9785" height="41.9785" fill="white" transform="translate(0 1.74902)"/>
</clipPath>
</defs>
</svg>
