<svg width="60" height="60" viewBox="0 0 60 60" fill="none" xmlns="http://www.w3.org/2000/svg">
<g clip-path="url(#clip0_996_54435)">
<path d="M59.5898 26.2031L23.0273 5.09485C21.9775 4.49079 20.731 4.32759 19.5611 4.64101C18.3912 4.95443 17.3932 5.7189 16.7859 6.76688L12.5766 14.0573L9.77437 18.9103C9.16997 19.9605 9.00672 21.2075 9.32043 22.3779C9.63413 23.5483 10.3992 24.5465 11.4478 25.1536L23.9836 32.3906L22.0341 35.715C21.7747 36.155 21.4053 36.5199 20.9621 36.7738C20.519 37.0277 20.0173 37.1618 19.5066 37.163H12.1875V31.5848C12.1875 31.3673 12.1011 31.1586 11.9472 31.0048C11.7934 30.851 11.5847 30.7645 11.3672 30.7645H6.91406V29.7061C6.91295 28.743 6.52985 27.8196 5.8488 27.1385C5.16776 26.4575 4.24439 26.0744 3.28125 26.0733H0.820313C0.71257 26.0732 0.605872 26.0944 0.50632 26.1356C0.406767 26.1768 0.316312 26.2372 0.240127 26.3134C0.163941 26.3896 0.10352 26.4801 0.0623172 26.5796C0.0211145 26.6792 -6.14858e-05 26.7859 1.34094e-07 26.8936V54.6984C-6.14858e-05 54.8062 0.0211145 54.9129 0.0623172 55.0124C0.10352 55.112 0.163941 55.2024 0.240127 55.2786C0.316312 55.3548 0.406767 55.4152 0.50632 55.4564C0.605872 55.4976 0.71257 55.5188 0.820313 55.5188H3.28125C4.24439 55.5176 5.16776 55.1345 5.8488 54.4535C6.52985 53.7725 6.91295 52.8491 6.91406 51.8859V49.2802H11.3672C11.5847 49.2802 11.7934 49.1937 11.9472 49.0399C12.1011 48.8861 12.1875 48.6774 12.1875 48.4598V44.4286H19.5066C21.2836 44.4248 23.029 43.9584 24.5711 43.0753C26.1132 42.1921 27.3987 40.9227 28.3013 39.3919L30.2761 36.0244L37.1475 39.9914C37.8393 40.3928 38.6248 40.6046 39.4247 40.6055C39.8267 40.6053 40.227 40.5524 40.6153 40.448C41.3615 40.2495 42.0447 39.8641 42.6005 39.3281C43.4992 39.7451 44.478 39.9617 45.4688 39.9628C46.076 39.9624 46.6805 39.8824 47.2669 39.7247C48.7625 39.3272 50.0795 38.435 51.0033 37.1934L52.6833 38.1633C52.7766 38.2172 52.8796 38.2523 52.9865 38.2664C53.0933 38.2805 53.2019 38.2733 53.306 38.2454C53.4101 38.2175 53.5076 38.1694 53.5931 38.1037C53.6786 38.0381 53.7503 37.9562 53.8041 37.8628L59.8884 27.3248C59.9425 27.2316 59.9776 27.1286 59.9919 27.0218C60.0061 26.9149 59.9992 26.8063 59.9715 26.7021C59.9437 26.598 59.8958 26.5003 59.8303 26.4147C59.7648 26.3291 59.6831 26.2572 59.5898 26.2031ZM5.27344 51.8859C5.27294 52.4142 5.06289 52.9206 4.68939 53.2941C4.31589 53.6676 3.80946 53.8776 3.28125 53.8781H1.64063V27.7139H3.28125C3.80946 27.7144 4.31589 27.9245 4.68939 28.298C5.06289 28.6715 5.27294 29.1779 5.27344 29.7061V51.8859ZM10.5469 47.6395H6.91406V32.4052H10.5469V47.6395ZM26.8856 38.5617C26.1285 39.8463 25.05 40.9116 23.7561 41.6527C22.4622 42.3938 20.9977 42.7853 19.5066 42.7884H12.1875V38.8041H19.5066C20.3033 38.8023 21.0858 38.5932 21.7771 38.1972C22.4684 37.8012 23.0447 37.232 23.4492 36.5456L25.4062 33.2119L28.8572 35.2041L26.8856 38.5617ZM37.9688 38.5706L12.2681 23.7328C11.5958 23.3437 11.1053 22.7038 10.9043 21.9535C10.7032 21.2032 10.808 20.4038 11.1956 19.7306L13.5862 15.5883L37.1395 29.1867L44.3606 33.3558L41.9695 37.5L41.9663 37.5052C41.9039 37.611 41.8348 37.7128 41.7595 37.8098V37.8131C41.3269 38.3776 40.704 38.7656 40.0066 38.9049C39.3093 39.0443 38.585 38.9255 37.9688 38.5706ZM46.8455 38.1398C45.771 38.4304 44.6318 38.3704 43.5938 37.9688L45.7842 34.1752L49.5778 36.3652C48.879 37.2328 47.9214 37.8546 46.8445 38.1398H46.8455ZM52.7963 36.3305L47.4914 33.2677L45.8906 32.3438L27.7795 21.8878L14.4075 14.1675L18.2067 7.58719C18.596 6.91504 19.2359 6.42474 19.9862 6.22385C20.7365 6.02297 21.5359 6.1279 22.2089 6.51563L58.0589 27.2142L52.7963 36.3305Z" fill="#F6F6F6"/>
<path d="M49.2908 31.8717C49.7685 32.1492 50.311 32.2955 50.8635 32.2959C51.1408 32.2957 51.4169 32.2591 51.6847 32.1872C52.3897 31.9984 53.0074 31.5709 53.4326 30.9777C53.8578 30.3845 54.0642 29.6622 54.0165 28.9339C53.9689 28.2057 53.6702 27.5164 53.1713 26.9837C52.6725 26.4509 52.0043 26.1076 51.2807 26.0123C50.5571 25.9169 49.8229 26.0754 49.203 26.4607C48.5832 26.8461 48.1161 27.4344 47.8814 28.1255C47.6467 28.8165 47.6589 29.5676 47.9159 30.2507C48.1729 30.9338 48.6588 31.5067 49.2908 31.8717ZM49.5575 28.3828C49.6568 28.2108 49.7891 28.06 49.9469 27.9394C50.1046 27.8187 50.2847 27.7304 50.4768 27.6797C50.6052 27.6453 50.7376 27.6278 50.8705 27.6277C51.2041 27.6277 51.5284 27.7378 51.793 27.941C52.0577 28.1441 52.2479 28.4289 52.3342 28.7511C52.4205 29.0734 52.398 29.4151 52.2703 29.7233C52.1426 30.0315 51.9168 30.2889 51.6278 30.4557C51.3389 30.6224 51.003 30.6892 50.6723 30.6456C50.3415 30.602 50.0344 30.4505 49.7985 30.2145C49.5627 29.9786 49.4113 29.6714 49.3678 29.3407C49.3243 29.0099 49.3911 28.674 49.558 28.3852L49.5575 28.3828Z" fill="#F6F6F6"/>
<path d="M21.3282 23.5641L14.6063 19.6823C14.5129 19.6276 14.4097 19.5919 14.3025 19.5773C14.1953 19.5626 14.0863 19.5693 13.9817 19.597C13.8771 19.6246 13.7791 19.6727 13.6931 19.7384C13.6072 19.8041 13.5351 19.8862 13.481 19.9798C13.4269 20.0735 13.3919 20.177 13.3779 20.2843C13.364 20.3916 13.3714 20.5005 13.3998 20.6049C13.4281 20.7093 13.4768 20.8071 13.5431 20.8926C13.6094 20.9781 13.6919 21.0497 13.786 21.1031L20.5097 24.9844C20.6974 25.0825 20.9157 25.1042 21.119 25.0451C21.3223 24.9859 21.4948 24.8505 21.6006 24.667C21.7063 24.4835 21.7369 24.2663 21.6862 24.0607C21.6354 23.8552 21.5071 23.6772 21.3282 23.5641Z" fill="#F6F6F6"/>
</g>
<defs>
<clipPath id="clip0_996_54435">
<rect width="60" height="60" fill="white"/>
</clipPath>
</defs>
</svg>
