<svg width="60" height="60" viewBox="0 0 60 60" fill="none" xmlns="http://www.w3.org/2000/svg">
<path d="M50.075 43.6921C48.8948 44.8724 49.742 46.8918 51.4003 46.8918C53.0573 46.8918 53.9073 44.8737 52.7257 43.6921C51.9934 42.9595 50.8077 42.9594 50.075 43.6921ZM55.9951 40.4228C56.3855 40.8132 56.3855 41.4461 55.9951 41.8366C55.6048 42.2269 54.972 42.2272 54.5814 41.8366C52.8235 40.0786 49.9777 40.0785 48.2197 41.8366C47.8292 42.2271 47.1964 42.227 46.8059 41.8366C46.4155 41.4462 46.4155 40.8133 46.8059 40.4228C49.3452 37.8836 53.4554 37.883 55.9951 40.4228ZM58.9992 38.4183C58.7433 38.4183 58.4875 38.3207 58.2923 38.1255C54.4834 34.3163 48.3179 34.3161 44.5086 38.1255C44.1181 38.516 43.4853 38.5159 43.0948 38.1255C42.7044 37.7351 42.7044 37.1021 43.0948 36.7118C47.6855 32.1212 55.1151 32.1208 59.7062 36.7118C60.3368 37.3424 59.8833 38.4182 58.9992 38.4183ZM50.8576 50.9302C50.8576 54.2375 48.1671 56.9282 44.8597 56.9282H12.4958C9.18846 56.9282 6.49789 54.2375 6.49789 50.9302V20.6293L1.54384 23.8434C1.08075 24.1439 0.461714 24.012 0.161192 23.5489C-0.13933 23.0857 -0.00750007 22.4666 0.455591 22.1662L23.7521 7.05132C26.6888 5.14597 30.4835 5.14597 33.4203 7.05132L39.2366 10.825V5.071C38.6846 5.071 38.237 4.6234 38.237 4.07134C38.237 3.51928 38.6846 3.07169 39.2366 3.07169H49.858C50.41 3.07169 50.8576 3.51928 50.8576 4.07134C50.8576 4.6234 50.41 5.071 49.858 5.071H49.733V11.8187C49.733 12.3707 49.2854 12.8183 48.7334 12.8183C48.1813 12.8183 47.7337 12.3707 47.7337 11.8187V5.071H41.236V12.1222L56.7168 22.1662C57.5517 22.7079 57.1616 24.0046 56.1717 24.0046C55.7333 24.0046 57.314 24.937 32.3321 8.72849C30.0567 7.25225 27.1162 7.25212 24.8405 8.72849L8.4972 19.3321V50.9302C8.4972 53.1351 10.291 54.9289 12.4958 54.9289H36.2377V38.3687C36.2377 37.1647 35.2581 36.1853 34.0542 36.1853H23.1763C21.9723 36.1853 20.9928 37.1647 20.9928 38.3687V50.8053C20.9928 51.3573 20.5452 51.8049 19.9931 51.8049C19.4411 51.8049 18.9935 51.3573 18.9935 50.8053V38.3687C18.9935 36.0623 20.87 34.186 23.1763 34.186H34.0542C36.3605 34.186 38.237 36.0623 38.237 38.3687V54.9289H44.8597C47.0646 54.9289 48.8583 53.1351 48.8583 50.9302C48.8583 50.3782 49.3059 49.9306 49.858 49.9306C50.41 49.9306 50.8576 50.3782 50.8576 50.9302ZM49.858 24.1894C50.41 24.1894 50.8576 24.637 50.8576 25.1891V29.2502C50.8576 29.8022 50.41 30.2498 49.858 30.2498C49.3059 30.2498 48.8583 29.8022 48.8583 29.2502V25.1891C48.8583 24.637 49.3059 24.1894 49.858 24.1894Z" fill="#F6F6F6"/>
</svg>
