<svg width="40" height="40" viewBox="0 0 40 40" fill="none" xmlns="http://www.w3.org/2000/svg">
<path d="M24.0061 32.6204H16.1595C15.0141 32.6204 14.0827 31.689 14.0827 30.5436V27.9046C10.6728 25.8318 8.56726 22.1113 8.56726 18.1195C8.56726 11.8045 13.7044 6.66727 20.0195 6.66727C26.3345 6.66727 31.4717 11.8044 31.4717 18.1195C31.4717 22.0474 29.4132 25.7378 26.0802 27.825V30.5436C26.0815 31.689 25.1502 32.6204 24.0061 32.6204ZM20.0209 7.73177C14.2928 7.73177 9.63309 12.3914 9.63309 18.1195C9.63309 21.8335 11.6433 25.2891 14.8798 27.1376C15.0455 27.2329 15.1485 27.409 15.1485 27.6007V30.545C15.1485 31.102 15.6025 31.556 16.1595 31.556H24.0061C24.5631 31.556 25.017 31.102 25.017 30.545V27.5264C25.017 27.3373 25.1162 27.1638 25.2792 27.0672C28.4427 25.2031 30.4085 21.7749 30.4085 18.1197C30.4085 12.3915 25.7489 7.73177 20.0209 7.73177Z" fill="#F6F6F6"/>
<path d="M28.4088 18.6518C28.114 18.6518 27.8765 18.4131 27.8765 18.1195C27.8765 13.7886 24.3531 10.2638 20.0208 10.2638C19.726 10.2638 19.4885 10.0251 19.4885 9.73153C19.4885 9.43799 19.7272 9.19928 20.0208 9.19928C24.9401 9.19928 28.9423 13.2015 28.9423 18.1208C28.9423 18.4131 28.7036 18.6518 28.4088 18.6518Z" fill="#F6F6F6"/>
<path d="M20.0209 40C17.4366 40 15.3337 37.8971 15.3337 35.3129C15.3337 35.0181 15.5724 34.7806 15.866 34.7806C16.1595 34.7806 16.3982 35.0193 16.3982 35.3129C16.3982 37.3101 18.0236 38.9342 20.0195 38.9342C22.0154 38.9342 23.6408 37.3101 23.6408 35.3129C23.6408 35.0181 23.8795 34.7806 24.1731 34.7806C24.4666 34.7806 24.7053 35.0193 24.7053 35.3129C24.7079 37.8971 22.605 40 20.0209 40Z" fill="#F6F6F6"/>
<path d="M24.1756 35.8464C23.8808 35.8464 23.6434 35.6077 23.6434 35.3142V32.6204H16.3995V35.3142C16.3995 35.609 16.1608 35.8464 15.8672 35.8464C15.5737 35.8464 15.335 35.6077 15.335 35.3142V32.0882C15.335 31.7934 15.5737 31.5559 15.8672 31.5559H24.1756C24.4704 31.5559 24.7079 31.7946 24.7079 32.0882V35.3142C24.7079 35.6077 24.4692 35.8464 24.1756 35.8464Z" fill="#F6F6F6"/>
<path d="M24.1757 35.8465H15.8673C15.5725 35.8465 15.3351 35.6078 15.3351 35.3142C15.3351 35.0207 15.5738 34.782 15.8673 34.782H24.1757C24.4705 34.782 24.708 35.0207 24.708 35.3142C24.7079 35.6078 24.4692 35.8465 24.1757 35.8465Z" fill="#F6F6F6"/>
<path d="M20.0209 4.21483C19.7261 4.21483 19.4886 3.97612 19.4886 3.68257V0.532254C19.4886 0.23746 19.7274 0 20.0209 0C20.3144 0 20.5532 0.238705 20.5532 0.532254V3.68265C20.5531 3.97612 20.3157 4.21483 20.0209 4.21483Z" fill="#F6F6F6"/>
<path d="M9.80927 8.42708C9.67359 8.42708 9.53666 8.37487 9.43225 8.27053L7.20416 6.04244C6.99672 5.835 6.99672 5.49715 7.20416 5.28972C7.4116 5.08096 7.74945 5.08096 7.95689 5.28972L10.185 7.5178C10.3924 7.72524 10.3924 8.06309 10.185 8.27053C10.0819 8.37487 9.94619 8.42708 9.80927 8.42708Z" fill="#F6F6F6"/>
<path d="M5.56692 18.6257H2.41653C2.12174 18.6257 1.88428 18.387 1.88428 18.0935C1.88428 17.7987 2.12298 17.5612 2.41653 17.5612H5.56692C5.86172 17.5612 6.09918 17.7999 6.09918 18.0935C6.1005 18.3883 5.86179 18.6257 5.56692 18.6257Z" fill="#F6F6F6"/>
<path d="M37.5833 18.6688H34.4329C34.1381 18.6688 33.9006 18.4301 33.9006 18.1365C33.9006 17.8431 34.1393 17.6043 34.4329 17.6043H37.5833C37.8781 17.6043 38.1155 17.843 38.1155 18.1365C38.1155 18.43 37.8768 18.6688 37.5833 18.6688Z" fill="#F6F6F6"/>
<path d="M30.2195 8.45711C30.0838 8.45711 29.9469 8.4049 29.8425 8.30056C29.635 8.09312 29.635 7.75527 29.8425 7.54784L32.0706 5.31975C32.278 5.11107 32.6158 5.11107 32.8233 5.31975C33.0307 5.52719 33.0307 5.86504 32.8233 6.07248L30.5952 8.30056C30.4922 8.4049 30.3565 8.45711 30.2195 8.45711Z" fill="#F6F6F6"/>
</svg>
