<svg width="40" height="40" viewBox="0 0 40 40" fill="none" xmlns="http://www.w3.org/2000/svg">
<path fill-rule="evenodd" clip-rule="evenodd" d="M8.59375 25.1756C8.59375 19.8281 16.7288 8.0029 19.2547 4.46002C19.719 3.80888 19.9937 3.4375 19.9937 3.4375C19.9937 3.4375 20.2685 3.80888 20.7327 4.46002C23.2587 8.0029 31.3937 19.8281 31.3937 25.1756C31.3937 31.5058 26.2898 36.6375 19.9937 36.6375C13.6977 36.6375 8.59375 31.5058 8.59375 25.1756ZM30.1937 25.1756C30.1937 30.8492 25.6209 35.4375 19.9937 35.4375C14.3665 35.4375 9.79375 30.8492 9.79375 25.1756C9.79375 23.8723 10.4046 21.9267 11.4661 19.6079C12.5065 17.3352 13.9039 14.8618 15.3165 12.5605C16.7266 10.2631 18.1385 8.15854 19.1991 6.62706C19.494 6.20114 19.7614 5.81998 19.9937 5.49178C20.2261 5.81998 20.4935 6.20114 20.7884 6.62706C21.8489 8.15854 23.2609 10.2631 24.671 12.5605C26.0836 14.8618 27.481 17.3352 28.5214 19.6079C29.5829 21.9267 30.1937 23.8723 30.1937 25.1756Z" fill="#F6F6F6"/>
</svg>
