<svg width="60" height="60" viewBox="0 0 60 60" fill="none" xmlns="http://www.w3.org/2000/svg">
<g clip-path="url(#clip0_996_54115)">
<path d="M58.75 17.5C58.06 17.5 57.5 16.94 57.5 16.25V6.25C57.5 4.1825 55.8175 2.5 53.75 2.5H43.75C43.06 2.5 42.5 1.94 42.5 1.25C42.5 0.56 43.06 0 43.75 0H53.75C57.195 0 60 2.8025 60 6.25V16.25C60 16.94 59.44 17.5 58.75 17.5Z" fill="#F6F6F6"/>
<path d="M53.75 60H43.75C43.06 60 42.5 59.44 42.5 58.75C42.5 58.06 43.06 57.5 43.75 57.5H53.75C55.8175 57.5 57.5 55.8175 57.5 53.75V43.75C57.5 43.06 58.06 42.5 58.75 42.5C59.44 42.5 60 43.06 60 43.75V53.75C60 57.1975 57.195 60 53.75 60Z" fill="#F6F6F6"/>
<path d="M16.25 60H6.25C2.805 60 0 57.1975 0 53.75V43.75C0 43.06 0.56 42.5 1.25 42.5C1.94 42.5 2.5 43.06 2.5 43.75V53.75C2.5 55.8175 4.1825 57.5 6.25 57.5H16.25C16.94 57.5 17.5 58.06 17.5 58.75C17.5 59.44 16.94 60 16.25 60Z" fill="#F6F6F6"/>
<path d="M1.25 17.5C0.56 17.5 0 16.94 0 16.25V6.25C0 2.8025 2.805 0 6.25 0H16.25C16.94 0 17.5 0.56 17.5 1.25C17.5 1.94 16.94 2.5 16.25 2.5H6.25C4.1825 2.5 2.5 4.1825 2.5 6.25V16.25C2.5 16.94 1.94 17.5 1.25 17.5Z" fill="#F6F6F6"/>
<path d="M43.75 47.5H16.25C14.1825 47.5 12.5 45.8175 12.5 43.75V36.25C12.5 35.56 13.06 35 13.75 35C14.44 35 15 35.56 15 36.25V43.75C15 44.4375 15.56 45 16.25 45H43.75C44.44 45 45 44.4375 45 43.75V36.25C45 35.56 45.56 35 46.25 35C46.94 35 47.5 35.56 47.5 36.25V43.75C47.5 45.8175 45.8175 47.5 43.75 47.5Z" fill="#F6F6F6"/>
<path d="M46.25 27.5C45.56 27.5 45 26.94 45 26.25V16.25C45 15.5625 44.44 15 43.75 15H16.25C15.56 15 15 15.5625 15 16.25V26.25C15 26.94 14.44 27.5 13.75 27.5C13.06 27.5 12.5 26.94 12.5 26.25V16.25C12.5 14.1825 14.1825 12.5 16.25 12.5H43.75C45.8175 12.5 47.5 14.1825 47.5 16.25V26.25C47.5 26.94 46.94 27.5 46.25 27.5Z" fill="#F6F6F6"/>
<path d="M51.25 37.5H8.75C8.06 37.5 7.5 36.94 7.5 36.25C7.5 35.56 8.06 35 8.75 35H51.25C51.94 35 52.5 35.56 52.5 36.25C52.5 36.94 51.94 37.5 51.25 37.5Z" fill="#F6F6F6"/>
</g>
<defs>
<clipPath id="clip0_996_54115">
<rect width="60" height="60" fill="white"/>
</clipPath>
</defs>
</svg>
