<svg width="40" height="40" viewBox="0 0 40 40" fill="none" xmlns="http://www.w3.org/2000/svg">
<path d="M19.9999 0C13.8246 0 8.80054 5.02406 8.80054 11.1995V16.6833C8.80054 17.0567 9.10358 17.3595 9.47702 17.3595H13.2315C13.6049 17.3595 13.9077 17.0567 13.9077 16.6833V11.1995C13.9077 7.84023 16.6406 5.10727 19.9998 5.10727C23.3591 5.10727 26.0919 7.84023 26.0919 11.1995V16.6833C26.0919 17.0567 26.3951 17.3595 26.7686 17.3595H30.523C30.8965 17.3595 31.1993 17.0567 31.1993 16.6833V11.1995C31.1994 5.02406 26.1753 0 19.9999 0ZM29.8469 16.007H27.4447V11.1995C27.4447 7.09445 24.105 3.75477 20.0001 3.75477C15.8951 3.75477 12.5555 7.09445 12.5555 11.1995V16.007H10.1533V11.1995C10.1533 5.76984 14.5705 1.35258 20 1.35258C25.4296 1.35258 29.8469 5.76984 29.8469 11.1995V16.007Z" fill="#F6F6F6"/>
<path d="M32.0805 16.007H7.9196C6.31764 16.007 5.01428 17.3104 5.01428 18.9123V37.0947C5.01428 38.6966 6.31764 40 7.9196 40H32.0805C33.6824 40 34.9857 38.6966 34.9857 37.0946V18.9123C34.9857 17.3104 33.6824 16.007 32.0805 16.007ZM33.6332 37.0946C33.6332 37.9509 32.9366 38.6474 32.0805 38.6474H7.9196C7.06334 38.6474 6.36678 37.9509 6.36678 37.0946V18.9123C6.36678 18.0561 7.06334 17.3595 7.9196 17.3595H32.0805C32.9366 17.3595 33.6332 18.0561 33.6332 18.9123V37.0946Z" fill="#F6F6F6"/>
<path d="M22.2742 28.8891C23.0643 28.2234 23.5241 27.2502 23.5241 26.2044C23.5241 24.2612 21.9431 22.6802 19.9999 22.6802C18.0566 22.6802 16.4757 24.2612 16.4757 26.2044C16.4757 27.2502 16.9355 28.2234 17.7257 28.8893L16.9655 32.5113C16.9237 32.7109 16.9739 32.9184 17.1023 33.0766C17.2309 33.2347 17.4237 33.3266 17.6273 33.3266H22.3725C22.5763 33.3266 22.7691 33.2348 22.8974 33.0766C23.0258 32.9184 23.076 32.7108 23.0342 32.5115L22.2742 28.8891ZM21.1602 28.0328C20.9227 28.1841 20.8036 28.4666 20.8615 28.7423L21.5396 31.974H18.4603L19.1386 28.7425C19.1964 28.4668 19.0775 28.1842 18.8398 28.033C18.2064 27.6299 17.8283 26.9462 17.8283 26.2045C17.8283 25.007 18.8024 24.0329 19.9999 24.0329C21.1973 24.0329 22.1715 25.007 22.1715 26.2045C22.1716 26.9464 21.7935 27.6299 21.1602 28.0328Z" fill="#F6F6F6"/>
</svg>
