<svg width="551" height="415" viewBox="0 0 551 415" fill="none" xmlns="http://www.w3.org/2000/svg">
<path d="M150.821 320C121.671 320 95.6891 313.426 72.8758 300.278C50.0625 286.706 32.1076 268.045 19.0111 244.294C6.33703 220.119 0 192.552 0 161.591C0 131.479 6.33703 104.759 19.0111 81.4325C32.1076 58.1059 50.0625 40.0809 72.8758 27.3573C96.1116 14.2096 122.305 7.63574 151.455 7.63574C180.183 7.63574 205.742 14.2096 228.133 27.3573C250.946 40.505 268.479 58.9542 280.73 82.7048C293.404 106.031 299.742 132.963 299.742 163.5C299.742 194.036 293.404 221.18 280.73 244.93C268.056 268.681 250.313 287.13 227.499 300.278C205.109 313.426 179.549 320 150.821 320ZM158.426 311.093C190.533 311.093 214.403 298.794 230.034 274.195C245.666 249.172 253.481 214.818 253.481 171.134C253.481 136.78 248.623 107.94 238.906 84.6134C229.189 61.2868 216.093 44.11 199.616 33.0829C183.14 21.6317 164.763 15.9061 144.484 15.9061C113.222 15.9061 88.7184 29.0538 70.9747 55.3491C53.2311 81.2204 44.3592 115.15 44.3592 157.138C44.3592 186.826 49.0064 213.334 58.3007 236.66C67.595 259.987 80.9027 278.224 98.224 291.372C115.545 304.519 135.612 311.093 158.426 311.093Z" fill="white"/>
<path d="M452.44 173.44C482.734 173.867 506.627 182.4 524.12 199.04C542.04 215.253 551 235.307 551 259.2C551 290.773 532.867 320.427 496.6 348.16C460.334 376.32 407 398.293 336.6 414.08C334.894 414.507 333.614 413.44 332.76 410.88C332.334 408.32 332.76 406.827 334.04 406.4C395.054 392.747 438.787 373.12 465.24 347.52C492.12 321.92 505.56 294.827 505.56 266.24C505.56 244.907 498.734 226.56 485.08 211.2C471.854 195.413 452.654 187.52 427.48 187.52C408.707 187.52 393.56 190.293 382.04 195.84L380.76 196.48C379.054 196.48 377.774 195.627 376.92 193.92C376.067 192.213 376.28 190.933 377.56 190.08C383.96 186.24 392.067 182.827 401.88 179.84C411.694 176.853 422.36 174.933 433.88 174.08C455.214 159.147 469.934 145.707 478.04 133.76C486.574 121.813 490.84 108.16 490.84 92.8C490.84 71.8933 484.44 54.8267 471.64 41.6C458.84 28.3733 440.28 21.76 415.96 21.76C393.774 21.76 375.64 27.7333 361.56 39.68C347.48 51.6267 336.6 71.4667 328.92 99.2C328.92 100.053 327.854 100.48 325.72 100.48C324.44 100.48 323.16 100.267 321.88 99.84C321.027 98.9867 320.814 98.3467 321.24 97.92L346.2 0.639984C346.2 0.213323 347.054 0 348.76 0C353.027 0 354.734 0.640002 353.88 1.92C353.027 6.18666 352.6 8.95999 352.6 10.24C352.6 14.5067 353.667 17.7067 355.8 19.84C357.934 21.5467 360.494 22.4 363.48 22.4C367.747 22.4 375.214 20.48 385.88 16.64C397.827 12.8 407.64 10.0267 415.32 8.31999C423.427 6.61332 432.6 5.75998 442.84 5.75998C468.44 5.75998 489.774 12.3733 506.84 25.6C523.907 38.4 532.44 55.4667 532.44 76.8C532.44 93.44 526.04 109.44 513.24 124.8C500.867 140.16 480.6 156.373 452.44 173.44Z" fill="white"/>
</svg>
