<svg width="60" height="60" viewBox="0 0 60 60" fill="none" xmlns="http://www.w3.org/2000/svg">
<g clip-path="url(#clip0_510_1253)">
<path d="M30 2.5L7.5 12.5V27.5C7.5 41.375 17.1 54.35 30 57.5C42.9 54.35 52.5 41.375 52.5 27.5V12.5L30 2.5ZM47.5 27.5C47.5 32.125 46.225 36.625 44.05 40.525L40.425 36.9C43.65 32.05 43.1 25.45 38.825 21.175C33.95 16.3 26.025 16.3 21.15 21.175C16.275 26.05 16.275 33.975 21.15 38.85C25.425 43.125 32.025 43.65 36.875 40.45L41.175 44.75C38.2 48.3 34.35 51.025 30 52.35C19.95 49.225 12.5 38.8 12.5 27.5V15.75L30 7.975L47.5 15.75V27.5ZM30 37.5C25.85 37.5 22.5 34.15 22.5 30C22.5 25.85 25.85 22.5 30 22.5C34.15 22.5 37.5 25.85 37.5 30C37.5 34.15 34.15 37.5 30 37.5Z" fill="white"/>
</g>
<defs>
<clipPath id="clip0_510_1253">
<rect width="60" height="60" fill="white"/>
</clipPath>
</defs>
</svg>
